{
	"asset":{
		"copyright":"CC0: This work has been marked as dedicated to the public domain. Model by Ed Mackey. Cloth backdrop by Adobe.",
		"generator":"Khronos glTF Blender I/O v4.4.55",
		"version":"2.0"
	},
	"extensionsUsed":[
		"KHR_materials_transmission",
		"KHR_materials_volume"
	],
	"scene":0,
	"scenes":[
		{
			"name":"Scene",
			"nodes":[
				0,
				1,
				2,
				3,
				4,
				5,
				6,
				7,
				8,
				9,
				10,
				11,
				12,
				13
			]
		}
	],
	"nodes":[
		{
			"mesh":0,
			"name":"Cloth Backdrop",
			"scale":[
				3.5,
				3.5,
				3.5
			],
			"translation":[
				-0.15470129251480103,
				-0.841584324836731,
				-0.1703687310218811
			]
		},
		{
			"mesh":1,
			"name":"AlphaBlend",
			"translation":[
				0,
				1.5,
				0
			]
		},
		{
			"mesh":2,
			"name":"Glass"
		},
		{
			"mesh":2,
			"name":"Glass.001",
			"translation":[
				-2,
				0,
				0
			]
		},
		{
			"mesh":2,
			"name":"Glass.002",
			"translation":[
				2,
				0,
				0
			]
		},
		{
			"mesh":2,
			"name":"Glass.003",
			"translation":[
				0,
				1.5,
				0
			]
		},
		{
			"mesh":2,
			"name":"Glass.004",
			"translation":[
				-2,
				1.5,
				0
			]
		},
		{
			"mesh":2,
			"name":"Glass.005",
			"translation":[
				2,
				1.5,
				0
			]
		},
		{
			"mesh":3,
			"name":"AlphaBlend.001",
			"translation":[
				-2,
				1.5,
				-0.25
			]
		},
		{
			"mesh":4,
			"name":"AlphaBlend.002",
			"translation":[
				2,
				1.5,
				0.25
			]
		},
		{
			"mesh":5,
			"name":"AlphaMask"
		},
		{
			"mesh":6,
			"name":"AlphaMask.001",
			"translation":[
				-2,
				0,
				-0.25
			]
		},
		{
			"mesh":7,
			"name":"AlphaMask.002",
			"translation":[
				2,
				0,
				0.25
			]
		},
		{
			"mesh":8,
			"name":"Labels",
			"translation":[
				-3,
				0,
				0
			]
		}
	],
	"materials":[
		{
			"name":"Cloth Backdrop",
			"pbrMetallicRoughness":{
				"baseColorTexture":{
					"index":0
				},
				"metallicFactor":0,
				"roughnessFactor":0.4934999942779541
			}
		},
		{
			"alphaMode":"BLEND",
			"doubleSided":true,
			"name":"Alpha Blend Material",
			"pbrMetallicRoughness":{
				"baseColorFactor":[
					0.814842164516449,
					0.274677574634552,
					0.008023271337151527,
					1
				],
				"baseColorTexture":{
					"index":1
				},
				"metallicFactor":0,
				"roughnessFactor":0.5
			}
		},
		{
			"doubleSided":false,
			"extensions":{
				"KHR_materials_transmission":{
					"transmissionFactor":1
				},
				"KHR_materials_volume":{
					"attenuationColor":[
						0.800000011920929,
						0.800000011920929,
						0.800000011920929
					],
					"attenuationDistance":1,
					"thicknessFactor":0.4000000059604645
				}
			},
			"name":"Blue Glass Material",
			"pbrMetallicRoughness":{
				"baseColorFactor":[
					0.08148469775915146,
					0.22146940231323242,
					0.8148467540740967,
					1
				],
				"metallicFactor":0,
				"roughnessFactor":0
			}
		},
		{
			"alphaMode":"MASK",
			"doubleSided":true,
			"name":"Alpha Mask Material",
			"pbrMetallicRoughness":{
				"baseColorFactor":[
					0.814842164516449,
					0.274677574634552,
					0.008023271337151527,
					1
				],
				"baseColorTexture":{
					"index":2
				},
				"metallicFactor":0,
				"roughnessFactor":0.5
			}
		},
		{
			"name":"Label Material",
			"pbrMetallicRoughness":{
				"baseColorTexture":{
					"index":3
				},
				"metallicFactor":0,
				"roughnessFactor":0.5
			}
		}
	],
	"meshes":[
		{
			"name":"Cloth Backdrop",
			"primitives":[
				{
					"attributes":{
						"POSITION":0,
						"NORMAL":1,
						"TEXCOORD_0":2
					},
					"indices":3,
					"material":0
				}
			]
		},
		{
			"name":"Plane",
			"primitives":[
				{
					"attributes":{
						"POSITION":4,
						"NORMAL":5,
						"TEXCOORD_0":6
					},
					"indices":7,
					"material":1
				}
			]
		},
		{
			"name":"Glass Box",
			"primitives":[
				{
					"attributes":{
						"POSITION":8,
						"NORMAL":9
					},
					"indices":10,
					"material":2
				}
			]
		},
		{
			"name":"Plane.001",
			"primitives":[
				{
					"attributes":{
						"POSITION":11,
						"NORMAL":12,
						"TEXCOORD_0":13
					},
					"indices":7,
					"material":1
				}
			]
		},
		{
			"name":"Plane.002",
			"primitives":[
				{
					"attributes":{
						"POSITION":14,
						"NORMAL":15,
						"TEXCOORD_0":16
					},
					"indices":7,
					"material":1
				}
			]
		},
		{
			"name":"Plane.003",
			"primitives":[
				{
					"attributes":{
						"POSITION":17,
						"NORMAL":18,
						"TEXCOORD_0":19
					},
					"indices":7,
					"material":3
				}
			]
		},
		{
			"name":"Plane.004",
			"primitives":[
				{
					"attributes":{
						"POSITION":20,
						"NORMAL":21,
						"TEXCOORD_0":22
					},
					"indices":7,
					"material":3
				}
			]
		},
		{
			"name":"Plane.005",
			"primitives":[
				{
					"attributes":{
						"POSITION":23,
						"NORMAL":24,
						"TEXCOORD_0":25
					},
					"indices":7,
					"material":3
				}
			]
		},
		{
			"name":"Plane.006",
			"primitives":[
				{
					"attributes":{
						"POSITION":26,
						"NORMAL":27,
						"TEXCOORD_0":28
					},
					"indices":29,
					"material":4
				}
			]
		}
	],
	"textures":[
		{
			"sampler":0,
			"source":0
		},
		{
			"sampler":0,
			"source":1
		},
		{
			"sampler":0,
			"source":1
		},
		{
			"sampler":0,
			"source":2
		}
	],
	"images":[
		{
			"mimeType":"image/jpeg",
			"name":"checkerboard",
			"uri":"checkerboard.jpg"
		},
		{
			"mimeType":"image/png",
			"name":"alphaInACircle",
			"uri":"alphaInACircle.png"
		},
		{
			"mimeType":"image/png",
			"name":"BlendMaskLabels",
			"uri":"BlendMaskLabels.png"
		}
	],
	"accessors":[
		{
			"bufferView":0,
			"componentType":5126,
			"count":62658,
			"max":[
				0.9809443354606628,
				1.0221298933029175,
				1.4283748865127563
			],
			"min":[
				-0.8216659426689148,
				0.0015843699220567942,
				-0.46063709259033203
			],
			"type":"VEC3"
		},
		{
			"bufferView":1,
			"componentType":5126,
			"count":62658,
			"type":"VEC3"
		},
		{
			"bufferView":2,
			"componentType":5126,
			"count":62658,
			"type":"VEC2"
		},
		{
			"bufferView":3,
			"componentType":5123,
			"count":131337,
			"type":"SCALAR"
		},
		{
			"bufferView":4,
			"componentType":5126,
			"count":4,
			"max":[
				0.4999999701976776,
				0.5,
				0
			],
			"min":[
				-0.4999999701976776,
				-0.5,
				0
			],
			"type":"VEC3"
		},
		{
			"bufferView":5,
			"componentType":5126,
			"count":4,
			"type":"VEC3"
		},
		{
			"bufferView":6,
			"componentType":5126,
			"count":4,
			"type":"VEC2"
		},
		{
			"bufferView":7,
			"componentType":5123,
			"count":6,
			"type":"SCALAR"
		},
		{
			"bufferView":8,
			"componentType":5126,
			"count":296,
			"max":[
				0.5,
				0.3499999940395355,
				0.20000000298023224
			],
			"min":[
				-0.5,
				-0.3499999940395355,
				-0.20000000298023224
			],
			"type":"VEC3"
		},
		{
			"bufferView":9,
			"componentType":5126,
			"count":296,
			"type":"VEC3"
		},
		{
			"bufferView":10,
			"componentType":5123,
			"count":1764,
			"type":"SCALAR"
		},
		{
			"bufferView":11,
			"componentType":5126,
			"count":4,
			"max":[
				0.4999999701976776,
				0.5,
				0
			],
			"min":[
				-0.4999999701976776,
				-0.5,
				0
			],
			"type":"VEC3"
		},
		{
			"bufferView":12,
			"componentType":5126,
			"count":4,
			"type":"VEC3"
		},
		{
			"bufferView":13,
			"componentType":5126,
			"count":4,
			"type":"VEC2"
		},
		{
			"bufferView":14,
			"componentType":5126,
			"count":4,
			"max":[
				0.4999999701976776,
				0.5,
				0
			],
			"min":[
				-0.4999999701976776,
				-0.5,
				0
			],
			"type":"VEC3"
		},
		{
			"bufferView":15,
			"componentType":5126,
			"count":4,
			"type":"VEC3"
		},
		{
			"bufferView":16,
			"componentType":5126,
			"count":4,
			"type":"VEC2"
		},
		{
			"bufferView":17,
			"componentType":5126,
			"count":4,
			"max":[
				0.4999999701976776,
				0.5,
				0
			],
			"min":[
				-0.4999999701976776,
				-0.5,
				0
			],
			"type":"VEC3"
		},
		{
			"bufferView":18,
			"componentType":5126,
			"count":4,
			"type":"VEC3"
		},
		{
			"bufferView":19,
			"componentType":5126,
			"count":4,
			"type":"VEC2"
		},
		{
			"bufferView":20,
			"componentType":5126,
			"count":4,
			"max":[
				0.4999999701976776,
				0.5,
				0
			],
			"min":[
				-0.4999999701976776,
				-0.5,
				0
			],
			"type":"VEC3"
		},
		{
			"bufferView":21,
			"componentType":5126,
			"count":4,
			"type":"VEC3"
		},
		{
			"bufferView":22,
			"componentType":5126,
			"count":4,
			"type":"VEC2"
		},
		{
			"bufferView":23,
			"componentType":5126,
			"count":4,
			"max":[
				0.4999999701976776,
				0.5,
				0
			],
			"min":[
				-0.4999999701976776,
				-0.5,
				0
			],
			"type":"VEC3"
		},
		{
			"bufferView":24,
			"componentType":5126,
			"count":4,
			"type":"VEC3"
		},
		{
			"bufferView":25,
			"componentType":5126,
			"count":4,
			"type":"VEC2"
		},
		{
			"bufferView":26,
			"componentType":5126,
			"count":16,
			"max":[
				0.3091540038585663,
				1.6261695623397827,
				0
			],
			"min":[
				-0.45308926701545715,
				-0.12379693984985352,
				-0.005000033415853977
			],
			"type":"VEC3"
		},
		{
			"bufferView":27,
			"componentType":5126,
			"count":16,
			"type":"VEC3"
		},
		{
			"bufferView":28,
			"componentType":5126,
			"count":16,
			"type":"VEC2"
		},
		{
			"bufferView":29,
			"componentType":5123,
			"count":24,
			"type":"SCALAR"
		}
	],
	"bufferViews":[
		{
			"buffer":0,
			"byteLength":751896,
			"byteOffset":0,
			"target":34962
		},
		{
			"buffer":0,
			"byteLength":751896,
			"byteOffset":751896,
			"target":34962
		},
		{
			"buffer":0,
			"byteLength":501264,
			"byteOffset":1503792,
			"target":34962
		},
		{
			"buffer":0,
			"byteLength":262674,
			"byteOffset":2005056,
			"target":34963
		},
		{
			"buffer":0,
			"byteLength":48,
			"byteOffset":2267732,
			"target":34962
		},
		{
			"buffer":0,
			"byteLength":48,
			"byteOffset":2267780,
			"target":34962
		},
		{
			"buffer":0,
			"byteLength":32,
			"byteOffset":2267828,
			"target":34962
		},
		{
			"buffer":0,
			"byteLength":12,
			"byteOffset":2267860,
			"target":34963
		},
		{
			"buffer":0,
			"byteLength":3552,
			"byteOffset":2267872,
			"target":34962
		},
		{
			"buffer":0,
			"byteLength":3552,
			"byteOffset":2271424,
			"target":34962
		},
		{
			"buffer":0,
			"byteLength":3528,
			"byteOffset":2274976,
			"target":34963
		},
		{
			"buffer":0,
			"byteLength":48,
			"byteOffset":2278504,
			"target":34962
		},
		{
			"buffer":0,
			"byteLength":48,
			"byteOffset":2278552,
			"target":34962
		},
		{
			"buffer":0,
			"byteLength":32,
			"byteOffset":2278600,
			"target":34962
		},
		{
			"buffer":0,
			"byteLength":48,
			"byteOffset":2278632,
			"target":34962
		},
		{
			"buffer":0,
			"byteLength":48,
			"byteOffset":2278680,
			"target":34962
		},
		{
			"buffer":0,
			"byteLength":32,
			"byteOffset":2278728,
			"target":34962
		},
		{
			"buffer":0,
			"byteLength":48,
			"byteOffset":2278760,
			"target":34962
		},
		{
			"buffer":0,
			"byteLength":48,
			"byteOffset":2278808,
			"target":34962
		},
		{
			"buffer":0,
			"byteLength":32,
			"byteOffset":2278856,
			"target":34962
		},
		{
			"buffer":0,
			"byteLength":48,
			"byteOffset":2278888,
			"target":34962
		},
		{
			"buffer":0,
			"byteLength":48,
			"byteOffset":2278936,
			"target":34962
		},
		{
			"buffer":0,
			"byteLength":32,
			"byteOffset":2278984,
			"target":34962
		},
		{
			"buffer":0,
			"byteLength":48,
			"byteOffset":2279016,
			"target":34962
		},
		{
			"buffer":0,
			"byteLength":48,
			"byteOffset":2279064,
			"target":34962
		},
		{
			"buffer":0,
			"byteLength":32,
			"byteOffset":2279112,
			"target":34962
		},
		{
			"buffer":0,
			"byteLength":192,
			"byteOffset":2279144,
			"target":34962
		},
		{
			"buffer":0,
			"byteLength":192,
			"byteOffset":2279336,
			"target":34962
		},
		{
			"buffer":0,
			"byteLength":128,
			"byteOffset":2279528,
			"target":34962
		},
		{
			"buffer":0,
			"byteLength":48,
			"byteOffset":2279656,
			"target":34963
		}
	],
	"samplers":[
		{
			"magFilter":9729,
			"minFilter":9987
		}
	],
	"buffers":[
		{
			"byteLength":2279704,
			"uri":"TransmissionOrderTest.bin"
		}
	]
}
