{
  "asset": {
    "generator": "Babylon.js v8.54.0",
    "version": "2.0"
  },
  "extensionsUsed": [
    "KHR_materials_transmission",
    "KHR_materials_volume",
    "KHR_materials_volume_scatter"
  ],
  "extensions": {},
  "buffers": [
    {
      "uri": "ScatterAnisotropy_data.bin",
      "byteLength": 1035192
    }
  ],
  "nodes": [
    {
      "name": "__root__",
      "translation": [
        -0.17847131330211496,
        -0.041023173841654624,
        0
      ],
      "children": [
        1,
        2,
        3,
        4
      ]
    },
    {
      "name": "base",
      "scale": [
        0.009999999776482582,
        0.009999999776482716,
        0.009999999776482716
      ],
      "mesh": 0
    },
    {
      "name": "core",
      "scale": [
        0.009999999776482582,
        0.009999999776482716,
        0.009999999776482716
      ],
      "mesh": 1
    },
    {
      "name": "material_surface",
      "scale": [
        0.009999999776482582,
        0.009999999776482716,
        0.009999999776482716
      ],
      "mesh": 2
    },
    {
      "name": "sss_bars",
      "scale": [
        0.009999999776482582,
        0.009999999776482716,
        0.009999999776482716
      ],
      "mesh": 3
    },
    {
      "name": "ShaderBall_1_0",
      "translation": [
        -0.08923565665105748,
        -0.041023173841654624,
        0
      ],
      "children": [
        6,
        7,
        8,
        9
      ]
    },
    {
      "name": "ShaderBall_1_0.base",
      "scale": [
        0.009999999776482582,
        0.009999999776482716,
        0.009999999776482716
      ],
      "mesh": 4
    },
    {
      "name": "ShaderBall_1_0.core",
      "scale": [
        0.009999999776482582,
        0.009999999776482716,
        0.009999999776482716
      ],
      "mesh": 5
    },
    {
      "name": "ShaderBall_1_0.material_surface",
      "scale": [
        0.009999999776482582,
        0.009999999776482716,
        0.009999999776482716
      ],
      "mesh": 6
    },
    {
      "name": "ShaderBall_1_0.sss_bars",
      "scale": [
        0.009999999776482582,
        0.009999999776482716,
        0.009999999776482716
      ],
      "mesh": 7
    },
    {
      "name": "ShaderBall_2_0",
      "translation": [
        0,
        -0.041023173841654624,
        0
      ],
      "children": [
        11,
        12,
        13,
        14
      ]
    },
    {
      "name": "ShaderBall_2_0.base",
      "scale": [
        0.009999999776482582,
        0.009999999776482716,
        0.009999999776482716
      ],
      "mesh": 8
    },
    {
      "name": "ShaderBall_2_0.core",
      "scale": [
        0.009999999776482582,
        0.009999999776482716,
        0.009999999776482716
      ],
      "mesh": 9
    },
    {
      "name": "ShaderBall_2_0.material_surface",
      "scale": [
        0.009999999776482582,
        0.009999999776482716,
        0.009999999776482716
      ],
      "mesh": 10
    },
    {
      "name": "ShaderBall_2_0.sss_bars",
      "scale": [
        0.009999999776482582,
        0.009999999776482716,
        0.009999999776482716
      ],
      "mesh": 11
    },
    {
      "name": "ShaderBall_3_0",
      "translation": [
        0.08923565665105748,
        -0.041023173841654624,
        0
      ],
      "children": [
        16,
        17,
        18,
        19
      ]
    },
    {
      "name": "ShaderBall_3_0.base",
      "scale": [
        0.009999999776482582,
        0.009999999776482716,
        0.009999999776482716
      ],
      "mesh": 12
    },
    {
      "name": "ShaderBall_3_0.core",
      "scale": [
        0.009999999776482582,
        0.009999999776482716,
        0.009999999776482716
      ],
      "mesh": 13
    },
    {
      "name": "ShaderBall_3_0.material_surface",
      "scale": [
        0.009999999776482582,
        0.009999999776482716,
        0.009999999776482716
      ],
      "mesh": 14
    },
    {
      "name": "ShaderBall_3_0.sss_bars",
      "scale": [
        0.009999999776482582,
        0.009999999776482716,
        0.009999999776482716
      ],
      "mesh": 15
    },
    {
      "name": "ShaderBall_4_0",
      "translation": [
        0.17847131330211496,
        -0.041023173841654624,
        0
      ],
      "children": [
        21,
        22,
        23,
        24
      ]
    },
    {
      "name": "ShaderBall_4_0.base",
      "scale": [
        0.009999999776482582,
        0.009999999776482716,
        0.009999999776482716
      ],
      "mesh": 16
    },
    {
      "name": "ShaderBall_4_0.core",
      "scale": [
        0.009999999776482582,
        0.009999999776482716,
        0.009999999776482716
      ],
      "mesh": 17
    },
    {
      "name": "ShaderBall_4_0.material_surface",
      "scale": [
        0.009999999776482582,
        0.009999999776482716,
        0.009999999776482716
      ],
      "mesh": 18
    },
    {
      "name": "ShaderBall_4_0.sss_bars",
      "scale": [
        0.009999999776482582,
        0.009999999776482716,
        0.009999999776482716
      ],
      "mesh": 19
    }
  ],
  "meshes": [
    {
      "primitives": [
        {
          "attributes": {
            "POSITION": 1,
            "NORMAL": 2,
            "TANGENT": 3,
            "TEXCOORD_0": 4
          },
          "material": 0,
          "mode": 4,
          "indices": 0
        }
      ]
    },
    {
      "primitives": [
        {
          "attributes": {
            "POSITION": 6,
            "NORMAL": 7,
            "TANGENT": 8,
            "TEXCOORD_0": 9
          },
          "material": 0,
          "mode": 4,
          "indices": 5
        }
      ]
    },
    {
      "primitives": [
        {
          "attributes": {
            "POSITION": 11,
            "NORMAL": 12,
            "TANGENT": 13,
            "TEXCOORD_0": 14
          },
          "material": 1,
          "mode": 4,
          "indices": 10
        }
      ]
    },
    {
      "primitives": [
        {
          "attributes": {
            "POSITION": 16,
            "NORMAL": 17,
            "TANGENT": 18,
            "TEXCOORD_0": 19
          },
          "material": 2,
          "mode": 4,
          "indices": 15
        }
      ]
    },
    {
      "primitives": [
        {
          "attributes": {
            "POSITION": 1,
            "NORMAL": 2,
            "TANGENT": 3,
            "TEXCOORD_0": 4
          },
          "material": 0,
          "mode": 4,
          "indices": 0
        }
      ]
    },
    {
      "primitives": [
        {
          "attributes": {
            "POSITION": 6,
            "NORMAL": 7,
            "TANGENT": 8,
            "TEXCOORD_0": 9
          },
          "material": 0,
          "mode": 4,
          "indices": 5
        }
      ]
    },
    {
      "primitives": [
        {
          "attributes": {
            "POSITION": 11,
            "NORMAL": 12,
            "TANGENT": 13,
            "TEXCOORD_0": 14
          },
          "material": 3,
          "mode": 4,
          "indices": 10
        }
      ]
    },
    {
      "primitives": [
        {
          "attributes": {
            "POSITION": 16,
            "NORMAL": 17,
            "TANGENT": 18,
            "TEXCOORD_0": 19
          },
          "material": 2,
          "mode": 4,
          "indices": 15
        }
      ]
    },
    {
      "primitives": [
        {
          "attributes": {
            "POSITION": 1,
            "NORMAL": 2,
            "TANGENT": 3,
            "TEXCOORD_0": 4
          },
          "material": 0,
          "mode": 4,
          "indices": 0
        }
      ]
    },
    {
      "primitives": [
        {
          "attributes": {
            "POSITION": 6,
            "NORMAL": 7,
            "TANGENT": 8,
            "TEXCOORD_0": 9
          },
          "material": 0,
          "mode": 4,
          "indices": 5
        }
      ]
    },
    {
      "primitives": [
        {
          "attributes": {
            "POSITION": 11,
            "NORMAL": 12,
            "TANGENT": 13,
            "TEXCOORD_0": 14
          },
          "material": 4,
          "mode": 4,
          "indices": 10
        }
      ]
    },
    {
      "primitives": [
        {
          "attributes": {
            "POSITION": 16,
            "NORMAL": 17,
            "TANGENT": 18,
            "TEXCOORD_0": 19
          },
          "material": 2,
          "mode": 4,
          "indices": 15
        }
      ]
    },
    {
      "primitives": [
        {
          "attributes": {
            "POSITION": 1,
            "NORMAL": 2,
            "TANGENT": 3,
            "TEXCOORD_0": 4
          },
          "material": 0,
          "mode": 4,
          "indices": 0
        }
      ]
    },
    {
      "primitives": [
        {
          "attributes": {
            "POSITION": 6,
            "NORMAL": 7,
            "TANGENT": 8,
            "TEXCOORD_0": 9
          },
          "material": 0,
          "mode": 4,
          "indices": 5
        }
      ]
    },
    {
      "primitives": [
        {
          "attributes": {
            "POSITION": 11,
            "NORMAL": 12,
            "TANGENT": 13,
            "TEXCOORD_0": 14
          },
          "material": 5,
          "mode": 4,
          "indices": 10
        }
      ]
    },
    {
      "primitives": [
        {
          "attributes": {
            "POSITION": 16,
            "NORMAL": 17,
            "TANGENT": 18,
            "TEXCOORD_0": 19
          },
          "material": 2,
          "mode": 4,
          "indices": 15
        }
      ]
    },
    {
      "primitives": [
        {
          "attributes": {
            "POSITION": 1,
            "NORMAL": 2,
            "TANGENT": 3,
            "TEXCOORD_0": 4
          },
          "material": 0,
          "mode": 4,
          "indices": 0
        }
      ]
    },
    {
      "primitives": [
        {
          "attributes": {
            "POSITION": 6,
            "NORMAL": 7,
            "TANGENT": 8,
            "TEXCOORD_0": 9
          },
          "material": 0,
          "mode": 4,
          "indices": 5
        }
      ]
    },
    {
      "primitives": [
        {
          "attributes": {
            "POSITION": 11,
            "NORMAL": 12,
            "TANGENT": 13,
            "TEXCOORD_0": 14
          },
          "material": 6,
          "mode": 4,
          "indices": 10
        }
      ]
    },
    {
      "primitives": [
        {
          "attributes": {
            "POSITION": 16,
            "NORMAL": 17,
            "TANGENT": 18,
            "TEXCOORD_0": 19
          },
          "material": 2,
          "mode": 4,
          "indices": 15
        }
      ]
    }
  ],
  "scenes": [
    {
      "nodes": [
        0,
        5,
        10,
        15,
        20
      ]
    }
  ],
  "scene": 0,
  "bufferViews": [
    {
      "buffer": 0,
      "byteOffset": 0,
      "byteLength": 16440,
      "byteStride": 12
    },
    {
      "buffer": 0,
      "byteOffset": 16440,
      "byteLength": 16440,
      "byteStride": 12
    },
    {
      "buffer": 0,
      "byteOffset": 32880,
      "byteLength": 21920,
      "byteStride": 16
    },
    {
      "buffer": 0,
      "byteOffset": 54800,
      "byteLength": 10960,
      "byteStride": 8
    },
    {
      "buffer": 0,
      "byteOffset": 65760,
      "byteLength": 40116,
      "byteStride": 12
    },
    {
      "buffer": 0,
      "byteOffset": 105876,
      "byteLength": 40116,
      "byteStride": 12
    },
    {
      "buffer": 0,
      "byteOffset": 145992,
      "byteLength": 53488,
      "byteStride": 16
    },
    {
      "buffer": 0,
      "byteOffset": 199480,
      "byteLength": 26744,
      "byteStride": 8
    },
    {
      "buffer": 0,
      "byteOffset": 226224,
      "byteLength": 144828,
      "byteStride": 12
    },
    {
      "buffer": 0,
      "byteOffset": 371052,
      "byteLength": 144828,
      "byteStride": 12
    },
    {
      "buffer": 0,
      "byteOffset": 515880,
      "byteLength": 193104,
      "byteStride": 16
    },
    {
      "buffer": 0,
      "byteOffset": 708984,
      "byteLength": 96552,
      "byteStride": 8
    },
    {
      "buffer": 0,
      "byteOffset": 805536,
      "byteLength": 7920,
      "byteStride": 12
    },
    {
      "buffer": 0,
      "byteOffset": 813456,
      "byteLength": 7920,
      "byteStride": 12
    },
    {
      "buffer": 0,
      "byteOffset": 821376,
      "byteLength": 10560,
      "byteStride": 16
    },
    {
      "buffer": 0,
      "byteOffset": 831936,
      "byteLength": 5280,
      "byteStride": 8
    },
    {
      "buffer": 0,
      "byteOffset": 837216,
      "byteLength": 15552
    },
    {
      "buffer": 0,
      "byteOffset": 852768,
      "byteLength": 36864
    },
    {
      "buffer": 0,
      "byteOffset": 889632,
      "byteLength": 138552
    },
    {
      "buffer": 0,
      "byteOffset": 1028184,
      "byteLength": 7008
    }
  ],
  "accessors": [
    {
      "bufferView": 16,
      "componentType": 5123,
      "count": 7776,
      "type": "SCALAR",
      "byteOffset": 0
    },
    {
      "bufferView": 0,
      "componentType": 5126,
      "count": 1370,
      "type": "VEC3",
      "min": [
        -3.1424999237060547,
        0,
        -3.1424999237060547
      ],
      "max": [
        3.1424999237060547,
        1.0800001621246338,
        3.1424999237060547
      ],
      "normalized": false,
      "byteOffset": 0
    },
    {
      "bufferView": 1,
      "componentType": 5126,
      "count": 1370,
      "type": "VEC3",
      "normalized": false,
      "byteOffset": 0
    },
    {
      "bufferView": 2,
      "componentType": 5126,
      "count": 1370,
      "type": "VEC4",
      "normalized": false,
      "byteOffset": 0
    },
    {
      "bufferView": 3,
      "componentType": 5126,
      "count": 1370,
      "type": "VEC2",
      "normalized": false,
      "byteOffset": 0
    },
    {
      "bufferView": 17,
      "componentType": 5123,
      "count": 18432,
      "type": "SCALAR",
      "byteOffset": 0
    },
    {
      "bufferView": 4,
      "componentType": 5126,
      "count": 3343,
      "type": "VEC3",
      "min": [
        -2.6925480365753174,
        1.7548558712005615,
        -2.692633628845215
      ],
      "max": [
        2.695894718170166,
        7.142886638641357,
        2.6958086490631104
      ],
      "normalized": false,
      "byteOffset": 0
    },
    {
      "bufferView": 5,
      "componentType": 5126,
      "count": 3343,
      "type": "VEC3",
      "normalized": false,
      "byteOffset": 0
    },
    {
      "bufferView": 6,
      "componentType": 5126,
      "count": 3343,
      "type": "VEC4",
      "normalized": false,
      "byteOffset": 0
    },
    {
      "bufferView": 7,
      "componentType": 5126,
      "count": 3343,
      "type": "VEC2",
      "normalized": false,
      "byteOffset": 0
    },
    {
      "bufferView": 18,
      "componentType": 5123,
      "count": 69276,
      "type": "SCALAR",
      "byteOffset": 0
    },
    {
      "bufferView": 8,
      "componentType": 5126,
      "count": 12069,
      "type": "VEC3",
      "min": [
        -4.462121963500977,
        0.38515323400497437,
        -4.462122440338135
      ],
      "max": [
        4.461443901062012,
        8.204633712768555,
        4.4614434242248535
      ],
      "normalized": false,
      "byteOffset": 0
    },
    {
      "bufferView": 9,
      "componentType": 5126,
      "count": 12069,
      "type": "VEC3",
      "normalized": false,
      "byteOffset": 0
    },
    {
      "bufferView": 10,
      "componentType": 5126,
      "count": 12069,
      "type": "VEC4",
      "normalized": false,
      "byteOffset": 0
    },
    {
      "bufferView": 11,
      "componentType": 5126,
      "count": 12069,
      "type": "VEC2",
      "normalized": false,
      "byteOffset": 0
    },
    {
      "bufferView": 19,
      "componentType": 5123,
      "count": 3504,
      "type": "SCALAR",
      "byteOffset": 0
    },
    {
      "bufferView": 12,
      "componentType": 5126,
      "count": 660,
      "type": "VEC3",
      "min": [
        -0.4878491461277008,
        5.0547027587890625,
        -0.5115311145782471
      ],
      "max": [
        3.6077330112457275,
        8.05561637878418,
        3.612475872039795
      ],
      "normalized": false,
      "byteOffset": 0
    },
    {
      "bufferView": 13,
      "componentType": 5126,
      "count": 660,
      "type": "VEC3",
      "normalized": false,
      "byteOffset": 0
    },
    {
      "bufferView": 14,
      "componentType": 5126,
      "count": 660,
      "type": "VEC4",
      "normalized": false,
      "byteOffset": 0
    },
    {
      "bufferView": 15,
      "componentType": 5126,
      "count": 660,
      "type": "VEC2",
      "normalized": false,
      "byteOffset": 0
    }
  ],
  "materials": [
    {
      "name": "core",
      "occlusionTexture": {
        "index": 0,
        "strength": 0.5
      },
      "pbrMetallicRoughness": {
        "baseColorFactor": [
          0.18,
          0.18,
          0.18,
          1
        ],
        "metallicFactor": 0
      }
    },
    {
      "name": "depth0.0250-anisotropy-1.00",
      "pbrMetallicRoughness": {
        "metallicFactor": 0,
        "roughnessFactor": 0.3
      },
      "extensions": {
        "KHR_materials_transmission": {
          "transmissionFactor": 1
        },
        "KHR_materials_volume": {
          "thicknessFactor": 8.9,
          "thicknessTexture": {
            "index": 1
          },
          "attenuationDistance": 0.0003846153846153846,
          "attenuationColor": [
            0.36787944117144233,
            0.36787944117144233,
            0.36787944117144233
          ]
        },
        "KHR_materials_volume_scatter": {
          "multiscatterColorFactor": [
            1,
            0.5245683261684274,
            0.03366068160712931
          ],
          "scatterAnisotropy": -1
        }
      }
    },
    {
      "name": "sss_bars",
      "pbrMetallicRoughness": {
        "baseColorFactor": [
          1,
          1,
          1,
          1
        ],
        "baseColorTexture": {
          "index": 2
        },
        "metallicFactor": 0
      }
    },
    {
      "name": "depth0.0250-anisotropy-0.50",
      "pbrMetallicRoughness": {
        "metallicFactor": 0,
        "roughnessFactor": 0.3
      },
      "extensions": {
        "KHR_materials_transmission": {
          "transmissionFactor": 1
        },
        "KHR_materials_volume": {
          "thicknessFactor": 8.9,
          "thicknessTexture": {
            "index": 1
          },
          "attenuationDistance": 0.0003846153846153846,
          "attenuationColor": [
            0.36787944117144233,
            0.36787944117144233,
            0.36787944117144233
          ]
        },
        "KHR_materials_volume_scatter": {
          "multiscatterColorFactor": [
            1,
            0.5245683261684274,
            0.03366068160712931
          ],
          "scatterAnisotropy": -0.5
        }
      }
    },
    {
      "name": "depth0.0250-anisotropy0.00",
      "pbrMetallicRoughness": {
        "metallicFactor": 0,
        "roughnessFactor": 0.3
      },
      "extensions": {
        "KHR_materials_transmission": {
          "transmissionFactor": 1
        },
        "KHR_materials_volume": {
          "thicknessFactor": 8.9,
          "thicknessTexture": {
            "index": 1
          },
          "attenuationDistance": 0.0003846153846153846,
          "attenuationColor": [
            0.36787944117144233,
            0.36787944117144233,
            0.36787944117144233
          ]
        },
        "KHR_materials_volume_scatter": {
          "multiscatterColorFactor": [
            1,
            0.5245683261684274,
            0.03366068160712931
          ],
          "scatterAnisotropy": 0
        }
      }
    },
    {
      "name": "depth0.0250-anisotropy0.50",
      "pbrMetallicRoughness": {
        "metallicFactor": 0,
        "roughnessFactor": 0.3
      },
      "extensions": {
        "KHR_materials_transmission": {
          "transmissionFactor": 1
        },
        "KHR_materials_volume": {
          "thicknessFactor": 8.9,
          "thicknessTexture": {
            "index": 1
          },
          "attenuationDistance": 0.0003846153846153846,
          "attenuationColor": [
            0.36787944117144233,
            0.36787944117144233,
            0.36787944117144233
          ]
        },
        "KHR_materials_volume_scatter": {
          "multiscatterColorFactor": [
            1,
            0.5245683261684274,
            0.03366068160712931
          ],
          "scatterAnisotropy": 0.5
        }
      }
    },
    {
      "name": "depth0.0250-anisotropy1.00",
      "pbrMetallicRoughness": {
        "metallicFactor": 0,
        "roughnessFactor": 0.3
      },
      "extensions": {
        "KHR_materials_transmission": {
          "transmissionFactor": 1
        },
        "KHR_materials_volume": {
          "thicknessFactor": 8.9,
          "thicknessTexture": {
            "index": 1
          },
          "attenuationDistance": 0.0003846153846153846,
          "attenuationColor": [
            0.36787944117144233,
            0.36787944117144233,
            0.36787944117144233
          ]
        },
        "KHR_materials_volume_scatter": {
          "multiscatterColorFactor": [
            1,
            0.5245683261684274,
            0.03366068160712931
          ],
          "scatterAnisotropy": 1
        }
      }
    }
  ],
  "textures": [
    {
      "source": 0,
      "sampler": 0
    },
    {
      "source": 1,
      "sampler": 1
    },
    {
      "source": 2,
      "sampler": 1
    }
  ],
  "samplers": [
    {
      "magFilter": 9729,
      "minFilter": 9987
    },
    {
      "wrapS": 33071,
      "wrapT": 33071,
      "magFilter": 9729,
      "minFilter": 9987
    }
  ],
  "images": [
    {
      "name": "core (Occlusion)",
      "uri": "ScatterAnisotropy_img0.png"
    },
    {
      "name": "material_surface (Thickness)",
      "uri": "ScatterAnisotropy_img1.png"
    },
    {
      "name": "sss_bars (Base Color)",
      "uri": "ScatterAnisotropy_img2.png"
    }
  ]
}