{
  "asset": {
    "version": "2.0",
    "generator": "DisplayXR model viewer, scripts/make_khronos_conformance_assets.py"
  },
  "extensionsUsed": [
    "KHR_materials_clearcoat",
    "KHR_materials_coat"
  ],
  "scene": 0,
  "scenes": [
    {
      "name": "CoatParameterSweep",
      "nodes": [
        0,
        1,
        2,
        3,
        4,
        5,
        6,
        7,
        8,
        9,
        10,
        11,
        12,
        13,
        14,
        15,
        16,
        17,
        18,
        19,
        20,
        21,
        22,
        23,
        24,
        25,
        26,
        27,
        28,
        29,
        30,
        31,
        32,
        33,
        34,
        35,
        36,
        37,
        38,
        39,
        40,
        41,
        42,
        43,
        44,
        45,
        46,
        47,
        48,
        49,
        50,
        51,
        52,
        53,
        54,
        55
      ]
    }
  ],
  "nodes": [
    {
      "name": "00_mapping_control_0.00",
      "mesh": 0,
      "translation": [
        -3.5,
        3.0,
        0.0
      ]
    },
    {
      "name": "00_mapping_control_0.14",
      "mesh": 1,
      "translation": [
        -2.5,
        3.0,
        0.0
      ]
    },
    {
      "name": "00_mapping_control_0.29",
      "mesh": 2,
      "translation": [
        -1.5,
        3.0,
        0.0
      ]
    },
    {
      "name": "00_mapping_control_0.43",
      "mesh": 3,
      "translation": [
        -0.5,
        3.0,
        0.0
      ]
    },
    {
      "name": "00_mapping_control_0.57",
      "mesh": 4,
      "translation": [
        0.5,
        3.0,
        0.0
      ]
    },
    {
      "name": "00_mapping_control_0.71",
      "mesh": 5,
      "translation": [
        1.5,
        3.0,
        0.0
      ]
    },
    {
      "name": "00_mapping_control_0.86",
      "mesh": 6,
      "translation": [
        2.5,
        3.0,
        0.0
      ]
    },
    {
      "name": "00_mapping_control_1.00",
      "mesh": 7,
      "translation": [
        3.5,
        3.0,
        0.0
      ]
    },
    {
      "name": "01_coat_factor_0.00",
      "mesh": 8,
      "translation": [
        -3.5,
        2.0,
        0.0
      ]
    },
    {
      "name": "01_coat_factor_0.14",
      "mesh": 9,
      "translation": [
        -2.5,
        2.0,
        0.0
      ]
    },
    {
      "name": "01_coat_factor_0.29",
      "mesh": 10,
      "translation": [
        -1.5,
        2.0,
        0.0
      ]
    },
    {
      "name": "01_coat_factor_0.43",
      "mesh": 11,
      "translation": [
        -0.5,
        2.0,
        0.0
      ]
    },
    {
      "name": "01_coat_factor_0.57",
      "mesh": 12,
      "translation": [
        0.5,
        2.0,
        0.0
      ]
    },
    {
      "name": "01_coat_factor_0.71",
      "mesh": 13,
      "translation": [
        1.5,
        2.0,
        0.0
      ]
    },
    {
      "name": "01_coat_factor_0.86",
      "mesh": 14,
      "translation": [
        2.5,
        2.0,
        0.0
      ]
    },
    {
      "name": "01_coat_factor_1.00",
      "mesh": 15,
      "translation": [
        3.5,
        2.0,
        0.0
      ]
    },
    {
      "name": "02_coat_color_0.00",
      "mesh": 16,
      "translation": [
        -3.5,
        1.0,
        0.0
      ]
    },
    {
      "name": "02_coat_color_0.14",
      "mesh": 17,
      "translation": [
        -2.5,
        1.0,
        0.0
      ]
    },
    {
      "name": "02_coat_color_0.29",
      "mesh": 18,
      "translation": [
        -1.5,
        1.0,
        0.0
      ]
    },
    {
      "name": "02_coat_color_0.43",
      "mesh": 19,
      "translation": [
        -0.5,
        1.0,
        0.0
      ]
    },
    {
      "name": "02_coat_color_0.57",
      "mesh": 20,
      "translation": [
        0.5,
        1.0,
        0.0
      ]
    },
    {
      "name": "02_coat_color_0.71",
      "mesh": 21,
      "translation": [
        1.5,
        1.0,
        0.0
      ]
    },
    {
      "name": "02_coat_color_0.86",
      "mesh": 22,
      "translation": [
        2.5,
        1.0,
        0.0
      ]
    },
    {
      "name": "02_coat_color_1.00",
      "mesh": 23,
      "translation": [
        3.5,
        1.0,
        0.0
      ]
    },
    {
      "name": "03_coat_darkening_0.00",
      "mesh": 24,
      "translation": [
        -3.5,
        0.0,
        0.0
      ]
    },
    {
      "name": "03_coat_darkening_0.14",
      "mesh": 25,
      "translation": [
        -2.5,
        0.0,
        0.0
      ]
    },
    {
      "name": "03_coat_darkening_0.29",
      "mesh": 26,
      "translation": [
        -1.5,
        0.0,
        0.0
      ]
    },
    {
      "name": "03_coat_darkening_0.43",
      "mesh": 27,
      "translation": [
        -0.5,
        0.0,
        0.0
      ]
    },
    {
      "name": "03_coat_darkening_0.57",
      "mesh": 28,
      "translation": [
        0.5,
        0.0,
        0.0
      ]
    },
    {
      "name": "03_coat_darkening_0.71",
      "mesh": 29,
      "translation": [
        1.5,
        0.0,
        0.0
      ]
    },
    {
      "name": "03_coat_darkening_0.86",
      "mesh": 30,
      "translation": [
        2.5,
        0.0,
        0.0
      ]
    },
    {
      "name": "03_coat_darkening_1.00",
      "mesh": 31,
      "translation": [
        3.5,
        0.0,
        0.0
      ]
    },
    {
      "name": "04_coat_ior_0.00",
      "mesh": 32,
      "translation": [
        -3.5,
        -1.0,
        0.0
      ]
    },
    {
      "name": "04_coat_ior_0.14",
      "mesh": 33,
      "translation": [
        -2.5,
        -1.0,
        0.0
      ]
    },
    {
      "name": "04_coat_ior_0.29",
      "mesh": 34,
      "translation": [
        -1.5,
        -1.0,
        0.0
      ]
    },
    {
      "name": "04_coat_ior_0.43",
      "mesh": 35,
      "translation": [
        -0.5,
        -1.0,
        0.0
      ]
    },
    {
      "name": "04_coat_ior_0.57",
      "mesh": 36,
      "translation": [
        0.5,
        -1.0,
        0.0
      ]
    },
    {
      "name": "04_coat_ior_0.71",
      "mesh": 37,
      "translation": [
        1.5,
        -1.0,
        0.0
      ]
    },
    {
      "name": "04_coat_ior_0.86",
      "mesh": 38,
      "translation": [
        2.5,
        -1.0,
        0.0
      ]
    },
    {
      "name": "04_coat_ior_1.00",
      "mesh": 39,
      "translation": [
        3.5,
        -1.0,
        0.0
      ]
    },
    {
      "name": "05_coat_aniso_0.00",
      "mesh": 40,
      "translation": [
        -3.5,
        -2.0,
        0.0
      ]
    },
    {
      "name": "05_coat_aniso_0.14",
      "mesh": 41,
      "translation": [
        -2.5,
        -2.0,
        0.0
      ]
    },
    {
      "name": "05_coat_aniso_0.29",
      "mesh": 42,
      "translation": [
        -1.5,
        -2.0,
        0.0
      ]
    },
    {
      "name": "05_coat_aniso_0.43",
      "mesh": 43,
      "translation": [
        -0.5,
        -2.0,
        0.0
      ]
    },
    {
      "name": "05_coat_aniso_0.57",
      "mesh": 44,
      "translation": [
        0.5,
        -2.0,
        0.0
      ]
    },
    {
      "name": "05_coat_aniso_0.71",
      "mesh": 45,
      "translation": [
        1.5,
        -2.0,
        0.0
      ]
    },
    {
      "name": "05_coat_aniso_0.86",
      "mesh": 46,
      "translation": [
        2.5,
        -2.0,
        0.0
      ]
    },
    {
      "name": "05_coat_aniso_1.00",
      "mesh": 47,
      "translation": [
        3.5,
        -2.0,
        0.0
      ]
    },
    {
      "name": "06_coat_normal_0.00",
      "mesh": 48,
      "translation": [
        -3.5,
        -3.0,
        0.0
      ]
    },
    {
      "name": "06_coat_normal_0.14",
      "mesh": 49,
      "translation": [
        -2.5,
        -3.0,
        0.0
      ]
    },
    {
      "name": "06_coat_normal_0.29",
      "mesh": 50,
      "translation": [
        -1.5,
        -3.0,
        0.0
      ]
    },
    {
      "name": "06_coat_normal_0.43",
      "mesh": 51,
      "translation": [
        -0.5,
        -3.0,
        0.0
      ]
    },
    {
      "name": "06_coat_normal_0.57",
      "mesh": 52,
      "translation": [
        0.5,
        -3.0,
        0.0
      ]
    },
    {
      "name": "06_coat_normal_0.71",
      "mesh": 53,
      "translation": [
        1.5,
        -3.0,
        0.0
      ]
    },
    {
      "name": "06_coat_normal_0.86",
      "mesh": 54,
      "translation": [
        2.5,
        -3.0,
        0.0
      ]
    },
    {
      "name": "06_coat_normal_1.00",
      "mesh": 55,
      "translation": [
        3.5,
        -3.0,
        0.0
      ]
    }
  ],
  "meshes": [
    {
      "name": "00_mapping_control_0.00",
      "primitives": [
        {
          "attributes": {
            "POSITION": 0,
            "NORMAL": 1,
            "TEXCOORD_0": 2,
            "TANGENT": 3
          },
          "indices": 4,
          "material": 0
        }
      ]
    },
    {
      "name": "00_mapping_control_0.14",
      "primitives": [
        {
          "attributes": {
            "POSITION": 0,
            "NORMAL": 1,
            "TEXCOORD_0": 2,
            "TANGENT": 3
          },
          "indices": 4,
          "material": 1
        }
      ]
    },
    {
      "name": "00_mapping_control_0.29",
      "primitives": [
        {
          "attributes": {
            "POSITION": 0,
            "NORMAL": 1,
            "TEXCOORD_0": 2,
            "TANGENT": 3
          },
          "indices": 4,
          "material": 2
        }
      ]
    },
    {
      "name": "00_mapping_control_0.43",
      "primitives": [
        {
          "attributes": {
            "POSITION": 0,
            "NORMAL": 1,
            "TEXCOORD_0": 2,
            "TANGENT": 3
          },
          "indices": 4,
          "material": 3
        }
      ]
    },
    {
      "name": "00_mapping_control_0.57",
      "primitives": [
        {
          "attributes": {
            "POSITION": 0,
            "NORMAL": 1,
            "TEXCOORD_0": 2,
            "TANGENT": 3
          },
          "indices": 4,
          "material": 4
        }
      ]
    },
    {
      "name": "00_mapping_control_0.71",
      "primitives": [
        {
          "attributes": {
            "POSITION": 0,
            "NORMAL": 1,
            "TEXCOORD_0": 2,
            "TANGENT": 3
          },
          "indices": 4,
          "material": 5
        }
      ]
    },
    {
      "name": "00_mapping_control_0.86",
      "primitives": [
        {
          "attributes": {
            "POSITION": 0,
            "NORMAL": 1,
            "TEXCOORD_0": 2,
            "TANGENT": 3
          },
          "indices": 4,
          "material": 6
        }
      ]
    },
    {
      "name": "00_mapping_control_1.00",
      "primitives": [
        {
          "attributes": {
            "POSITION": 0,
            "NORMAL": 1,
            "TEXCOORD_0": 2,
            "TANGENT": 3
          },
          "indices": 4,
          "material": 7
        }
      ]
    },
    {
      "name": "01_coat_factor_0.00",
      "primitives": [
        {
          "attributes": {
            "POSITION": 0,
            "NORMAL": 1,
            "TEXCOORD_0": 2,
            "TANGENT": 3
          },
          "indices": 4,
          "material": 8
        }
      ]
    },
    {
      "name": "01_coat_factor_0.14",
      "primitives": [
        {
          "attributes": {
            "POSITION": 0,
            "NORMAL": 1,
            "TEXCOORD_0": 2,
            "TANGENT": 3
          },
          "indices": 4,
          "material": 9
        }
      ]
    },
    {
      "name": "01_coat_factor_0.29",
      "primitives": [
        {
          "attributes": {
            "POSITION": 0,
            "NORMAL": 1,
            "TEXCOORD_0": 2,
            "TANGENT": 3
          },
          "indices": 4,
          "material": 10
        }
      ]
    },
    {
      "name": "01_coat_factor_0.43",
      "primitives": [
        {
          "attributes": {
            "POSITION": 0,
            "NORMAL": 1,
            "TEXCOORD_0": 2,
            "TANGENT": 3
          },
          "indices": 4,
          "material": 11
        }
      ]
    },
    {
      "name": "01_coat_factor_0.57",
      "primitives": [
        {
          "attributes": {
            "POSITION": 0,
            "NORMAL": 1,
            "TEXCOORD_0": 2,
            "TANGENT": 3
          },
          "indices": 4,
          "material": 12
        }
      ]
    },
    {
      "name": "01_coat_factor_0.71",
      "primitives": [
        {
          "attributes": {
            "POSITION": 0,
            "NORMAL": 1,
            "TEXCOORD_0": 2,
            "TANGENT": 3
          },
          "indices": 4,
          "material": 13
        }
      ]
    },
    {
      "name": "01_coat_factor_0.86",
      "primitives": [
        {
          "attributes": {
            "POSITION": 0,
            "NORMAL": 1,
            "TEXCOORD_0": 2,
            "TANGENT": 3
          },
          "indices": 4,
          "material": 14
        }
      ]
    },
    {
      "name": "01_coat_factor_1.00",
      "primitives": [
        {
          "attributes": {
            "POSITION": 0,
            "NORMAL": 1,
            "TEXCOORD_0": 2,
            "TANGENT": 3
          },
          "indices": 4,
          "material": 15
        }
      ]
    },
    {
      "name": "02_coat_color_0.00",
      "primitives": [
        {
          "attributes": {
            "POSITION": 0,
            "NORMAL": 1,
            "TEXCOORD_0": 2,
            "TANGENT": 3
          },
          "indices": 4,
          "material": 16
        }
      ]
    },
    {
      "name": "02_coat_color_0.14",
      "primitives": [
        {
          "attributes": {
            "POSITION": 0,
            "NORMAL": 1,
            "TEXCOORD_0": 2,
            "TANGENT": 3
          },
          "indices": 4,
          "material": 17
        }
      ]
    },
    {
      "name": "02_coat_color_0.29",
      "primitives": [
        {
          "attributes": {
            "POSITION": 0,
            "NORMAL": 1,
            "TEXCOORD_0": 2,
            "TANGENT": 3
          },
          "indices": 4,
          "material": 18
        }
      ]
    },
    {
      "name": "02_coat_color_0.43",
      "primitives": [
        {
          "attributes": {
            "POSITION": 0,
            "NORMAL": 1,
            "TEXCOORD_0": 2,
            "TANGENT": 3
          },
          "indices": 4,
          "material": 19
        }
      ]
    },
    {
      "name": "02_coat_color_0.57",
      "primitives": [
        {
          "attributes": {
            "POSITION": 0,
            "NORMAL": 1,
            "TEXCOORD_0": 2,
            "TANGENT": 3
          },
          "indices": 4,
          "material": 20
        }
      ]
    },
    {
      "name": "02_coat_color_0.71",
      "primitives": [
        {
          "attributes": {
            "POSITION": 0,
            "NORMAL": 1,
            "TEXCOORD_0": 2,
            "TANGENT": 3
          },
          "indices": 4,
          "material": 21
        }
      ]
    },
    {
      "name": "02_coat_color_0.86",
      "primitives": [
        {
          "attributes": {
            "POSITION": 0,
            "NORMAL": 1,
            "TEXCOORD_0": 2,
            "TANGENT": 3
          },
          "indices": 4,
          "material": 22
        }
      ]
    },
    {
      "name": "02_coat_color_1.00",
      "primitives": [
        {
          "attributes": {
            "POSITION": 0,
            "NORMAL": 1,
            "TEXCOORD_0": 2,
            "TANGENT": 3
          },
          "indices": 4,
          "material": 23
        }
      ]
    },
    {
      "name": "03_coat_darkening_0.00",
      "primitives": [
        {
          "attributes": {
            "POSITION": 0,
            "NORMAL": 1,
            "TEXCOORD_0": 2,
            "TANGENT": 3
          },
          "indices": 4,
          "material": 24
        }
      ]
    },
    {
      "name": "03_coat_darkening_0.14",
      "primitives": [
        {
          "attributes": {
            "POSITION": 0,
            "NORMAL": 1,
            "TEXCOORD_0": 2,
            "TANGENT": 3
          },
          "indices": 4,
          "material": 25
        }
      ]
    },
    {
      "name": "03_coat_darkening_0.29",
      "primitives": [
        {
          "attributes": {
            "POSITION": 0,
            "NORMAL": 1,
            "TEXCOORD_0": 2,
            "TANGENT": 3
          },
          "indices": 4,
          "material": 26
        }
      ]
    },
    {
      "name": "03_coat_darkening_0.43",
      "primitives": [
        {
          "attributes": {
            "POSITION": 0,
            "NORMAL": 1,
            "TEXCOORD_0": 2,
            "TANGENT": 3
          },
          "indices": 4,
          "material": 27
        }
      ]
    },
    {
      "name": "03_coat_darkening_0.57",
      "primitives": [
        {
          "attributes": {
            "POSITION": 0,
            "NORMAL": 1,
            "TEXCOORD_0": 2,
            "TANGENT": 3
          },
          "indices": 4,
          "material": 28
        }
      ]
    },
    {
      "name": "03_coat_darkening_0.71",
      "primitives": [
        {
          "attributes": {
            "POSITION": 0,
            "NORMAL": 1,
            "TEXCOORD_0": 2,
            "TANGENT": 3
          },
          "indices": 4,
          "material": 29
        }
      ]
    },
    {
      "name": "03_coat_darkening_0.86",
      "primitives": [
        {
          "attributes": {
            "POSITION": 0,
            "NORMAL": 1,
            "TEXCOORD_0": 2,
            "TANGENT": 3
          },
          "indices": 4,
          "material": 30
        }
      ]
    },
    {
      "name": "03_coat_darkening_1.00",
      "primitives": [
        {
          "attributes": {
            "POSITION": 0,
            "NORMAL": 1,
            "TEXCOORD_0": 2,
            "TANGENT": 3
          },
          "indices": 4,
          "material": 31
        }
      ]
    },
    {
      "name": "04_coat_ior_0.00",
      "primitives": [
        {
          "attributes": {
            "POSITION": 0,
            "NORMAL": 1,
            "TEXCOORD_0": 2,
            "TANGENT": 3
          },
          "indices": 4,
          "material": 32
        }
      ]
    },
    {
      "name": "04_coat_ior_0.14",
      "primitives": [
        {
          "attributes": {
            "POSITION": 0,
            "NORMAL": 1,
            "TEXCOORD_0": 2,
            "TANGENT": 3
          },
          "indices": 4,
          "material": 33
        }
      ]
    },
    {
      "name": "04_coat_ior_0.29",
      "primitives": [
        {
          "attributes": {
            "POSITION": 0,
            "NORMAL": 1,
            "TEXCOORD_0": 2,
            "TANGENT": 3
          },
          "indices": 4,
          "material": 34
        }
      ]
    },
    {
      "name": "04_coat_ior_0.43",
      "primitives": [
        {
          "attributes": {
            "POSITION": 0,
            "NORMAL": 1,
            "TEXCOORD_0": 2,
            "TANGENT": 3
          },
          "indices": 4,
          "material": 35
        }
      ]
    },
    {
      "name": "04_coat_ior_0.57",
      "primitives": [
        {
          "attributes": {
            "POSITION": 0,
            "NORMAL": 1,
            "TEXCOORD_0": 2,
            "TANGENT": 3
          },
          "indices": 4,
          "material": 36
        }
      ]
    },
    {
      "name": "04_coat_ior_0.71",
      "primitives": [
        {
          "attributes": {
            "POSITION": 0,
            "NORMAL": 1,
            "TEXCOORD_0": 2,
            "TANGENT": 3
          },
          "indices": 4,
          "material": 37
        }
      ]
    },
    {
      "name": "04_coat_ior_0.86",
      "primitives": [
        {
          "attributes": {
            "POSITION": 0,
            "NORMAL": 1,
            "TEXCOORD_0": 2,
            "TANGENT": 3
          },
          "indices": 4,
          "material": 38
        }
      ]
    },
    {
      "name": "04_coat_ior_1.00",
      "primitives": [
        {
          "attributes": {
            "POSITION": 0,
            "NORMAL": 1,
            "TEXCOORD_0": 2,
            "TANGENT": 3
          },
          "indices": 4,
          "material": 39
        }
      ]
    },
    {
      "name": "05_coat_aniso_0.00",
      "primitives": [
        {
          "attributes": {
            "POSITION": 0,
            "NORMAL": 1,
            "TEXCOORD_0": 2,
            "TANGENT": 3
          },
          "indices": 4,
          "material": 40
        }
      ]
    },
    {
      "name": "05_coat_aniso_0.14",
      "primitives": [
        {
          "attributes": {
            "POSITION": 0,
            "NORMAL": 1,
            "TEXCOORD_0": 2,
            "TANGENT": 3
          },
          "indices": 4,
          "material": 41
        }
      ]
    },
    {
      "name": "05_coat_aniso_0.29",
      "primitives": [
        {
          "attributes": {
            "POSITION": 0,
            "NORMAL": 1,
            "TEXCOORD_0": 2,
            "TANGENT": 3
          },
          "indices": 4,
          "material": 42
        }
      ]
    },
    {
      "name": "05_coat_aniso_0.43",
      "primitives": [
        {
          "attributes": {
            "POSITION": 0,
            "NORMAL": 1,
            "TEXCOORD_0": 2,
            "TANGENT": 3
          },
          "indices": 4,
          "material": 43
        }
      ]
    },
    {
      "name": "05_coat_aniso_0.57",
      "primitives": [
        {
          "attributes": {
            "POSITION": 0,
            "NORMAL": 1,
            "TEXCOORD_0": 2,
            "TANGENT": 3
          },
          "indices": 4,
          "material": 44
        }
      ]
    },
    {
      "name": "05_coat_aniso_0.71",
      "primitives": [
        {
          "attributes": {
            "POSITION": 0,
            "NORMAL": 1,
            "TEXCOORD_0": 2,
            "TANGENT": 3
          },
          "indices": 4,
          "material": 45
        }
      ]
    },
    {
      "name": "05_coat_aniso_0.86",
      "primitives": [
        {
          "attributes": {
            "POSITION": 0,
            "NORMAL": 1,
            "TEXCOORD_0": 2,
            "TANGENT": 3
          },
          "indices": 4,
          "material": 46
        }
      ]
    },
    {
      "name": "05_coat_aniso_1.00",
      "primitives": [
        {
          "attributes": {
            "POSITION": 0,
            "NORMAL": 1,
            "TEXCOORD_0": 2,
            "TANGENT": 3
          },
          "indices": 4,
          "material": 47
        }
      ]
    },
    {
      "name": "06_coat_normal_0.00",
      "primitives": [
        {
          "attributes": {
            "POSITION": 0,
            "NORMAL": 1,
            "TEXCOORD_0": 2,
            "TANGENT": 3
          },
          "indices": 4,
          "material": 48
        }
      ]
    },
    {
      "name": "06_coat_normal_0.14",
      "primitives": [
        {
          "attributes": {
            "POSITION": 0,
            "NORMAL": 1,
            "TEXCOORD_0": 2,
            "TANGENT": 3
          },
          "indices": 4,
          "material": 49
        }
      ]
    },
    {
      "name": "06_coat_normal_0.29",
      "primitives": [
        {
          "attributes": {
            "POSITION": 0,
            "NORMAL": 1,
            "TEXCOORD_0": 2,
            "TANGENT": 3
          },
          "indices": 4,
          "material": 50
        }
      ]
    },
    {
      "name": "06_coat_normal_0.43",
      "primitives": [
        {
          "attributes": {
            "POSITION": 0,
            "NORMAL": 1,
            "TEXCOORD_0": 2,
            "TANGENT": 3
          },
          "indices": 4,
          "material": 51
        }
      ]
    },
    {
      "name": "06_coat_normal_0.57",
      "primitives": [
        {
          "attributes": {
            "POSITION": 0,
            "NORMAL": 1,
            "TEXCOORD_0": 2,
            "TANGENT": 3
          },
          "indices": 4,
          "material": 52
        }
      ]
    },
    {
      "name": "06_coat_normal_0.71",
      "primitives": [
        {
          "attributes": {
            "POSITION": 0,
            "NORMAL": 1,
            "TEXCOORD_0": 2,
            "TANGENT": 3
          },
          "indices": 4,
          "material": 53
        }
      ]
    },
    {
      "name": "06_coat_normal_0.86",
      "primitives": [
        {
          "attributes": {
            "POSITION": 0,
            "NORMAL": 1,
            "TEXCOORD_0": 2,
            "TANGENT": 3
          },
          "indices": 4,
          "material": 54
        }
      ]
    },
    {
      "name": "06_coat_normal_1.00",
      "primitives": [
        {
          "attributes": {
            "POSITION": 0,
            "NORMAL": 1,
            "TEXCOORD_0": 2,
            "TANGENT": 3
          },
          "indices": 4,
          "material": 55
        }
      ]
    }
  ],
  "materials": [
    {
      "pbrMetallicRoughness": {
        "baseColorFactor": [
          0.78,
          0.78,
          0.8,
          1.0
        ],
        "metallicFactor": 0.0,
        "roughnessFactor": 0.4
      },
      "extensions": {
        "KHR_materials_clearcoat": {
          "clearcoatFactor": 0.0,
          "clearcoatRoughnessFactor": 0.06
        }
      },
      "name": "00_mapping_control_0.00"
    },
    {
      "pbrMetallicRoughness": {
        "baseColorFactor": [
          0.78,
          0.78,
          0.8,
          1.0
        ],
        "metallicFactor": 0.0,
        "roughnessFactor": 0.4
      },
      "extensions": {
        "KHR_materials_coat": {
          "coatFactor": 0.0,
          "coatRoughnessFactor": 0.06,
          "coatDarkeningFactor": 0.0
        }
      },
      "name": "00_mapping_control_0.14"
    },
    {
      "pbrMetallicRoughness": {
        "baseColorFactor": [
          0.78,
          0.78,
          0.8,
          1.0
        ],
        "metallicFactor": 0.0,
        "roughnessFactor": 0.4
      },
      "extensions": {
        "KHR_materials_clearcoat": {
          "clearcoatFactor": 0.3333333333333333,
          "clearcoatRoughnessFactor": 0.06
        }
      },
      "name": "00_mapping_control_0.29"
    },
    {
      "pbrMetallicRoughness": {
        "baseColorFactor": [
          0.78,
          0.78,
          0.8,
          1.0
        ],
        "metallicFactor": 0.0,
        "roughnessFactor": 0.4
      },
      "extensions": {
        "KHR_materials_coat": {
          "coatFactor": 0.3333333333333333,
          "coatRoughnessFactor": 0.06,
          "coatDarkeningFactor": 0.0
        }
      },
      "name": "00_mapping_control_0.43"
    },
    {
      "pbrMetallicRoughness": {
        "baseColorFactor": [
          0.78,
          0.78,
          0.8,
          1.0
        ],
        "metallicFactor": 0.0,
        "roughnessFactor": 0.4
      },
      "extensions": {
        "KHR_materials_clearcoat": {
          "clearcoatFactor": 0.6666666666666666,
          "clearcoatRoughnessFactor": 0.06
        }
      },
      "name": "00_mapping_control_0.57"
    },
    {
      "pbrMetallicRoughness": {
        "baseColorFactor": [
          0.78,
          0.78,
          0.8,
          1.0
        ],
        "metallicFactor": 0.0,
        "roughnessFactor": 0.4
      },
      "extensions": {
        "KHR_materials_coat": {
          "coatFactor": 0.6666666666666666,
          "coatRoughnessFactor": 0.06,
          "coatDarkeningFactor": 0.0
        }
      },
      "name": "00_mapping_control_0.71"
    },
    {
      "pbrMetallicRoughness": {
        "baseColorFactor": [
          0.78,
          0.78,
          0.8,
          1.0
        ],
        "metallicFactor": 0.0,
        "roughnessFactor": 0.4
      },
      "extensions": {
        "KHR_materials_clearcoat": {
          "clearcoatFactor": 1.0,
          "clearcoatRoughnessFactor": 0.06
        }
      },
      "name": "00_mapping_control_0.86"
    },
    {
      "pbrMetallicRoughness": {
        "baseColorFactor": [
          0.78,
          0.78,
          0.8,
          1.0
        ],
        "metallicFactor": 0.0,
        "roughnessFactor": 0.4
      },
      "extensions": {
        "KHR_materials_coat": {
          "coatFactor": 1.0,
          "coatRoughnessFactor": 0.06,
          "coatDarkeningFactor": 0.0
        }
      },
      "name": "00_mapping_control_1.00"
    },
    {
      "pbrMetallicRoughness": {
        "baseColorFactor": [
          0.78,
          0.78,
          0.8,
          1.0
        ],
        "metallicFactor": 0.0,
        "roughnessFactor": 0.4
      },
      "extensions": {
        "KHR_materials_coat": {
          "coatFactor": 0.0,
          "coatRoughnessFactor": 0.06,
          "coatDarkeningFactor": 0.0
        }
      },
      "name": "01_coat_factor_0.00"
    },
    {
      "pbrMetallicRoughness": {
        "baseColorFactor": [
          0.78,
          0.78,
          0.8,
          1.0
        ],
        "metallicFactor": 0.0,
        "roughnessFactor": 0.4
      },
      "extensions": {
        "KHR_materials_coat": {
          "coatFactor": 0.14285714285714285,
          "coatRoughnessFactor": 0.06,
          "coatDarkeningFactor": 0.0
        }
      },
      "name": "01_coat_factor_0.14"
    },
    {
      "pbrMetallicRoughness": {
        "baseColorFactor": [
          0.78,
          0.78,
          0.8,
          1.0
        ],
        "metallicFactor": 0.0,
        "roughnessFactor": 0.4
      },
      "extensions": {
        "KHR_materials_coat": {
          "coatFactor": 0.2857142857142857,
          "coatRoughnessFactor": 0.06,
          "coatDarkeningFactor": 0.0
        }
      },
      "name": "01_coat_factor_0.29"
    },
    {
      "pbrMetallicRoughness": {
        "baseColorFactor": [
          0.78,
          0.78,
          0.8,
          1.0
        ],
        "metallicFactor": 0.0,
        "roughnessFactor": 0.4
      },
      "extensions": {
        "KHR_materials_coat": {
          "coatFactor": 0.42857142857142855,
          "coatRoughnessFactor": 0.06,
          "coatDarkeningFactor": 0.0
        }
      },
      "name": "01_coat_factor_0.43"
    },
    {
      "pbrMetallicRoughness": {
        "baseColorFactor": [
          0.78,
          0.78,
          0.8,
          1.0
        ],
        "metallicFactor": 0.0,
        "roughnessFactor": 0.4
      },
      "extensions": {
        "KHR_materials_coat": {
          "coatFactor": 0.5714285714285714,
          "coatRoughnessFactor": 0.06,
          "coatDarkeningFactor": 0.0
        }
      },
      "name": "01_coat_factor_0.57"
    },
    {
      "pbrMetallicRoughness": {
        "baseColorFactor": [
          0.78,
          0.78,
          0.8,
          1.0
        ],
        "metallicFactor": 0.0,
        "roughnessFactor": 0.4
      },
      "extensions": {
        "KHR_materials_coat": {
          "coatFactor": 0.7142857142857143,
          "coatRoughnessFactor": 0.06,
          "coatDarkeningFactor": 0.0
        }
      },
      "name": "01_coat_factor_0.71"
    },
    {
      "pbrMetallicRoughness": {
        "baseColorFactor": [
          0.78,
          0.78,
          0.8,
          1.0
        ],
        "metallicFactor": 0.0,
        "roughnessFactor": 0.4
      },
      "extensions": {
        "KHR_materials_coat": {
          "coatFactor": 0.8571428571428571,
          "coatRoughnessFactor": 0.06,
          "coatDarkeningFactor": 0.0
        }
      },
      "name": "01_coat_factor_0.86"
    },
    {
      "pbrMetallicRoughness": {
        "baseColorFactor": [
          0.78,
          0.78,
          0.8,
          1.0
        ],
        "metallicFactor": 0.0,
        "roughnessFactor": 0.4
      },
      "extensions": {
        "KHR_materials_coat": {
          "coatFactor": 1.0,
          "coatRoughnessFactor": 0.06,
          "coatDarkeningFactor": 0.0
        }
      },
      "name": "01_coat_factor_1.00"
    },
    {
      "pbrMetallicRoughness": {
        "baseColorFactor": [
          0.78,
          0.78,
          0.8,
          1.0
        ],
        "metallicFactor": 0.0,
        "roughnessFactor": 0.4
      },
      "extensions": {
        "KHR_materials_coat": {
          "coatFactor": 0.5,
          "coatRoughnessFactor": 0.06,
          "coatDarkeningFactor": 0.0,
          "coatColorFactor": [
            1.0,
            1.0,
            1.0
          ]
        }
      },
      "name": "02_coat_color_0.00"
    },
    {
      "pbrMetallicRoughness": {
        "baseColorFactor": [
          0.78,
          0.78,
          0.8,
          1.0
        ],
        "metallicFactor": 0.0,
        "roughnessFactor": 0.4
      },
      "extensions": {
        "KHR_materials_coat": {
          "coatFactor": 0.5,
          "coatRoughnessFactor": 0.06,
          "coatDarkeningFactor": 0.0,
          "coatColorFactor": [
            1.0,
            0.9071428571428571,
            0.8714285714285714
          ]
        }
      },
      "name": "02_coat_color_0.14"
    },
    {
      "pbrMetallicRoughness": {
        "baseColorFactor": [
          0.78,
          0.78,
          0.8,
          1.0
        ],
        "metallicFactor": 0.0,
        "roughnessFactor": 0.4
      },
      "extensions": {
        "KHR_materials_coat": {
          "coatFactor": 0.5,
          "coatRoughnessFactor": 0.06,
          "coatDarkeningFactor": 0.0,
          "coatColorFactor": [
            1.0,
            0.8142857142857143,
            0.7428571428571429
          ]
        }
      },
      "name": "02_coat_color_0.29"
    },
    {
      "pbrMetallicRoughness": {
        "baseColorFactor": [
          0.78,
          0.78,
          0.8,
          1.0
        ],
        "metallicFactor": 0.0,
        "roughnessFactor": 0.4
      },
      "extensions": {
        "KHR_materials_coat": {
          "coatFactor": 0.5,
          "coatRoughnessFactor": 0.06,
          "coatDarkeningFactor": 0.0,
          "coatColorFactor": [
            1.0,
            0.7214285714285714,
            0.6142857142857143
          ]
        }
      },
      "name": "02_coat_color_0.43"
    },
    {
      "pbrMetallicRoughness": {
        "baseColorFactor": [
          0.78,
          0.78,
          0.8,
          1.0
        ],
        "metallicFactor": 0.0,
        "roughnessFactor": 0.4
      },
      "extensions": {
        "KHR_materials_coat": {
          "coatFactor": 0.5,
          "coatRoughnessFactor": 0.06,
          "coatDarkeningFactor": 0.0,
          "coatColorFactor": [
            1.0,
            0.6285714285714286,
            0.48571428571428577
          ]
        }
      },
      "name": "02_coat_color_0.57"
    },
    {
      "pbrMetallicRoughness": {
        "baseColorFactor": [
          0.78,
          0.78,
          0.8,
          1.0
        ],
        "metallicFactor": 0.0,
        "roughnessFactor": 0.4
      },
      "extensions": {
        "KHR_materials_coat": {
          "coatFactor": 0.5,
          "coatRoughnessFactor": 0.06,
          "coatDarkeningFactor": 0.0,
          "coatColorFactor": [
            1.0,
            0.5357142857142857,
            0.3571428571428571
          ]
        }
      },
      "name": "02_coat_color_0.71"
    },
    {
      "pbrMetallicRoughness": {
        "baseColorFactor": [
          0.78,
          0.78,
          0.8,
          1.0
        ],
        "metallicFactor": 0.0,
        "roughnessFactor": 0.4
      },
      "extensions": {
        "KHR_materials_coat": {
          "coatFactor": 0.5,
          "coatRoughnessFactor": 0.06,
          "coatDarkeningFactor": 0.0,
          "coatColorFactor": [
            1.0,
            0.44285714285714284,
            0.22857142857142865
          ]
        }
      },
      "name": "02_coat_color_0.86"
    },
    {
      "pbrMetallicRoughness": {
        "baseColorFactor": [
          0.78,
          0.78,
          0.8,
          1.0
        ],
        "metallicFactor": 0.0,
        "roughnessFactor": 0.4
      },
      "extensions": {
        "KHR_materials_coat": {
          "coatFactor": 0.5,
          "coatRoughnessFactor": 0.06,
          "coatDarkeningFactor": 0.0,
          "coatColorFactor": [
            1.0,
            0.35,
            0.09999999999999998
          ]
        }
      },
      "name": "02_coat_color_1.00"
    },
    {
      "pbrMetallicRoughness": {
        "baseColorFactor": [
          0.78,
          0.78,
          0.8,
          1.0
        ],
        "metallicFactor": 0.0,
        "roughnessFactor": 0.4
      },
      "extensions": {
        "KHR_materials_coat": {
          "coatFactor": 0.5,
          "coatRoughnessFactor": 0.06,
          "coatDarkeningFactor": 0.0
        }
      },
      "name": "03_coat_darkening_0.00"
    },
    {
      "pbrMetallicRoughness": {
        "baseColorFactor": [
          0.78,
          0.78,
          0.8,
          1.0
        ],
        "metallicFactor": 0.0,
        "roughnessFactor": 0.4
      },
      "extensions": {
        "KHR_materials_coat": {
          "coatFactor": 0.5,
          "coatRoughnessFactor": 0.06,
          "coatDarkeningFactor": 0.14285714285714285
        }
      },
      "name": "03_coat_darkening_0.14"
    },
    {
      "pbrMetallicRoughness": {
        "baseColorFactor": [
          0.78,
          0.78,
          0.8,
          1.0
        ],
        "metallicFactor": 0.0,
        "roughnessFactor": 0.4
      },
      "extensions": {
        "KHR_materials_coat": {
          "coatFactor": 0.5,
          "coatRoughnessFactor": 0.06,
          "coatDarkeningFactor": 0.2857142857142857
        }
      },
      "name": "03_coat_darkening_0.29"
    },
    {
      "pbrMetallicRoughness": {
        "baseColorFactor": [
          0.78,
          0.78,
          0.8,
          1.0
        ],
        "metallicFactor": 0.0,
        "roughnessFactor": 0.4
      },
      "extensions": {
        "KHR_materials_coat": {
          "coatFactor": 0.5,
          "coatRoughnessFactor": 0.06,
          "coatDarkeningFactor": 0.42857142857142855
        }
      },
      "name": "03_coat_darkening_0.43"
    },
    {
      "pbrMetallicRoughness": {
        "baseColorFactor": [
          0.78,
          0.78,
          0.8,
          1.0
        ],
        "metallicFactor": 0.0,
        "roughnessFactor": 0.4
      },
      "extensions": {
        "KHR_materials_coat": {
          "coatFactor": 0.5,
          "coatRoughnessFactor": 0.06,
          "coatDarkeningFactor": 0.5714285714285714
        }
      },
      "name": "03_coat_darkening_0.57"
    },
    {
      "pbrMetallicRoughness": {
        "baseColorFactor": [
          0.78,
          0.78,
          0.8,
          1.0
        ],
        "metallicFactor": 0.0,
        "roughnessFactor": 0.4
      },
      "extensions": {
        "KHR_materials_coat": {
          "coatFactor": 0.5,
          "coatRoughnessFactor": 0.06,
          "coatDarkeningFactor": 0.7142857142857143
        }
      },
      "name": "03_coat_darkening_0.71"
    },
    {
      "pbrMetallicRoughness": {
        "baseColorFactor": [
          0.78,
          0.78,
          0.8,
          1.0
        ],
        "metallicFactor": 0.0,
        "roughnessFactor": 0.4
      },
      "extensions": {
        "KHR_materials_coat": {
          "coatFactor": 0.5,
          "coatRoughnessFactor": 0.06,
          "coatDarkeningFactor": 0.8571428571428571
        }
      },
      "name": "03_coat_darkening_0.86"
    },
    {
      "pbrMetallicRoughness": {
        "baseColorFactor": [
          0.78,
          0.78,
          0.8,
          1.0
        ],
        "metallicFactor": 0.0,
        "roughnessFactor": 0.4
      },
      "extensions": {
        "KHR_materials_coat": {
          "coatFactor": 0.5,
          "coatRoughnessFactor": 0.06,
          "coatDarkeningFactor": 1.0
        }
      },
      "name": "03_coat_darkening_1.00"
    },
    {
      "pbrMetallicRoughness": {
        "baseColorFactor": [
          0.78,
          0.78,
          0.8,
          1.0
        ],
        "metallicFactor": 0.0,
        "roughnessFactor": 0.4
      },
      "extensions": {
        "KHR_materials_coat": {
          "coatFactor": 1.0,
          "coatRoughnessFactor": 0.06,
          "coatDarkeningFactor": 0.0,
          "coatIor": 1.0
        }
      },
      "name": "04_coat_ior_0.00"
    },
    {
      "pbrMetallicRoughness": {
        "baseColorFactor": [
          0.78,
          0.78,
          0.8,
          1.0
        ],
        "metallicFactor": 0.0,
        "roughnessFactor": 0.4
      },
      "extensions": {
        "KHR_materials_coat": {
          "coatFactor": 1.0,
          "coatRoughnessFactor": 0.06,
          "coatDarkeningFactor": 0.0,
          "coatIor": 1.1428571428571428
        }
      },
      "name": "04_coat_ior_0.14"
    },
    {
      "pbrMetallicRoughness": {
        "baseColorFactor": [
          0.78,
          0.78,
          0.8,
          1.0
        ],
        "metallicFactor": 0.0,
        "roughnessFactor": 0.4
      },
      "extensions": {
        "KHR_materials_coat": {
          "coatFactor": 1.0,
          "coatRoughnessFactor": 0.06,
          "coatDarkeningFactor": 0.0,
          "coatIor": 1.2857142857142856
        }
      },
      "name": "04_coat_ior_0.29"
    },
    {
      "pbrMetallicRoughness": {
        "baseColorFactor": [
          0.78,
          0.78,
          0.8,
          1.0
        ],
        "metallicFactor": 0.0,
        "roughnessFactor": 0.4
      },
      "extensions": {
        "KHR_materials_coat": {
          "coatFactor": 1.0,
          "coatRoughnessFactor": 0.06,
          "coatDarkeningFactor": 0.0,
          "coatIor": 1.4285714285714286
        }
      },
      "name": "04_coat_ior_0.43"
    },
    {
      "pbrMetallicRoughness": {
        "baseColorFactor": [
          0.78,
          0.78,
          0.8,
          1.0
        ],
        "metallicFactor": 0.0,
        "roughnessFactor": 0.4
      },
      "extensions": {
        "KHR_materials_coat": {
          "coatFactor": 1.0,
          "coatRoughnessFactor": 0.06,
          "coatDarkeningFactor": 0.0,
          "coatIor": 1.5714285714285714
        }
      },
      "name": "04_coat_ior_0.57"
    },
    {
      "pbrMetallicRoughness": {
        "baseColorFactor": [
          0.78,
          0.78,
          0.8,
          1.0
        ],
        "metallicFactor": 0.0,
        "roughnessFactor": 0.4
      },
      "extensions": {
        "KHR_materials_coat": {
          "coatFactor": 1.0,
          "coatRoughnessFactor": 0.06,
          "coatDarkeningFactor": 0.0,
          "coatIor": 1.7142857142857144
        }
      },
      "name": "04_coat_ior_0.71"
    },
    {
      "pbrMetallicRoughness": {
        "baseColorFactor": [
          0.78,
          0.78,
          0.8,
          1.0
        ],
        "metallicFactor": 0.0,
        "roughnessFactor": 0.4
      },
      "extensions": {
        "KHR_materials_coat": {
          "coatFactor": 1.0,
          "coatRoughnessFactor": 0.06,
          "coatDarkeningFactor": 0.0,
          "coatIor": 1.8571428571428572
        }
      },
      "name": "04_coat_ior_0.86"
    },
    {
      "pbrMetallicRoughness": {
        "baseColorFactor": [
          0.78,
          0.78,
          0.8,
          1.0
        ],
        "metallicFactor": 0.0,
        "roughnessFactor": 0.4
      },
      "extensions": {
        "KHR_materials_coat": {
          "coatFactor": 1.0,
          "coatRoughnessFactor": 0.06,
          "coatDarkeningFactor": 0.0,
          "coatIor": 2.0
        }
      },
      "name": "04_coat_ior_1.00"
    },
    {
      "pbrMetallicRoughness": {
        "baseColorFactor": [
          0.78,
          0.78,
          0.8,
          1.0
        ],
        "metallicFactor": 0.0,
        "roughnessFactor": 0.4
      },
      "extensions": {
        "KHR_materials_coat": {
          "coatFactor": 1.0,
          "coatRoughnessFactor": 0.15,
          "coatDarkeningFactor": 0.0,
          "coatAnisotropyStrength": 0.0,
          "coatAnisotropyRotation": 0.0
        }
      },
      "name": "05_coat_aniso_0.00"
    },
    {
      "pbrMetallicRoughness": {
        "baseColorFactor": [
          0.78,
          0.78,
          0.8,
          1.0
        ],
        "metallicFactor": 0.0,
        "roughnessFactor": 0.4
      },
      "extensions": {
        "KHR_materials_coat": {
          "coatFactor": 1.0,
          "coatRoughnessFactor": 0.15,
          "coatDarkeningFactor": 0.0,
          "coatAnisotropyStrength": 0.14285714285714285,
          "coatAnisotropyRotation": 0.0
        }
      },
      "name": "05_coat_aniso_0.14"
    },
    {
      "pbrMetallicRoughness": {
        "baseColorFactor": [
          0.78,
          0.78,
          0.8,
          1.0
        ],
        "metallicFactor": 0.0,
        "roughnessFactor": 0.4
      },
      "extensions": {
        "KHR_materials_coat": {
          "coatFactor": 1.0,
          "coatRoughnessFactor": 0.15,
          "coatDarkeningFactor": 0.0,
          "coatAnisotropyStrength": 0.2857142857142857,
          "coatAnisotropyRotation": 0.0
        }
      },
      "name": "05_coat_aniso_0.29"
    },
    {
      "pbrMetallicRoughness": {
        "baseColorFactor": [
          0.78,
          0.78,
          0.8,
          1.0
        ],
        "metallicFactor": 0.0,
        "roughnessFactor": 0.4
      },
      "extensions": {
        "KHR_materials_coat": {
          "coatFactor": 1.0,
          "coatRoughnessFactor": 0.15,
          "coatDarkeningFactor": 0.0,
          "coatAnisotropyStrength": 0.42857142857142855,
          "coatAnisotropyRotation": 0.0
        }
      },
      "name": "05_coat_aniso_0.43"
    },
    {
      "pbrMetallicRoughness": {
        "baseColorFactor": [
          0.78,
          0.78,
          0.8,
          1.0
        ],
        "metallicFactor": 0.0,
        "roughnessFactor": 0.4
      },
      "extensions": {
        "KHR_materials_coat": {
          "coatFactor": 1.0,
          "coatRoughnessFactor": 0.15,
          "coatDarkeningFactor": 0.0,
          "coatAnisotropyStrength": 0.5714285714285714,
          "coatAnisotropyRotation": 0.0
        }
      },
      "name": "05_coat_aniso_0.57"
    },
    {
      "pbrMetallicRoughness": {
        "baseColorFactor": [
          0.78,
          0.78,
          0.8,
          1.0
        ],
        "metallicFactor": 0.0,
        "roughnessFactor": 0.4
      },
      "extensions": {
        "KHR_materials_coat": {
          "coatFactor": 1.0,
          "coatRoughnessFactor": 0.15,
          "coatDarkeningFactor": 0.0,
          "coatAnisotropyStrength": 0.7142857142857143,
          "coatAnisotropyRotation": 0.0
        }
      },
      "name": "05_coat_aniso_0.71"
    },
    {
      "pbrMetallicRoughness": {
        "baseColorFactor": [
          0.78,
          0.78,
          0.8,
          1.0
        ],
        "metallicFactor": 0.0,
        "roughnessFactor": 0.4
      },
      "extensions": {
        "KHR_materials_coat": {
          "coatFactor": 1.0,
          "coatRoughnessFactor": 0.15,
          "coatDarkeningFactor": 0.0,
          "coatAnisotropyStrength": 0.8571428571428571,
          "coatAnisotropyRotation": 0.0
        }
      },
      "name": "05_coat_aniso_0.86"
    },
    {
      "pbrMetallicRoughness": {
        "baseColorFactor": [
          0.78,
          0.78,
          0.8,
          1.0
        ],
        "metallicFactor": 0.0,
        "roughnessFactor": 0.4
      },
      "extensions": {
        "KHR_materials_coat": {
          "coatFactor": 1.0,
          "coatRoughnessFactor": 0.15,
          "coatDarkeningFactor": 0.0,
          "coatAnisotropyStrength": 1.0,
          "coatAnisotropyRotation": 0.0
        }
      },
      "name": "05_coat_aniso_1.00"
    },
    {
      "pbrMetallicRoughness": {
        "baseColorFactor": [
          0.78,
          0.78,
          0.8,
          1.0
        ],
        "metallicFactor": 0.0,
        "roughnessFactor": 0.4
      },
      "extensions": {
        "KHR_materials_coat": {
          "coatFactor": 0.0,
          "coatRoughnessFactor": 0.1,
          "coatDarkeningFactor": 0.0,
          "coatNormalTexture": {
            "index": 0
          }
        }
      },
      "name": "06_coat_normal_0.00"
    },
    {
      "pbrMetallicRoughness": {
        "baseColorFactor": [
          0.78,
          0.78,
          0.8,
          1.0
        ],
        "metallicFactor": 0.0,
        "roughnessFactor": 0.4
      },
      "extensions": {
        "KHR_materials_coat": {
          "coatFactor": 0.14285714285714285,
          "coatRoughnessFactor": 0.1,
          "coatDarkeningFactor": 0.0,
          "coatNormalTexture": {
            "index": 0
          }
        }
      },
      "name": "06_coat_normal_0.14"
    },
    {
      "pbrMetallicRoughness": {
        "baseColorFactor": [
          0.78,
          0.78,
          0.8,
          1.0
        ],
        "metallicFactor": 0.0,
        "roughnessFactor": 0.4
      },
      "extensions": {
        "KHR_materials_coat": {
          "coatFactor": 0.2857142857142857,
          "coatRoughnessFactor": 0.1,
          "coatDarkeningFactor": 0.0,
          "coatNormalTexture": {
            "index": 0
          }
        }
      },
      "name": "06_coat_normal_0.29"
    },
    {
      "pbrMetallicRoughness": {
        "baseColorFactor": [
          0.78,
          0.78,
          0.8,
          1.0
        ],
        "metallicFactor": 0.0,
        "roughnessFactor": 0.4
      },
      "extensions": {
        "KHR_materials_coat": {
          "coatFactor": 0.42857142857142855,
          "coatRoughnessFactor": 0.1,
          "coatDarkeningFactor": 0.0,
          "coatNormalTexture": {
            "index": 0
          }
        }
      },
      "name": "06_coat_normal_0.43"
    },
    {
      "pbrMetallicRoughness": {
        "baseColorFactor": [
          0.78,
          0.78,
          0.8,
          1.0
        ],
        "metallicFactor": 0.0,
        "roughnessFactor": 0.4
      },
      "extensions": {
        "KHR_materials_coat": {
          "coatFactor": 0.5714285714285714,
          "coatRoughnessFactor": 0.1,
          "coatDarkeningFactor": 0.0,
          "coatNormalTexture": {
            "index": 0
          }
        }
      },
      "name": "06_coat_normal_0.57"
    },
    {
      "pbrMetallicRoughness": {
        "baseColorFactor": [
          0.78,
          0.78,
          0.8,
          1.0
        ],
        "metallicFactor": 0.0,
        "roughnessFactor": 0.4
      },
      "extensions": {
        "KHR_materials_coat": {
          "coatFactor": 0.7142857142857143,
          "coatRoughnessFactor": 0.1,
          "coatDarkeningFactor": 0.0,
          "coatNormalTexture": {
            "index": 0
          }
        }
      },
      "name": "06_coat_normal_0.71"
    },
    {
      "pbrMetallicRoughness": {
        "baseColorFactor": [
          0.78,
          0.78,
          0.8,
          1.0
        ],
        "metallicFactor": 0.0,
        "roughnessFactor": 0.4
      },
      "extensions": {
        "KHR_materials_coat": {
          "coatFactor": 0.8571428571428571,
          "coatRoughnessFactor": 0.1,
          "coatDarkeningFactor": 0.0,
          "coatNormalTexture": {
            "index": 0
          }
        }
      },
      "name": "06_coat_normal_0.86"
    },
    {
      "pbrMetallicRoughness": {
        "baseColorFactor": [
          0.78,
          0.78,
          0.8,
          1.0
        ],
        "metallicFactor": 0.0,
        "roughnessFactor": 0.4
      },
      "extensions": {
        "KHR_materials_coat": {
          "coatFactor": 1.0,
          "coatRoughnessFactor": 0.1,
          "coatDarkeningFactor": 0.0,
          "coatNormalTexture": {
            "index": 0
          }
        }
      },
      "name": "06_coat_normal_1.00"
    }
  ],
  "accessors": [
    {
      "bufferView": 0,
      "componentType": 5126,
      "count": 1617,
      "type": "VEC3",
      "min": [
        -0.45,
        -0.45,
        -0.45
      ],
      "max": [
        0.45,
        0.45,
        0.45
      ]
    },
    {
      "bufferView": 1,
      "componentType": 5126,
      "count": 1617,
      "type": "VEC3"
    },
    {
      "bufferView": 2,
      "componentType": 5126,
      "count": 1617,
      "type": "VEC2"
    },
    {
      "bufferView": 3,
      "componentType": 5126,
      "count": 1617,
      "type": "VEC4"
    },
    {
      "bufferView": 4,
      "componentType": 5123,
      "count": 9216,
      "type": "SCALAR"
    }
  ],
  "bufferViews": [
    {
      "buffer": 0,
      "byteOffset": 0,
      "byteLength": 19404,
      "target": 34962
    },
    {
      "buffer": 0,
      "byteOffset": 19404,
      "byteLength": 19404,
      "target": 34962
    },
    {
      "buffer": 0,
      "byteOffset": 38808,
      "byteLength": 12936,
      "target": 34962
    },
    {
      "buffer": 0,
      "byteOffset": 51744,
      "byteLength": 25872,
      "target": 34962
    },
    {
      "buffer": 0,
      "byteOffset": 77616,
      "byteLength": 18432,
      "target": 34963
    }
  ],
  "buffers": [
    {
      "byteLength": 96048,
      "uri": "CoatParameterSweep.bin"
    }
  ],
  "images": [
    {
      "uri": "CoatParameterSweep_0.png"
    }
  ],
  "samplers": [
    {
      "magFilter": 9729,
      "minFilter": 9729,
      "wrapS": 33071,
      "wrapT": 33071
    }
  ],
  "textures": [
    {
      "source": 0,
      "sampler": 0
    }
  ]
}
