{
  "asset": {
    "version": "2.0",
    "copyright": "© 2023 Darmstadt Graphics Group GmbH, CC BY 4.0 International, model and textures by Eric Chadwick. © 2015, Khronos Group, Khronos logo. © 2017, Khronos Group, glTF logo.",
    "generator": "Created in 3ds Max with V-Ray, exported with Autodesk glTF exporter, hand-edited in Visual Studio Code with glTF Tools extension."
  },
  "accessors": [
    {
      "bufferView": 0,
      "componentType": 5126,
      "count": 6623,
      "max": [
        0.051185980439186096,
        0.055818624794483185,
        0.009127413854002953
      ],
      "min": [
        -0.014784885570406914,
        -0.009701138362288475,
        -0.00009901560406433418
      ],
      "type": "VEC3"
    },
    {
      "bufferView": 0,
      "byteOffset": 12,
      "componentType": 5126,
      "count": 6623,
      "type": "VEC3"
    },
    {
      "bufferView": 0,
      "byteOffset": 24,
      "componentType": 5126,
      "count": 6623,
      "type": "VEC2"
    },
    {
      "bufferView": 1,
      "componentType": 5125,
      "count": 38733,
      "type": "SCALAR"
    },
    {
      "bufferView": 2,
      "componentType": 5126,
      "count": 2853,
      "max": [
        0.03999999910593033,
        0.03999999910593033,
        0.04996875301003456
      ],
      "min": [
        -0.03999999910593033,
        -0.03999999910593033,
        0.0007160003297030926
      ],
      "type": "VEC3"
    },
    {
      "bufferView": 2,
      "byteOffset": 12,
      "componentType": 5126,
      "count": 2853,
      "type": "VEC3"
    },
    {
      "bufferView": 2,
      "byteOffset": 24,
      "componentType": 5126,
      "count": 2853,
      "type": "VEC2"
    },
    {
      "bufferView": 3,
      "componentType": 5125,
      "count": 15936,
      "type": "SCALAR"
    }
  ],
  "bufferViews": [
    {
      "buffer": 0,
      "byteLength": 211936,
      "byteStride": 32,
      "target": 34962,
      "byteOffset": 0
    },
    {
      "buffer": 0,
      "byteLength": 154932,
      "byteOffset": 211936,
      "target": 34963
    },
    {
      "buffer": 0,
      "byteLength": 91296,
      "byteOffset": 366868,
      "byteStride": 32,
      "target": 34962
    },
    {
      "buffer": 0,
      "byteLength": 63744,
      "byteOffset": 458164,
      "target": 34963
    }
  ],
  "buffers": [
    {
      "uri": "glTFPotOfCoals.bin",
      "byteLength": 521908
    }
  ],
  "extensionsUsed": [
    "KHR_materials_clearcoat"
  ],
  "images": [
    {
      "name": "HotCoals_occlusion",
      "uri": "HotCoals_occlusion.jpg"
    },
    {
      "name": "HotCoals_emissive",
      "uri": "HotCoals_emissive.jpg"
    },
    {
      "name": "HotCoals_normal",
      "uri": "HotCoals_normal.jpg"
    },
    {
      "name": "HotCoals_basecolor",
      "uri": "HotCoals_basecolor.jpg"
    },
    {
      "name": "CopperPot_orm",
      "uri": "CopperPot_orm.jpg"
    },
    {
      "name": "CopperPot_basecolor",
      "uri": "CopperPot_basecolor.jpg"
    },
    {
      "name": "CopperPot_clearcoat",
      "uri": "CopperPot_clearcoat.jpg"
    },
    {
      "name": "CopperPot_normal",
      "uri": "CopperPot_normal.png"
    }
  ],
  "materials": [
    {
      "name": "HotCoals",
      "emissiveFactor": [
        1,
        1,
        1
      ],
      "emissiveTexture": {
        "index": 1
      },
      "normalTexture": {
        "index": 2,
        "scale": 2
      },
      "occlusionTexture": {
        "index": 0
      },
      "pbrMetallicRoughness": {
        "baseColorTexture": {
          "index": 3
        },
        "metallicFactor": 0,
        "roughnessFactor": 0.9
      }
    },
    {
      "name": "CopperPot",
      "extensions": {
        "KHR_materials_clearcoat": {
          "clearcoatFactor": 1,
          "clearcoatRoughnessFactor": 0,
          "clearcoatTexture": {
            "index": 6
          }
        }
      },
      "occlusionTexture": {
        "index": 4
      },
      "pbrMetallicRoughness": {
        "baseColorTexture": {
          "index": 5
        },
        "metallicRoughnessTexture": {
          "index": 4
        }
      },
      "normalTexture": {
        "index": 7,
        "scale": 0.5
      }
    }
  ],
  "meshes": [
    {
      "name": "HotCoals",
      "primitives": [
        {
          "attributes": {
            "NORMAL": 1,
            "POSITION": 0,
            "TEXCOORD_0": 2
          },
          "indices": 3,
          "material": 0,
          "mode": 4
        }
      ]
    },
    {
      "name": "CopperPot",
      "primitives": [
        {
          "attributes": {
            "NORMAL": 5,
            "POSITION": 4,
            "TEXCOORD_0": 6
          },
          "indices": 7,
          "material": 1,
          "mode": 4
        }
      ]
    }
  ],
  "nodes": [
    {
      "mesh": 0,
      "name": "HotCoals"
    },
    {
      "children": [
        0
      ],
      "matrix": [
        1,
        0,
        0,
        0,
        0,
        0,
        -1,
        0,
        0,
        1,
        0,
        0,
        -0.01797499693930149,
        0.039255138486623764,
        0.02305874414741993,
        1
      ]
    },
    {
      "mesh": 1,
      "name": "CopperPot"
    },
    {
      "children": [
        2
      ],
      "matrix": [
        1,
        0,
        0,
        0,
        0,
        0,
        -1,
        0,
        0,
        1,
        0,
        0,
        0,
        0,
        0,
        1
      ]
    }
  ],
  "samplers": [
    {
      "magFilter": 9729,
      "minFilter": 9729,
      "wrapS": 10497,
      "wrapT": 10497
    }
  ],
  "scenes": [
    {
      "nodes": [
        1,
        3
      ]
    }
  ],
  "textures": [
    {
      "name": "HotCoals_occlusion",
      "sampler": 0,
      "source": 0
    },
    {
      "name": "HotCoals_emissive",
      "sampler": 0,
      "source": 1
    },
    {
      "name": "HotCoals_normal",
      "sampler": 0,
      "source": 2
    },
    {
      "name": "HotCoals_basecolor",
      "sampler": 0,
      "source": 3
    },
    {
      "name": "CopperPot_orm",
      "sampler": 0,
      "source": 4
    },
    {
      "name": "CopperPot_basecolor",
      "sampler": 0,
      "source": 5
    },
    {
      "name": "CopperPot_clearcoat",
      "sampler": 0,
      "source": 6
    },
    {
      "name": "CopperPot_normal",
      "sampler": 0,
      "source": 7
    }
  ]
}