{
	"asset":{
		"copyright":"CC0: This work has been marked as dedicated to the public domain. Model by Ed Mackey.",
		"generator":"Khronos glTF Blender I/O v4.0.44",
		"version":"2.0"
	},
	"scene":0,
	"scenes":[
		{
			"name":"Scene",
			"nodes":[
				3,
				6,
				9,
				12
			]
		}
	],
	"nodes":[
		{
			"mesh":0,
			"name":"Base_048",
			"translation":[
				0,
				-1.100000023841858,
				0
			]
		},
		{
			"mesh":1,
			"name":"Cube_048"
		},
		{
			"mesh":2,
			"name":"Intentionally Left Blank"
		},
		{
			"children":[
				0,
				1,
				2
			],
			"name":"SampleA_048",
			"translation":[
				-6.900000095367432,
				1,
				0
			]
		},
		{
			"mesh":3,
			"name":"Base_050",
			"translation":[
				0,
				-1.100000023841858,
				0
			]
		},
		{
			"mesh":4,
			"name":"Cube_050"
		},
		{
			"children":[
				4,
				5
			],
			"name":"SampleB_050",
			"translation":[
				-2.299999952316284,
				1,
				0
			]
		},
		{
			"mesh":5,
			"name":"Base_051",
			"translation":[
				0,
				-1.100000023841858,
				0
			]
		},
		{
			"mesh":6,
			"name":"Cube_051"
		},
		{
			"children":[
				7,
				8
			],
			"name":"SampleD_051",
			"translation":[
				6.900000095367432,
				1,
				0
			]
		},
		{
			"mesh":7,
			"name":"Base_100",
			"translation":[
				0,
				-1.100000023841858,
				0
			]
		},
		{
			"mesh":8,
			"name":"Cube_100"
		},
		{
			"children":[
				10,
				11
			],
			"name":"SampleC_100",
			"translation":[
				2.299999952316284,
				1,
				0
			]
		}
	],
	"materials":[
		{
			"doubleSided":true,
			"name":"Grid",
			"pbrMetallicRoughness":{
				"baseColorTexture":{
					"index":0
				},
				"metallicFactor":0,
				"roughnessFactor":0.5
			}
		},
		{
			"name":"LabelMat",
			"pbrMetallicRoughness":{
				"baseColorTexture":{
					"index":1
				},
				"metallicFactor":0,
				"roughnessFactor":0.5
			}
		},
		{
			"alphaCutoff":0.5,
			"alphaMode":"MASK",
			"doubleSided":true,
			"name":"Mat_A048",
			"pbrMetallicRoughness":{
				"metallicFactor":0,
				"roughnessFactor":0.5
			}
		},
		{
			"name":"BlankMessageMat",
			"pbrMetallicRoughness":{
				"baseColorTexture":{
					"index":2
				},
				"metallicFactor":0,
				"roughnessFactor":0.800000011920929
			}
		},
		{
			"alphaCutoff":0.5,
			"alphaMode":"MASK",
			"doubleSided":true,
			"name":"Mat_A050",
			"pbrMetallicRoughness":{
				"metallicFactor":0,
				"roughnessFactor":0.5
			}
		},
		{
			"alphaCutoff":0.5,
			"alphaMode":"MASK",
			"doubleSided":true,
			"name":"Mat_A051",
			"pbrMetallicRoughness":{
				"metallicFactor":0,
				"roughnessFactor":0.5
			}
		},
		{
			"alphaCutoff":1,
			"alphaMode":"MASK",
			"doubleSided":true,
			"name":"Mat_A100",
			"pbrMetallicRoughness":{
				"metallicFactor":0,
				"roughnessFactor":0.5
			}
		}
	],
	"meshes":[
		{
			"name":"BaseMesh_048",
			"primitives":[
				{
					"attributes":{
						"POSITION":0,
						"NORMAL":1,
						"TEXCOORD_0":2
					},
					"indices":3,
					"material":0
				},
				{
					"attributes":{
						"POSITION":4,
						"NORMAL":5,
						"TEXCOORD_0":6
					},
					"indices":7,
					"material":1
				}
			]
		},
		{
			"name":"Cube_048 Mesh",
			"primitives":[
				{
					"attributes":{
						"COLOR_0":8,
						"POSITION":9,
						"NORMAL":10
					},
					"indices":11,
					"material":2
				}
			]
		},
		{
			"name":"Plane",
			"primitives":[
				{
					"attributes":{
						"POSITION":12,
						"NORMAL":13,
						"TEXCOORD_0":14
					},
					"indices":15,
					"material":3
				}
			]
		},
		{
			"name":"BaseMesh_050",
			"primitives":[
				{
					"attributes":{
						"POSITION":16,
						"NORMAL":17,
						"TEXCOORD_0":18
					},
					"indices":3,
					"material":0
				},
				{
					"attributes":{
						"POSITION":19,
						"NORMAL":20,
						"TEXCOORD_0":21
					},
					"indices":15,
					"material":1
				}
			]
		},
		{
			"name":"Cube_050 Mesh",
			"primitives":[
				{
					"attributes":{
						"COLOR_0":22,
						"POSITION":23,
						"NORMAL":24
					},
					"indices":25,
					"material":4
				}
			]
		},
		{
			"name":"BaseMesh_051",
			"primitives":[
				{
					"attributes":{
						"POSITION":26,
						"NORMAL":27,
						"TEXCOORD_0":28
					},
					"indices":3,
					"material":0
				},
				{
					"attributes":{
						"POSITION":29,
						"NORMAL":30,
						"TEXCOORD_0":31
					},
					"indices":15,
					"material":1
				}
			]
		},
		{
			"name":"Cube_051 Mesh",
			"primitives":[
				{
					"attributes":{
						"COLOR_0":32,
						"POSITION":33,
						"NORMAL":34
					},
					"indices":25,
					"material":5
				}
			]
		},
		{
			"name":"BaseMesh_100",
			"primitives":[
				{
					"attributes":{
						"POSITION":35,
						"NORMAL":36,
						"TEXCOORD_0":37
					},
					"indices":3,
					"material":0
				},
				{
					"attributes":{
						"POSITION":38,
						"NORMAL":39,
						"TEXCOORD_0":40
					},
					"indices":7,
					"material":1
				}
			]
		},
		{
			"name":"Cube_100 Mesh",
			"primitives":[
				{
					"attributes":{
						"COLOR_0":41,
						"POSITION":42,
						"NORMAL":43
					},
					"indices":25,
					"material":6
				}
			]
		}
	],
	"textures":[
		{
			"sampler":0,
			"source":0
		},
		{
			"sampler":0,
			"source":1
		},
		{
			"sampler":0,
			"source":2
		}
	],
	"images":[
		{
			"mimeType":"image/png",
			"name":"PlainGrid",
			"uri":"PlainGrid.png"
		},
		{
			"mimeType":"image/png",
			"name":"VertexColorAlphaClipLabels_v2",
			"uri":"VertexColorAlphaClipLabels_v2.png"
		},
		{
			"mimeType":"image/png",
			"name":"IntentionallyLeftBlank",
			"uri":"IntentionallyLeftBlank.png"
		}
	],
	"accessors":[
		{
			"bufferView":0,
			"componentType":5126,
			"count":258,
			"max":[
				2.1600000858306885,
				0,
				2.1600000858306885
			],
			"min":[
				-2.1600000858306885,
				-0.5,
				-2.1600000858306885
			],
			"type":"VEC3"
		},
		{
			"bufferView":1,
			"componentType":5126,
			"count":258,
			"type":"VEC3"
		},
		{
			"bufferView":2,
			"componentType":5126,
			"count":258,
			"type":"VEC2"
		},
		{
			"bufferView":3,
			"componentType":5123,
			"count":768,
			"type":"SCALAR"
		},
		{
			"bufferView":4,
			"componentType":5126,
			"count":4,
			"max":[
				0.7274312973022461,
				0.8223785161972046,
				1.313801884651184
			],
			"min":[
				-0.6921491622924805,
				0.09160935878753662,
				1.313801884651184
			],
			"type":"VEC3"
		},
		{
			"bufferView":5,
			"componentType":5126,
			"count":4,
			"type":"VEC3"
		},
		{
			"bufferView":6,
			"componentType":5126,
			"count":4,
			"type":"VEC2"
		},
		{
			"bufferView":7,
			"componentType":5123,
			"count":6,
			"type":"SCALAR"
		},
		{
			"bufferView":8,
			"componentType":5123,
			"count":72,
			"normalized":true,
			"type":"VEC4"
		},
		{
			"bufferView":9,
			"componentType":5126,
			"count":72,
			"max":[
				1.0558905601501465,
				1.0558892488479614,
				0.38397955894470215
			],
			"min":[
				-1.055889368057251,
				-1.0558907985687256,
				-0.38397955894470215
			],
			"type":"VEC3"
		},
		{
			"bufferView":10,
			"componentType":5126,
			"count":72,
			"type":"VEC3"
		},
		{
			"bufferView":11,
			"componentType":5123,
			"count":132,
			"type":"SCALAR"
		},
		{
			"bufferView":12,
			"componentType":5126,
			"count":4,
			"max":[
				0.9999999403953552,
				1,
				0
			],
			"min":[
				-0.9999999403953552,
				-1,
				0
			],
			"type":"VEC3"
		},
		{
			"bufferView":13,
			"componentType":5126,
			"count":4,
			"type":"VEC3"
		},
		{
			"bufferView":14,
			"componentType":5126,
			"count":4,
			"type":"VEC2"
		},
		{
			"bufferView":15,
			"componentType":5123,
			"count":6,
			"type":"SCALAR"
		},
		{
			"bufferView":16,
			"componentType":5126,
			"count":258,
			"max":[
				2.1600000858306885,
				0,
				2.1600000858306885
			],
			"min":[
				-2.1600000858306885,
				-0.5,
				-2.1600000858306885
			],
			"type":"VEC3"
		},
		{
			"bufferView":17,
			"componentType":5126,
			"count":258,
			"type":"VEC3"
		},
		{
			"bufferView":18,
			"componentType":5126,
			"count":258,
			"type":"VEC2"
		},
		{
			"bufferView":19,
			"componentType":5126,
			"count":4,
			"max":[
				0.7528154850006104,
				0.8223785161972046,
				1.313801884651184
			],
			"min":[
				-0.7114195823669434,
				0.09160935878753662,
				1.313801884651184
			],
			"type":"VEC3"
		},
		{
			"bufferView":20,
			"componentType":5126,
			"count":4,
			"type":"VEC3"
		},
		{
			"bufferView":21,
			"componentType":5126,
			"count":4,
			"type":"VEC2"
		},
		{
			"bufferView":22,
			"componentType":5126,
			"count":24,
			"type":"VEC4"
		},
		{
			"bufferView":23,
			"componentType":5126,
			"count":24,
			"max":[
				1,
				1,
				1
			],
			"min":[
				-1,
				-1,
				-1
			],
			"type":"VEC3"
		},
		{
			"bufferView":24,
			"componentType":5126,
			"count":24,
			"type":"VEC3"
		},
		{
			"bufferView":25,
			"componentType":5123,
			"count":36,
			"type":"SCALAR"
		},
		{
			"bufferView":26,
			"componentType":5126,
			"count":258,
			"max":[
				2.1600000858306885,
				0,
				2.1600000858306885
			],
			"min":[
				-2.1600000858306885,
				-0.5,
				-2.1600000858306885
			],
			"type":"VEC3"
		},
		{
			"bufferView":27,
			"componentType":5126,
			"count":258,
			"type":"VEC3"
		},
		{
			"bufferView":28,
			"componentType":5126,
			"count":258,
			"type":"VEC2"
		},
		{
			"bufferView":29,
			"componentType":5126,
			"count":4,
			"max":[
				0.7592849731445312,
				0.8224790096282959,
				1.3138020038604736
			],
			"min":[
				-0.7049498558044434,
				0.09170973300933838,
				1.3138020038604736
			],
			"type":"VEC3"
		},
		{
			"bufferView":30,
			"componentType":5126,
			"count":4,
			"type":"VEC3"
		},
		{
			"bufferView":31,
			"componentType":5126,
			"count":4,
			"type":"VEC2"
		},
		{
			"bufferView":32,
			"componentType":5123,
			"count":24,
			"normalized":true,
			"type":"VEC4"
		},
		{
			"bufferView":33,
			"componentType":5126,
			"count":24,
			"max":[
				1,
				1,
				1
			],
			"min":[
				-1,
				-1,
				-1
			],
			"type":"VEC3"
		},
		{
			"bufferView":34,
			"componentType":5126,
			"count":24,
			"type":"VEC3"
		},
		{
			"bufferView":35,
			"componentType":5126,
			"count":258,
			"max":[
				2.1600000858306885,
				0,
				2.1600000858306885
			],
			"min":[
				-2.1600000858306885,
				-0.5,
				-2.1600000858306885
			],
			"type":"VEC3"
		},
		{
			"bufferView":36,
			"componentType":5126,
			"count":258,
			"type":"VEC3"
		},
		{
			"bufferView":37,
			"componentType":5126,
			"count":258,
			"type":"VEC2"
		},
		{
			"bufferView":38,
			"componentType":5126,
			"count":4,
			"max":[
				0.7048463821411133,
				0.8224790096282959,
				1.3138020038604736
			],
			"min":[
				-0.7147339582443237,
				0.09170973300933838,
				1.3138020038604736
			],
			"type":"VEC3"
		},
		{
			"bufferView":39,
			"componentType":5126,
			"count":4,
			"type":"VEC3"
		},
		{
			"bufferView":40,
			"componentType":5126,
			"count":4,
			"type":"VEC2"
		},
		{
			"bufferView":41,
			"componentType":5123,
			"count":24,
			"normalized":true,
			"type":"VEC4"
		},
		{
			"bufferView":42,
			"componentType":5126,
			"count":24,
			"max":[
				1,
				1,
				1
			],
			"min":[
				-1,
				-1,
				-1
			],
			"type":"VEC3"
		},
		{
			"bufferView":43,
			"componentType":5126,
			"count":24,
			"type":"VEC3"
		}
	],
	"bufferViews":[
		{
			"buffer":0,
			"byteLength":3096,
			"byteOffset":0,
			"target":34962
		},
		{
			"buffer":0,
			"byteLength":3096,
			"byteOffset":3096,
			"target":34962
		},
		{
			"buffer":0,
			"byteLength":2064,
			"byteOffset":6192,
			"target":34962
		},
		{
			"buffer":0,
			"byteLength":1536,
			"byteOffset":8256,
			"target":34963
		},
		{
			"buffer":0,
			"byteLength":48,
			"byteOffset":9792,
			"target":34962
		},
		{
			"buffer":0,
			"byteLength":48,
			"byteOffset":9840,
			"target":34962
		},
		{
			"buffer":0,
			"byteLength":32,
			"byteOffset":9888,
			"target":34962
		},
		{
			"buffer":0,
			"byteLength":12,
			"byteOffset":9920,
			"target":34963
		},
		{
			"buffer":0,
			"byteLength":576,
			"byteOffset":9932,
			"target":34962
		},
		{
			"buffer":0,
			"byteLength":864,
			"byteOffset":10508,
			"target":34962
		},
		{
			"buffer":0,
			"byteLength":864,
			"byteOffset":11372,
			"target":34962
		},
		{
			"buffer":0,
			"byteLength":264,
			"byteOffset":12236,
			"target":34963
		},
		{
			"buffer":0,
			"byteLength":48,
			"byteOffset":12500,
			"target":34962
		},
		{
			"buffer":0,
			"byteLength":48,
			"byteOffset":12548,
			"target":34962
		},
		{
			"buffer":0,
			"byteLength":32,
			"byteOffset":12596,
			"target":34962
		},
		{
			"buffer":0,
			"byteLength":12,
			"byteOffset":12628,
			"target":34963
		},
		{
			"buffer":0,
			"byteLength":3096,
			"byteOffset":12640,
			"target":34962
		},
		{
			"buffer":0,
			"byteLength":3096,
			"byteOffset":15736,
			"target":34962
		},
		{
			"buffer":0,
			"byteLength":2064,
			"byteOffset":18832,
			"target":34962
		},
		{
			"buffer":0,
			"byteLength":48,
			"byteOffset":20896,
			"target":34962
		},
		{
			"buffer":0,
			"byteLength":48,
			"byteOffset":20944,
			"target":34962
		},
		{
			"buffer":0,
			"byteLength":32,
			"byteOffset":20992,
			"target":34962
		},
		{
			"buffer":0,
			"byteLength":384,
			"byteOffset":21024,
			"target":34962
		},
		{
			"buffer":0,
			"byteLength":288,
			"byteOffset":21408,
			"target":34962
		},
		{
			"buffer":0,
			"byteLength":288,
			"byteOffset":21696,
			"target":34962
		},
		{
			"buffer":0,
			"byteLength":72,
			"byteOffset":21984,
			"target":34963
		},
		{
			"buffer":0,
			"byteLength":3096,
			"byteOffset":22056,
			"target":34962
		},
		{
			"buffer":0,
			"byteLength":3096,
			"byteOffset":25152,
			"target":34962
		},
		{
			"buffer":0,
			"byteLength":2064,
			"byteOffset":28248,
			"target":34962
		},
		{
			"buffer":0,
			"byteLength":48,
			"byteOffset":30312,
			"target":34962
		},
		{
			"buffer":0,
			"byteLength":48,
			"byteOffset":30360,
			"target":34962
		},
		{
			"buffer":0,
			"byteLength":32,
			"byteOffset":30408,
			"target":34962
		},
		{
			"buffer":0,
			"byteLength":192,
			"byteOffset":30440,
			"target":34962
		},
		{
			"buffer":0,
			"byteLength":288,
			"byteOffset":30632,
			"target":34962
		},
		{
			"buffer":0,
			"byteLength":288,
			"byteOffset":30920,
			"target":34962
		},
		{
			"buffer":0,
			"byteLength":3096,
			"byteOffset":31208,
			"target":34962
		},
		{
			"buffer":0,
			"byteLength":3096,
			"byteOffset":34304,
			"target":34962
		},
		{
			"buffer":0,
			"byteLength":2064,
			"byteOffset":37400,
			"target":34962
		},
		{
			"buffer":0,
			"byteLength":48,
			"byteOffset":39464,
			"target":34962
		},
		{
			"buffer":0,
			"byteLength":48,
			"byteOffset":39512,
			"target":34962
		},
		{
			"buffer":0,
			"byteLength":32,
			"byteOffset":39560,
			"target":34962
		},
		{
			"buffer":0,
			"byteLength":192,
			"byteOffset":39592,
			"target":34962
		},
		{
			"buffer":0,
			"byteLength":288,
			"byteOffset":39784,
			"target":34962
		},
		{
			"buffer":0,
			"byteLength":288,
			"byteOffset":40072,
			"target":34962
		}
	],
	"samplers":[
		{
			"magFilter":9729,
			"minFilter":9987
		}
	],
	"buffers":[
		{
			"byteLength":40360,
			"uri":"VertexColorAlphaClipTest.bin"
		}
	]
}
