{
  "asset": {
    "copyright": "CCBY 4.0, geometry and textures: Chris Rydalch; original specification and validation: André Mazzone; original scene, inspiration and consultation: Thomas Anagnostou; glTF conversion: Eric Chadwick",
    "generator": "gltfeditor.com",
    "version": "2.0"
  },
  "buffers": [
    {
      "uri": "USDShaderBallForGltf.bin",
      "byteLength": 797376
    }
  ],
  "bufferViews": [
    {
      "buffer": 0,
      "byteOffset": 0,
      "byteLength": 7920,
      "byteStride": 12,
      "target": 34962
    },
    {
      "buffer": 0,
      "byteOffset": 7920,
      "byteLength": 7920,
      "byteStride": 12,
      "target": 34962
    },
    {
      "buffer": 0,
      "byteOffset": 15840,
      "byteLength": 5280,
      "byteStride": 8,
      "target": 34962
    },
    {
      "buffer": 0,
      "byteOffset": 21120,
      "byteLength": 10560,
      "byteStride": 16,
      "target": 34962
    },
    {
      "buffer": 0,
      "byteOffset": 31680,
      "byteLength": 7008,
      "target": 34963
    },
    {
      "buffer": 0,
      "byteOffset": 38688,
      "byteLength": 9960,
      "byteStride": 12,
      "target": 34962
    },
    {
      "buffer": 0,
      "byteOffset": 48648,
      "byteLength": 9960,
      "byteStride": 12,
      "target": 34962
    },
    {
      "buffer": 0,
      "byteOffset": 58608,
      "byteLength": 6640,
      "byteStride": 8,
      "target": 34962
    },
    {
      "buffer": 0,
      "byteOffset": 65248,
      "byteLength": 13280,
      "byteStride": 16,
      "target": 34962
    },
    {
      "buffer": 0,
      "byteOffset": 78528,
      "byteLength": 9504,
      "target": 34963
    },
    {
      "buffer": 0,
      "byteOffset": 88032,
      "byteLength": 10872,
      "byteStride": 12,
      "target": 34962
    },
    {
      "buffer": 0,
      "byteOffset": 98904,
      "byteLength": 10872,
      "byteStride": 12,
      "target": 34962
    },
    {
      "buffer": 0,
      "byteOffset": 109776,
      "byteLength": 7248,
      "byteStride": 8,
      "target": 34962
    },
    {
      "buffer": 0,
      "byteOffset": 117024,
      "byteLength": 14496,
      "byteStride": 16,
      "target": 34962
    },
    {
      "buffer": 0,
      "byteOffset": 131520,
      "byteLength": 9216,
      "target": 34963
    },
    {
      "buffer": 0,
      "byteOffset": 140736,
      "byteLength": 132516,
      "byteStride": 12,
      "target": 34962
    },
    {
      "buffer": 0,
      "byteOffset": 273252,
      "byteLength": 132516,
      "byteStride": 12,
      "target": 34962
    },
    {
      "buffer": 0,
      "byteOffset": 405768,
      "byteLength": 88344,
      "byteStride": 8,
      "target": 34962
    },
    {
      "buffer": 0,
      "byteOffset": 494112,
      "byteLength": 176688,
      "byteStride": 16,
      "target": 34962
    },
    {
      "buffer": 0,
      "byteOffset": 670800,
      "byteLength": 126576,
      "target": 34963
    }
  ],
  "accessors": [
    {
      "bufferView": 0,
      "byteOffset": 0,
      "componentType": 5126,
      "normalized": false,
      "count": 660,
      "min": [
        -0.9826815724372864,
        -0.9826751947402954,
        -0.9826745986938477
      ],
      "max": [
        0.9824094176292419,
        0.9824073314666748,
        0.9824076294898987
      ],
      "type": "VEC3"
    },
    {
      "bufferView": 1,
      "byteOffset": 0,
      "componentType": 5126,
      "normalized": false,
      "count": 660,
      "min": [
        -0.4878491461277008,
        5.0547027587890625,
        -0.5115311145782471
      ],
      "max": [
        3.6077330112457275,
        8.05561637878418,
        3.612475872039795
      ],
      "type": "VEC3"
    },
    {
      "bufferView": 2,
      "byteOffset": 0,
      "componentType": 5126,
      "normalized": false,
      "count": 660,
      "min": [
        0.8835691809654236,
        0.07396012544631958
      ],
      "max": [
        0.9898067116737366,
        0.6214061975479126
      ],
      "type": "VEC2"
    },
    {
      "bufferView": 3,
      "byteOffset": 0,
      "componentType": 5126,
      "normalized": false,
      "count": 660,
      "min": [
        -1,
        -0.9338201880455017,
        -1,
        -1
      ],
      "max": [
        1,
        0.9468715190887451,
        1,
        -1
      ],
      "type": "VEC4"
    },
    {
      "bufferView": 4,
      "byteOffset": 0,
      "componentType": 5123,
      "normalized": false,
      "count": 3504,
      "min": [
        0
      ],
      "max": [
        659
      ],
      "type": "SCALAR"
    },
    {
      "bufferView": 5,
      "byteOffset": 0,
      "componentType": 5126,
      "normalized": false,
      "count": 830,
      "min": [
        -1,
        -1,
        -1
      ],
      "max": [
        1,
        1,
        1
      ],
      "type": "VEC3"
    },
    {
      "bufferView": 6,
      "byteOffset": 0,
      "componentType": 5126,
      "normalized": false,
      "count": 830,
      "min": [
        -3.1424999237060547,
        0,
        -3.1424999237060547
      ],
      "max": [
        3.1424999237060547,
        1.0800001621246338,
        3.1424999237060547
      ],
      "type": "VEC3"
    },
    {
      "bufferView": 7,
      "byteOffset": 0,
      "componentType": 5126,
      "normalized": false,
      "count": 830,
      "min": [
        0,
        0.13088107109069824
      ],
      "max": [
        0.4788788855075836,
        0.9999997615814209
      ],
      "type": "VEC2"
    },
    {
      "bufferView": 8,
      "byteOffset": 0,
      "componentType": 5126,
      "normalized": false,
      "count": 830,
      "min": [
        -0.9998884797096252,
        -0.9985208511352539,
        -0.9946759343147278,
        -1
      ],
      "max": [
        0.8759127259254456,
        0.9985207915306091,
        0.6983506083488464,
        -1
      ],
      "type": "VEC4"
    },
    {
      "bufferView": 9,
      "byteOffset": 0,
      "componentType": 5123,
      "normalized": false,
      "count": 4752,
      "min": [
        0
      ],
      "max": [
        829
      ],
      "type": "SCALAR"
    },
    {
      "bufferView": 10,
      "byteOffset": 0,
      "componentType": 5126,
      "normalized": false,
      "count": 906,
      "min": [
        -0.999949038028717,
        -0.999998152256012,
        -0.9999485015869141
      ],
      "max": [
        0.999590277671814,
        0.9998118281364441,
        0.9996488690376282
      ],
      "type": "VEC3"
    },
    {
      "bufferView": 11,
      "byteOffset": 0,
      "componentType": 5126,
      "normalized": false,
      "count": 906,
      "min": [
        -2.699840545654297,
        1.7475696802139282,
        -2.6999266147613525
      ],
      "max": [
        2.6997146606445312,
        7.147491455078125,
        2.6996288299560547
      ],
      "type": "VEC3"
    },
    {
      "bufferView": 12,
      "byteOffset": 0,
      "componentType": 5126,
      "normalized": false,
      "count": 906,
      "min": [
        0.3684975802898407,
        0.026162266731262207
      ],
      "max": [
        1,
        1
      ],
      "type": "VEC2"
    },
    {
      "bufferView": 13,
      "byteOffset": 0,
      "componentType": 5126,
      "normalized": false,
      "count": 906,
      "min": [
        -0.9999999403953552,
        -0.7127974629402161,
        -0.9999977350234985,
        -1
      ],
      "max": [
        0.9999991655349731,
        0.7070337533950806,
        0.9999998807907104,
        -1
      ],
      "type": "VEC4"
    },
    {
      "bufferView": 14,
      "byteOffset": 0,
      "componentType": 5123,
      "normalized": false,
      "count": 4608,
      "min": [
        0
      ],
      "max": [
        905
      ],
      "type": "SCALAR"
    },
    {
      "bufferView": 15,
      "byteOffset": 0,
      "componentType": 5126,
      "normalized": false,
      "count": 11043,
      "min": [
        -1,
        -1,
        -1
      ],
      "max": [
        1,
        1,
        1
      ],
      "type": "VEC3"
    },
    {
      "bufferView": 16,
      "byteOffset": 0,
      "componentType": 5126,
      "normalized": false,
      "count": 11043,
      "min": [
        -4.462121963500977,
        0.38515323400497437,
        -4.462122440338135
      ],
      "max": [
        4.461443901062012,
        8.204633712768555,
        4.4614434242248535
      ],
      "type": "VEC3"
    },
    {
      "bufferView": 17,
      "byteOffset": 0,
      "componentType": 5126,
      "normalized": false,
      "count": 11043,
      "min": [
        0,
        0.003414750099182129
      ],
      "max": [
        0.9996399283409119,
        1
      ],
      "type": "VEC2"
    },
    {
      "bufferView": 18,
      "byteOffset": 0,
      "componentType": 5126,
      "normalized": false,
      "count": 11043,
      "min": [
        -1,
        -0.9999897480010986,
        -0.9999986886978149,
        -1
      ],
      "max": [
        1,
        0.9999656677246094,
        1,
        -1
      ],
      "type": "VEC4"
    },
    {
      "bufferView": 19,
      "byteOffset": 0,
      "componentType": 5123,
      "normalized": false,
      "count": 63288,
      "min": [
        0
      ],
      "max": [
        11042
      ],
      "type": "SCALAR"
    }
  ],
  "scene": 0,
  "scenes": [
    {
      "nodes": [
        0,
        1,
        2,
        3
      ],
      "name": "USD-shader-ball-for-glTF05"
    }
  ],
  "nodes": [
    {
      "name": "sss_bars",
      "matrix": [
        0.009999999776482582,
        0,
        0,
        0,
        0,
        0.009999999776482582,
        1.6292067694934076e-9,
        0,
        0,
        -1.6292067694934076e-9,
        0.009999999776482582,
        0,
        0,
        0,
        0,
        1
      ],
      "mesh": 0
    },
    {
      "name": "base",
      "matrix": [
        0.009999999776482582,
        0,
        0,
        0,
        0,
        0.009999999776482582,
        1.6292067694934076e-9,
        0,
        0,
        -1.6292067694934076e-9,
        0.009999999776482582,
        0,
        0,
        0,
        0,
        1
      ],
      "mesh": 1
    },
    {
      "name": "core",
      "matrix": [
        0.009999999776482582,
        0,
        0,
        0,
        0,
        0.009999999776482582,
        1.6292067694934076e-9,
        0,
        0,
        -1.6292067694934076e-9,
        0.009999999776482582,
        0,
        0,
        0,
        0,
        1
      ],
      "mesh": 2
    },
    {
      "name": "material",
      "matrix": [
        0.009999999776482582,
        0,
        0,
        0,
        0,
        0.009999999776482582,
        1.6292067694934076e-9,
        0,
        0,
        -1.6292067694934076e-9,
        0.009999999776482582,
        0,
        0,
        0,
        0,
        1
      ],
      "mesh": 3
    }
  ],
  "meshes": [
    {
      "primitives": [
        {
          "material": 0,
          "mode": 4,
          "attributes": {
            "NORMAL": 0,
            "POSITION": 1,
            "TEXCOORD_0": 2,
            "TANGENT": 3
          },
          "indices": 4
        }
      ]
    },
    {
      "primitives": [
        {
          "material": 0,
          "mode": 4,
          "attributes": {
            "NORMAL": 5,
            "POSITION": 6,
            "TEXCOORD_0": 7,
            "TANGENT": 8
          },
          "indices": 9
        }
      ]
    },
    {
      "primitives": [
        {
          "material": 0,
          "mode": 4,
          "attributes": {
            "NORMAL": 10,
            "POSITION": 11,
            "TEXCOORD_0": 12,
            "TANGENT": 13
          },
          "indices": 14
        }
      ]
    },
    {
      "primitives": [
        {
          "material": 1,
          "mode": 4,
          "attributes": {
            "NORMAL": 15,
            "POSITION": 16,
            "TEXCOORD_0": 17,
            "TANGENT": 18
          },
          "indices": 19
        }
      ]
    }
  ],
  "materials": [
    {
      "name": "core",
      "pbrMetallicRoughness": {
        "baseColorFactor": [
          0.5,
          0.5,
          0.5,
          1
        ],
        "metallicFactor": 0,
        "roughnessFactor": 1
      },
      "normalTexture": {
        "index": 0,
        "scale": 1
      },
      "occlusionTexture": {
        "index": 1,
        "strength": 0.5
      }
    },
    {
      "name": "material",
      "pbrMetallicRoughness": {
        "baseColorFactor": [
          1,
          0,
          0,
          0.5
        ],
        "metallicFactor": 0,
        "roughnessFactor": 0
      },
      "alphaMode": "BLEND",
      "extensions": {
        "KHR_materials_transmission": {
          "transmissionFactor": 0.01
        },
        "KHR_materials_volume": {
          "thicknessTexture": {
            "index": 3
          }
        }
      },
      "normalTexture": {
        "index": 0,
        "scale": 1
      },
      "occlusionTexture": {
        "index": 2,
        "strength": 0.5
      }
    }
  ],
  "textures": [
    {
      "sampler": 0,
      "name": "flat_normal.png",
      "source": 0
    },
    {
      "sampler": 1,
      "name": "core_occlusion.png",
      "source": 1
    },
    {
      "sampler": 2,
      "name": "material_occlusion.png",
      "source": 2
    },
    {
      "sampler": 3,
      "name": "material_thickness.png",
      "source": 3
    }
  ],
  "samplers": [
    {
      "magFilter": 9729,
      "minFilter": 9987,
      "wrapS": 10497,
      "wrapT": 10497
    },
    {
      "magFilter": 9729,
      "minFilter": 9987,
      "wrapS": 33071,
      "wrapT": 33071
    },
    {
      "magFilter": 9729,
      "minFilter": 9987,
      "wrapS": 33071,
      "wrapT": 33071
    },
    {
      "magFilter": 9729,
      "minFilter": 9987,
      "wrapS": 33071,
      "wrapT": 33071
    }
  ],
  "images": [
    {
      "name": "flat_normal.png",
      "uri": "flat_normal.png"
    },
    {
      "name": "core_occlusion.png",
      "uri": "core_occlusion.png"
    },
    {
      "name": "material_occlusion.png",
      "uri": "material_occlusion.png"
    },
    {
      "name": "material_thickness.png",
      "uri": "material_thickness.png"
    }
  ],
  "extensionsUsed": [
    "KHR_materials_transmission",
    "KHR_materials_volume"
  ]
}