{
	"asset":{
		"copyright":"CC0: This work has been marked as dedicated to the public domain. Model and texture by Ed Mackey.",
		"generator":"Khronos glTF Blender I/O v4.2.57 (with hand-edits)",
		"version":"2.0"
	},
	"extensionsUsed":[
		"KHR_lights_punctual"
	],
	"extensions":{
		"KHR_lights_punctual":{
			"lights":[
				{
					"color":[
						1,
						1,
						1
					],
					"intensity":1.0,
					"type":"point",
					"name":"Light White"
				},
				{
					"color":[
						1,
						0,
						0
					],
					"intensity":1.0,
					"type":"point",
					"name":"Light Red"
				},
				{
					"color":[
						0,
						0,
						1
					],
					"intensity":1.0,
					"type":"point",
					"name":"Light Blue"
				},
				{
					"color":[
						0,
						1,
						0
					],
					"intensity":1.0,
					"type":"point",
					"name":"Light Green"
				},
				{
					"color":[
						0.5,
						0.5,
						0.5
					],
					"intensity":1.0,
					"type":"point",
					"name":"Light Gray"
				},
				{
					"color":[
						0,
						0,
						1
					],
					"intensity":1.0,
					"type":"point",
					"name":"Light RGB - B"
				},
				{
					"color":[
						0,
						1,
						0
					],
					"intensity":1.0,
					"type":"point",
					"name":"Light RGB - G"
				},
				{
					"color":[
						1,
						0,
						0
					],
					"intensity":1.0,
					"type":"point",
					"name":"Light RGB - R"
				}
			]
		}
	},
	"scene":0,
	"scenes":[
		{
			"name":"Scene",
			"nodes":[
				2,
				3,
				6,
				9,
				12,
				15,
				20
			]
		}
	],
	"nodes":[
		{
			"mesh":0,
			"name":"Frame"
		},
		{
			"extensions":{
				"KHR_lights_punctual":{
					"light":0
				}
			},
			"name":"Light 4 - White",
			"rotation":[
				-0.7071068286895752,
				0,
				0,
				0.7071068286895752
			],
			"translation":[
				0,
				0,
				0.20000000298023224
			]
		},
		{
			"children":[
				0,
				1
			],
			"mesh":1,
			"name":"Test 4 - White",
			"translation":[
				0,
				-2.5,
				0
			]
		},
		{
			"mesh":2,
			"name":"Labels",
			"translation":[
				0,
				-2,
				0
			]
		},
		{
			"mesh":3,
			"name":"Frame.001"
		},
		{
			"extensions":{
				"KHR_lights_punctual":{
					"light":1
				}
			},
			"name":"Light 1 - Red",
			"rotation":[
				-0.7071068286895752,
				0,
				0,
				0.7071068286895752
			],
			"translation":[
				0,
				0,
				0.20000000298023224
			]
		},
		{
			"children":[
				4,
				5
			],
			"mesh":1,
			"name":"Test 1 - Red",
			"translation":[
				-2.25,
				0,
				0
			]
		},
		{
			"mesh":4,
			"name":"Frame.002"
		},
		{
			"extensions":{
				"KHR_lights_punctual":{
					"light":2
				}
			},
			"name":"Light 3 - Blue",
			"rotation":[
				-0.7071068286895752,
				0,
				0,
				0.7071068286895752
			],
			"translation":[
				0,
				0,
				0.20000000298023224
			]
		},
		{
			"children":[
				7,
				8
			],
			"mesh":1,
			"name":"Test 3 - Blue",
			"translation":[
				2.25,
				0,
				0
			]
		},
		{
			"mesh":5,
			"name":"Frame.003"
		},
		{
			"extensions":{
				"KHR_lights_punctual":{
					"light":3
				}
			},
			"name":"Light 2 - Green",
			"rotation":[
				-0.7071068286895752,
				0,
				0,
				0.7071068286895752
			],
			"translation":[
				0,
				0,
				0.20000000298023224
			]
		},
		{
			"children":[
				10,
				11
			],
			"mesh":1,
			"name":"Test 2 - Green"
		},
		{
			"mesh":6,
			"name":"Frame.004"
		},
		{
			"extensions":{
				"KHR_lights_punctual":{
					"light":4
				}
			},
			"name":"Light 5 - Gray",
			"rotation":[
				-0.7071068286895752,
				0,
				0,
				0.7071068286895752
			],
			"translation":[
				0,
				0,
				0.20000000298023224
			]
		},
		{
			"children":[
				13,
				14
			],
			"mesh":1,
			"name":"Test 5 - Gray",
			"translation":[
				2.25,
				-2.5,
				0
			]
		},
		{
			"mesh":7,
			"name":"Frame.005"
		},
		{
			"extensions":{
				"KHR_lights_punctual":{
					"light":5
				}
			},
			"name":"Light 6 B",
			"rotation":[
				-0.7071068286895752,
				0,
				0,
				0.7071068286895752
			],
			"translation":[
				0,
				0,
				0.20000000298023224
			]
		},
		{
			"extensions":{
				"KHR_lights_punctual":{
					"light":6
				}
			},
			"name":"Light 6 G",
			"rotation":[
				-0.7071068286895752,
				0,
				0,
				0.7071068286895752
			],
			"translation":[
				0,
				0,
				0.20000000298023224
			]
		},
		{
			"extensions":{
				"KHR_lights_punctual":{
					"light":7
				}
			},
			"name":"Light 6 R",
			"rotation":[
				-0.7071068286895752,
				0,
				0,
				0.7071068286895752
			],
			"translation":[
				0,
				0,
				0.20000000298023224
			]
		},
		{
			"children":[
				16,
				17,
				18,
				19
			],
			"mesh":1,
			"name":"Test 6 - RGB",
			"translation":[
				-2.25,
				-2.5,
				0
			]
		}
	],
	"materials":[
		{
			"doubleSided":true,
			"name":"Frame Material",
			"pbrMetallicRoughness":{
				"baseColorFactor":[
					0.09947684407234192,
					0.02381850965321064,
					0.005595927592366934,
					1
				],
				"metallicFactor":0,
				"roughnessFactor":0.5
			}
		},
		{
			"doubleSided":true,
			"name":"Test Surface Material",
			"pbrMetallicRoughness":{
				"baseColorFactor":[
					0.800000011920929,
					0.800000011920929,
					0.800000011920929,
					1
				],
				"metallicFactor":0,
				"roughnessFactor":0.5
			}
		},
		{
			"name":"Label Mat",
			"pbrMetallicRoughness":{
				"baseColorTexture":{
					"index":0
				},
				"metallicFactor":0
			}
		}
	],
	"meshes":[
		{
			"name":"Frame Mesh",
			"primitives":[
				{
					"attributes":{
						"POSITION":0,
						"NORMAL":1
					},
					"indices":2,
					"material":0
				}
			]
		},
		{
			"name":"Test Surface Mesh",
			"primitives":[
				{
					"attributes":{
						"POSITION":3,
						"NORMAL":4
					},
					"indices":5,
					"material":1
				}
			]
		},
		{
			"name":"Label Mesh",
			"primitives":[
				{
					"attributes":{
						"POSITION":6,
						"NORMAL":7,
						"TEXCOORD_0":8
					},
					"indices":9,
					"material":2
				}
			]
		},
		{
			"name":"Frame Mesh",
			"primitives":[
				{
					"attributes":{
						"POSITION":10,
						"NORMAL":11
					},
					"indices":2,
					"material":0
				}
			]
		},
		{
			"name":"Frame Mesh",
			"primitives":[
				{
					"attributes":{
						"POSITION":12,
						"NORMAL":13
					},
					"indices":2,
					"material":0
				}
			]
		},
		{
			"name":"Frame Mesh",
			"primitives":[
				{
					"attributes":{
						"POSITION":14,
						"NORMAL":15
					},
					"indices":2,
					"material":0
				}
			]
		},
		{
			"name":"Frame Mesh",
			"primitives":[
				{
					"attributes":{
						"POSITION":16,
						"NORMAL":17
					},
					"indices":2,
					"material":0
				}
			]
		},
		{
			"name":"Frame Mesh",
			"primitives":[
				{
					"attributes":{
						"POSITION":18,
						"NORMAL":19
					},
					"indices":2,
					"material":0
				}
			]
		}
	],
	"textures":[
		{
			"sampler":0,
			"source":0
		}
	],
	"images":[
		{
			"mimeType":"image/png",
			"name":"LampColorNames",
			"uri":"LampColorNames.png"
		}
	],
	"accessors":[
		{
			"bufferView":0,
			"componentType":5126,
			"count":248,
			"max":[
				1.0508430004119873,
				1.0508430004119873,
				0.04675546661019325
			],
			"min":[
				-1.050843358039856,
				-1.0508430004119873,
				-0.01667710579931736
			],
			"type":"VEC3"
		},
		{
			"bufferView":1,
			"componentType":5126,
			"count":248,
			"type":"VEC3"
		},
		{
			"bufferView":2,
			"componentType":5123,
			"count":768,
			"type":"SCALAR"
		},
		{
			"bufferView":3,
			"componentType":5126,
			"count":24,
			"max":[
				1,
				1,
				0.01000000536441803
			],
			"min":[
				-1,
				-1,
				-0.01000000536441803
			],
			"type":"VEC3"
		},
		{
			"bufferView":4,
			"componentType":5126,
			"count":24,
			"type":"VEC3"
		},
		{
			"bufferView":5,
			"componentType":5123,
			"count":36,
			"type":"SCALAR"
		},
		{
			"bufferView":6,
			"componentType":5126,
			"count":24,
			"max":[
				2.606239080429077,
				0.9107398390769958,
				0
			],
			"min":[
				-3.115797281265259,
				-1.8662872314453125,
				0
			],
			"type":"VEC3"
		},
		{
			"bufferView":7,
			"componentType":5126,
			"count":24,
			"type":"VEC3"
		},
		{
			"bufferView":8,
			"componentType":5126,
			"count":24,
			"type":"VEC2"
		},
		{
			"bufferView":9,
			"componentType":5123,
			"count":36,
			"type":"SCALAR"
		},
		{
			"bufferView":10,
			"componentType":5126,
			"count":248,
			"max":[
				1.0508430004119873,
				1.0508430004119873,
				0.04675546661019325
			],
			"min":[
				-1.050843358039856,
				-1.0508430004119873,
				-0.01667710579931736
			],
			"type":"VEC3"
		},
		{
			"bufferView":11,
			"componentType":5126,
			"count":248,
			"type":"VEC3"
		},
		{
			"bufferView":12,
			"componentType":5126,
			"count":248,
			"max":[
				1.0508430004119873,
				1.0508430004119873,
				0.04675546661019325
			],
			"min":[
				-1.050843358039856,
				-1.0508430004119873,
				-0.01667710579931736
			],
			"type":"VEC3"
		},
		{
			"bufferView":13,
			"componentType":5126,
			"count":248,
			"type":"VEC3"
		},
		{
			"bufferView":14,
			"componentType":5126,
			"count":248,
			"max":[
				1.0508430004119873,
				1.0508430004119873,
				0.04675546661019325
			],
			"min":[
				-1.050843358039856,
				-1.0508430004119873,
				-0.01667710579931736
			],
			"type":"VEC3"
		},
		{
			"bufferView":15,
			"componentType":5126,
			"count":248,
			"type":"VEC3"
		},
		{
			"bufferView":16,
			"componentType":5126,
			"count":248,
			"max":[
				1.0508430004119873,
				1.0508430004119873,
				0.04675546661019325
			],
			"min":[
				-1.050843358039856,
				-1.0508430004119873,
				-0.01667710579931736
			],
			"type":"VEC3"
		},
		{
			"bufferView":17,
			"componentType":5126,
			"count":248,
			"type":"VEC3"
		},
		{
			"bufferView":18,
			"componentType":5126,
			"count":248,
			"max":[
				1.0508430004119873,
				1.0508430004119873,
				0.04675546661019325
			],
			"min":[
				-1.050843358039856,
				-1.0508430004119873,
				-0.01667710579931736
			],
			"type":"VEC3"
		},
		{
			"bufferView":19,
			"componentType":5126,
			"count":248,
			"type":"VEC3"
		}
	],
	"bufferViews":[
		{
			"buffer":0,
			"byteLength":2976,
			"byteOffset":0,
			"target":34962
		},
		{
			"buffer":0,
			"byteLength":2976,
			"byteOffset":2976,
			"target":34962
		},
		{
			"buffer":0,
			"byteLength":1536,
			"byteOffset":5952,
			"target":34963
		},
		{
			"buffer":0,
			"byteLength":288,
			"byteOffset":7488,
			"target":34962
		},
		{
			"buffer":0,
			"byteLength":288,
			"byteOffset":7776,
			"target":34962
		},
		{
			"buffer":0,
			"byteLength":72,
			"byteOffset":8064,
			"target":34963
		},
		{
			"buffer":0,
			"byteLength":288,
			"byteOffset":8136,
			"target":34962
		},
		{
			"buffer":0,
			"byteLength":288,
			"byteOffset":8424,
			"target":34962
		},
		{
			"buffer":0,
			"byteLength":192,
			"byteOffset":8712,
			"target":34962
		},
		{
			"buffer":0,
			"byteLength":72,
			"byteOffset":8904,
			"target":34963
		},
		{
			"buffer":0,
			"byteLength":2976,
			"byteOffset":8976,
			"target":34962
		},
		{
			"buffer":0,
			"byteLength":2976,
			"byteOffset":11952,
			"target":34962
		},
		{
			"buffer":0,
			"byteLength":2976,
			"byteOffset":14928,
			"target":34962
		},
		{
			"buffer":0,
			"byteLength":2976,
			"byteOffset":17904,
			"target":34962
		},
		{
			"buffer":0,
			"byteLength":2976,
			"byteOffset":20880,
			"target":34962
		},
		{
			"buffer":0,
			"byteLength":2976,
			"byteOffset":23856,
			"target":34962
		},
		{
			"buffer":0,
			"byteLength":2976,
			"byteOffset":26832,
			"target":34962
		},
		{
			"buffer":0,
			"byteLength":2976,
			"byteOffset":29808,
			"target":34962
		},
		{
			"buffer":0,
			"byteLength":2976,
			"byteOffset":32784,
			"target":34962
		},
		{
			"buffer":0,
			"byteLength":2976,
			"byteOffset":35760,
			"target":34962
		}
	],
	"samplers":[
		{
			"magFilter":9729,
			"minFilter":9987
		}
	],
	"buffers":[
		{
			"byteLength":38736,
			"uri":"PointLightIntensityTest.bin"
		}
	]
}
