{
  "accessors": [
    {
      "bufferView": 0,
      "componentType": 5123,
      "count": 66828,
      "max": [
        11239
      ],
      "min": [
        0
      ],
      "type": "SCALAR"
    },
    {
      "bufferView": 1,
      "componentType": 5126,
      "count": 11240,
      "max": [
        0.14707215130329132,
        0.19134199619293213,
        0.11650625616312027
      ],
      "min": [
        -0.14794300496578217,
        -0.19188226759433746,
        -0.000916633231099695
      ],
      "type": "VEC3"
    },
    {
      "bufferView": 2,
      "componentType": 5126,
      "count": 11240,
      "max": [
        0.9999796748161316,
        0.9993715882301331,
        1
      ],
      "min": [
        -0.9999915957450867,
        -0.9992972016334534,
        -1
      ],
      "type": "VEC3"
    },
    {
      "bufferView": 3,
      "componentType": 5123,
      "count": 117600,
      "max": [
        28917
      ],
      "min": [
        0
      ],
      "type": "SCALAR"
    },
    {
      "bufferView": 4,
      "componentType": 5126,
      "count": 28918,
      "max": [
        0.13452692329883575,
        0.17959971725940704,
        0.20172017812728882
      ],
      "min": [
        -0.14046065509319305,
        -0.16962416470050812,
        0.006418745964765549
      ],
      "type": "VEC3"
    },
    {
      "bufferView": 5,
      "componentType": 5126,
      "count": 28918,
      "max": [
        0.9990215301513672,
        0.9989702701568604
      ],
      "min": [
        0.0009784846333786845,
        0.0010297289118170738
      ],
      "type": "VEC2"
    },
    {
      "bufferView": 6,
      "componentType": 5126,
      "count": 28918,
      "max": [
        0.9999472498893738,
        0.9998851418495178,
        0.9999755024909973
      ],
      "min": [
        -0.9998433589935303,
        -0.9999350309371948,
        -0.9999182224273682
      ],
      "type": "VEC3"
    },
    {
      "bufferView": 7,
      "componentType": 5123,
      "count": 66828,
      "max": [
        17831
      ],
      "min": [
        0
      ],
      "type": "SCALAR"
    },
    {
      "bufferView": 8,
      "componentType": 5126,
      "count": 17832,
      "max": [
        0.14707215130329132,
        0.19134199619293213,
        0.11650625616312027
      ],
      "min": [
        -0.14794300496578217,
        -0.19188226759433746,
        -0.000916633231099695
      ],
      "type": "VEC3"
    },
    {
      "bufferView": 9,
      "componentType": 5126,
      "count": 17832,
      "max": [
        0.9990000128746033,
        0.9990000128746033
      ],
      "min": [
        0.0010000000474974513,
        0.0028717517852783203
      ],
      "type": "VEC2"
    },
    {
      "bufferView": 10,
      "componentType": 5126,
      "count": 17832,
      "max": [
        0.9999796748161316,
        0.9993715882301331,
        1
      ],
      "min": [
        -0.9999915957450867,
        -0.9992972016334534,
        -1
      ],
      "type": "VEC3"
    },
    {
      "bufferView": 11,
      "componentType": 5123,
      "count": 117600,
      "max": [
        28917
      ],
      "min": [
        0
      ],
      "type": "SCALAR"
    },
    {
      "bufferView": 12,
      "componentType": 5126,
      "count": 28918,
      "max": [
        0.13452692329883575,
        0.17959971725940704,
        0.20172017812728882
      ],
      "min": [
        -0.14046065509319305,
        -0.16962416470050812,
        0.006418745964765549
      ],
      "type": "VEC3"
    },
    {
      "bufferView": 13,
      "componentType": 5126,
      "count": 28918,
      "max": [
        0.9990215301513672,
        0.9989702701568604
      ],
      "min": [
        0.0009784846333786845,
        0.0010297289118170738
      ],
      "type": "VEC2"
    },
    {
      "bufferView": 14,
      "componentType": 5126,
      "count": 28918,
      "max": [
        0.9999472498893738,
        0.9998851418495178,
        0.9999755024909973
      ],
      "min": [
        -0.9998433589935303,
        -0.9999350309371948,
        -0.9999182224273682
      ],
      "type": "VEC3"
    },
    {
      "bufferView": 15,
      "componentType": 5123,
      "count": 2865,
      "max": [
        1604
      ],
      "min": [
        0
      ],
      "type": "SCALAR"
    },
    {
      "bufferView": 16,
      "componentType": 5126,
      "count": 1605,
      "max": [
        104.15754699707031,
        59.53657150268555,
        2
      ],
      "min": [
        -104.15754699707031,
        -59.53657531738281,
        1
      ],
      "type": "VEC3"
    },
    {
      "bufferView": 17,
      "componentType": 5126,
      "count": 1605,
      "max": [
        1,
        1,
        1
      ],
      "min": [
        -1,
        -1,
        0
      ],
      "type": "VEC3"
    },
    {
      "bufferView": 18,
      "componentType": 5123,
      "count": 2865,
      "max": [
        1604
      ],
      "min": [
        0
      ],
      "type": "SCALAR"
    },
    {
      "bufferView": 19,
      "componentType": 5126,
      "count": 1605,
      "max": [
        104.15754699707031,
        59.53657150268555,
        2
      ],
      "min": [
        -104.15754699707031,
        -59.53657531738281,
        1
      ],
      "type": "VEC3"
    },
    {
      "bufferView": 20,
      "componentType": 5126,
      "count": 1605,
      "max": [
        1,
        1,
        1
      ],
      "min": [
        -1,
        -1,
        0
      ],
      "type": "VEC3"
    }
  ],
  "asset": {
    "copyright": "Assets CC0, created by Polyhaven.com. Textures CC0, created by Eric Chadwick",
    "generator": "Created by RapidCompact v6.9.1 | www.rapidcompact.com",
    "version": "2.0"
  },
  "bufferViews": [
    {
      "buffer": 0,
      "byteLength": 133656,
      "byteOffset": 0,
      "target": 34963
    },
    {
      "buffer": 0,
      "byteLength": 134880,
      "byteOffset": 133656,
      "byteStride": 12,
      "target": 34962
    },
    {
      "buffer": 0,
      "byteLength": 134880,
      "byteOffset": 268536,
      "byteStride": 12,
      "target": 34962
    },
    {
      "buffer": 0,
      "byteLength": 235200,
      "byteOffset": 403416,
      "target": 34963
    },
    {
      "buffer": 0,
      "byteLength": 347016,
      "byteOffset": 638616,
      "byteStride": 12,
      "target": 34962
    },
    {
      "buffer": 0,
      "byteLength": 231344,
      "byteOffset": 985632,
      "byteStride": 8,
      "target": 34962
    },
    {
      "buffer": 0,
      "byteLength": 347016,
      "byteOffset": 1216976,
      "byteStride": 12,
      "target": 34962
    },
    {
      "buffer": 0,
      "byteLength": 133656,
      "byteOffset": 1563992,
      "target": 34963
    },
    {
      "buffer": 0,
      "byteLength": 213984,
      "byteOffset": 1697648,
      "byteStride": 12,
      "target": 34962
    },
    {
      "buffer": 0,
      "byteLength": 142656,
      "byteOffset": 1911632,
      "byteStride": 8,
      "target": 34962
    },
    {
      "buffer": 0,
      "byteLength": 213984,
      "byteOffset": 2054288,
      "byteStride": 12,
      "target": 34962
    },
    {
      "buffer": 0,
      "byteLength": 235200,
      "byteOffset": 2268272,
      "target": 34963
    },
    {
      "buffer": 0,
      "byteLength": 347016,
      "byteOffset": 2503472,
      "byteStride": 12,
      "target": 34962
    },
    {
      "buffer": 0,
      "byteLength": 231344,
      "byteOffset": 2850488,
      "byteStride": 8,
      "target": 34962
    },
    {
      "buffer": 0,
      "byteLength": 347016,
      "byteOffset": 3081832,
      "byteStride": 12,
      "target": 34962
    },
    {
      "buffer": 0,
      "byteLength": 5732,
      "byteOffset": 3428848,
      "target": 34963
    },
    {
      "buffer": 0,
      "byteLength": 19260,
      "byteOffset": 3434580,
      "byteStride": 12,
      "target": 34962
    },
    {
      "buffer": 0,
      "byteLength": 19260,
      "byteOffset": 3453840,
      "byteStride": 12,
      "target": 34962
    },
    {
      "buffer": 0,
      "byteLength": 5732,
      "byteOffset": 3473100,
      "target": 34963
    },
    {
      "buffer": 0,
      "byteLength": 19260,
      "byteOffset": 3478832,
      "byteStride": 12,
      "target": 34962
    },
    {
      "buffer": 0,
      "byteLength": 19260,
      "byteOffset": 3498092,
      "byteStride": 12,
      "target": 34962
    }
  ],
  "buffers": [
    {
      "uri": "Compare_AmbientOcclusion.bin",
      "byteLength": 3517352
    }
  ],
  "images": [
    {
      "uri": "Fruit_BaseColor.jpg"
    },
    {
      "uri": "Fruit_ORM.jpg"
    },
    {
      "uri": "Basket_ORM.jpg"
    }
  ],
  "materials": [
    {
      "name": "Basket without Occlusion",
      "pbrMetallicRoughness": {
        "metallicFactor": 0
      }
    },
    {
      "name": "Fruit without Occlusion",
      "pbrMetallicRoughness": {
        "baseColorTexture": {
          "index": 0
        },
        "metallicRoughnessTexture": {
          "index": 1
        }
      }
    },
    {
      "name": "Basket with Occlusion",
      "occlusionTexture": {
        "index": 2
      },
      "pbrMetallicRoughness": {
        "metallicFactor": 0
      }
    },
    {
      "name": "Fruit with Occlusion",
      "occlusionTexture": {
        "index": 1
      },
      "pbrMetallicRoughness": {
        "baseColorTexture": {
          "index": 0
        },
        "metallicRoughnessTexture": {
          "index": 1
        }
      }
    },
    {
      "name": "Logo",
      "pbrMetallicRoughness": {
        "metallicFactor": 0
      }
    }
  ],
  "meshes": [
    {
      "name": "Basket Left",
      "primitives": [
        {
          "attributes": {
            "NORMAL": 2,
            "POSITION": 1
          },
          "indices": 0,
          "material": 0,
          "mode": 4
        }
      ]
    },
    {
      "name": "Fruit Left",
      "primitives": [
        {
          "attributes": {
            "NORMAL": 6,
            "POSITION": 4,
            "TEXCOORD_0": 5
          },
          "indices": 3,
          "material": 1,
          "mode": 4
        }
      ]
    },
    {
      "name": "Basket Right",
      "primitives": [
        {
          "attributes": {
            "NORMAL": 10,
            "POSITION": 8,
            "TEXCOORD_0": 9
          },
          "indices": 7,
          "material": 2,
          "mode": 4
        }
      ]
    },
    {
      "name": "Fruit Right",
      "primitives": [
        {
          "attributes": {
            "NORMAL": 14,
            "POSITION": 12,
            "TEXCOORD_0": 13
          },
          "indices": 11,
          "material": 3,
          "mode": 4
        }
      ]
    },
    {
      "name": "Logo Right",
      "primitives": [
        {
          "attributes": {
            "NORMAL": 17,
            "POSITION": 16
          },
          "indices": 15,
          "material": 4,
          "mode": 4
        }
      ]
    },
    {
      "name": "Logo Left",
      "primitives": [
        {
          "attributes": {
            "NORMAL": 20,
            "POSITION": 19
          },
          "indices": 18,
          "material": 4,
          "mode": 4
        }
      ]
    }
  ],
  "nodes": [
    {
      "mesh": 0,
      "name": "Basket Left",
      "rotation": [
        0.5,
        0,
        0,
        -0.8660253882408142
      ],
      "translation": [
        -0.1599999964237213,
        -0.007346853613853455,
        -0.005586136132478714
      ]
    },
    {
      "mesh": 1,
      "name": "Fruit Left",
      "rotation": [
        0.5,
        0,
        0,
        -0.8660253882408142
      ],
      "translation": [
        -0.1599999964237213,
        -0.007346853613853455,
        -0.0055861324071884155
      ]
    },
    {
      "mesh": 2,
      "name": "Basket Right",
      "rotation": [
        0.5,
        0,
        0,
        -0.8660253882408142
      ],
      "translation": [
        0.1599999964237213,
        -0.007346853613853455,
        -0.005586136132478714
      ]
    },
    {
      "mesh": 3,
      "name": "Fruit Right",
      "rotation": [
        0.5,
        0,
        0,
        -0.8660253882408142
      ],
      "translation": [
        0.1599999964237213,
        -0.007346853613853455,
        -0.0055861324071884155
      ]
    },
    {
      "mesh": 4,
      "name": "Logo Right",
      "rotation": [
        -0.342020183801651,
        0,
        0,
        -0.9396926164627076
      ],
      "scale": [
        0.000696652103215456,
        0.000696652103215456,
        0.000696652103215456
      ],
      "translation": [
        0.157135009765625,
        -0.04681558161973953,
        0.17818716168403623
      ]
    },
    {
      "mesh": 5,
      "name": "Logo Left",
      "rotation": [
        -0.342020183801651,
        0,
        0,
        -0.9396926164627076
      ],
      "scale": [
        0.000696652103215456,
        0.000696652103215456,
        0.000696652103215456
      ],
      "translation": [
        -0.16283413767814636,
        -0.04681558161973953,
        0.17818716168403623
      ]
    }
  ],
  "samplers": [
    {
      "wrapS": 33071,
      "wrapT": 33071
    }
  ],
  "scene": 0,
  "scenes": [
    {
      "nodes": [
        0,
        1,
        2,
        3,
        4,
        5
      ]
    }
  ],
  "textures": [
    {
      "sampler": 0,
      "source": 0
    },
    {
      "sampler": 0,
      "source": 1
    },
    {
      "source": 2
    }
  ]
}