{
  "asset": {
    "generator": "glTF-Transform v3.4.5",
    "version": "2.0"
  },
  "accessors": [
    {
      "type": "VEC3",
      "componentType": 5126,
      "count": 24,
      "max": [
        1,
        1,
        1
      ],
      "min": [
        -1,
        -1,
        -1
      ],
      "bufferView": 0,
      "byteOffset": 0
    },
    {
      "type": "VEC3",
      "componentType": 5126,
      "count": 24,
      "bufferView": 0,
      "byteOffset": 12
    },
    {
      "type": "VEC3",
      "componentType": 5126,
      "count": 24,
      "max": [
        1,
        1,
        1
      ],
      "min": [
        -1,
        -1,
        -1
      ],
      "bufferView": 1,
      "byteOffset": 0
    },
    {
      "type": "VEC3",
      "componentType": 5126,
      "count": 24,
      "bufferView": 1,
      "byteOffset": 12
    },
    {
      "type": "VEC3",
      "componentType": 5126,
      "count": 4,
      "max": [
        1,
        0,
        1
      ],
      "min": [
        -1,
        0,
        -1
      ],
      "bufferView": 2,
      "byteOffset": 0
    },
    {
      "type": "VEC3",
      "componentType": 5126,
      "count": 4,
      "bufferView": 2,
      "byteOffset": 12
    },
    {
      "type": "VEC2",
      "componentType": 5126,
      "count": 4,
      "bufferView": 2,
      "byteOffset": 24
    },
    {
      "type": "SCALAR",
      "componentType": 5121,
      "count": 36,
      "bufferView": 3,
      "byteOffset": 0
    },
    {
      "type": "SCALAR",
      "componentType": 5121,
      "count": 6,
      "bufferView": 3,
      "byteOffset": 36
    },
    {
      "type": "SCALAR",
      "componentType": 5126,
      "count": 5,
      "max": [
        1.6666666269302368
      ],
      "min": [
        0.0416666679084301
      ],
      "bufferView": 4,
      "byteOffset": 0
    },
    {
      "type": "VEC3",
      "componentType": 5126,
      "count": 5,
      "bufferView": 4,
      "byteOffset": 20
    },
    {
      "type": "VEC3",
      "componentType": 5126,
      "count": 15,
      "bufferView": 4,
      "byteOffset": 80
    },
    {
      "type": "SCALAR",
      "componentType": 5126,
      "count": 5,
      "max": [
        1.7083333730697632
      ],
      "min": [
        0
      ],
      "bufferView": 4,
      "byteOffset": 260
    },
    {
      "type": "VEC4",
      "componentType": 5126,
      "count": 5,
      "bufferView": 4,
      "byteOffset": 280
    },
    {
      "type": "VEC4",
      "componentType": 5126,
      "count": 15,
      "bufferView": 4,
      "byteOffset": 360
    },
    {
      "type": "SCALAR",
      "componentType": 5126,
      "count": 5,
      "max": [
        1.7083333730697632
      ],
      "min": [
        0
      ],
      "bufferView": 4,
      "byteOffset": 600
    },
    {
      "type": "VEC3",
      "componentType": 5126,
      "count": 5,
      "bufferView": 4,
      "byteOffset": 620
    },
    {
      "type": "SCALAR",
      "componentType": 5126,
      "count": 5,
      "max": [
        1.6666666269302368
      ],
      "min": [
        0
      ],
      "bufferView": 4,
      "byteOffset": 680
    },
    {
      "type": "VEC3",
      "componentType": 5126,
      "count": 15,
      "bufferView": 4,
      "byteOffset": 700
    },
    {
      "type": "VEC3",
      "componentType": 5126,
      "count": 5,
      "bufferView": 4,
      "byteOffset": 880
    }
  ],
  "bufferViews": [
    {
      "buffer": 0,
      "byteOffset": 0,
      "byteLength": 576,
      "byteStride": 24,
      "target": 34962
    },
    {
      "buffer": 0,
      "byteOffset": 576,
      "byteLength": 576,
      "byteStride": 24,
      "target": 34962
    },
    {
      "buffer": 0,
      "byteOffset": 1152,
      "byteLength": 128,
      "byteStride": 32,
      "target": 34962
    },
    {
      "buffer": 0,
      "byteOffset": 1280,
      "byteLength": 44,
      "target": 34963
    },
    {
      "buffer": 0,
      "byteOffset": 1324,
      "byteLength": 940
    }
  ],
  "samplers": [
    {
      "wrapS": 10497,
      "wrapT": 10497
    }
  ],
  "textures": [
    {
      "source": 0,
      "sampler": 0
    }
  ],
  "images": [
    {
      "name": "l.jpg",
      "mimeType": "image/jpeg",
      "uri": "l.jpg"
    }
  ],
  "buffers": [
    {
      "uri": "interpolation.bin",
      "byteLength": 2264
    }
  ],
  "materials": [
    {
      "name": "Material",
      "pbrMetallicRoughness": {
        "baseColorFactor": [
          0.800000011920929,
          0.800000011920929,
          0.800000011920929,
          1
        ],
        "roughnessFactor": 0.5,
        "metallicFactor": 0
      }
    },
    {
      "name": "Material.009",
      "pbrMetallicRoughness": {
        "roughnessFactor": 0.5,
        "metallicFactor": 0,
        "baseColorTexture": {
          "index": 0
        }
      }
    }
  ],
  "meshes": [
    {
      "name": "Cube",
      "primitives": [
        {
          "attributes": {
            "NORMAL": 1,
            "POSITION": 0
          },
          "mode": 4,
          "material": 0,
          "indices": 7
        }
      ]
    },
    {
      "name": "Cube.003",
      "primitives": [
        {
          "attributes": {
            "NORMAL": 3,
            "POSITION": 2
          },
          "mode": 4,
          "material": 0,
          "indices": 7
        }
      ]
    },
    {
      "name": "Plane.001",
      "primitives": [
        {
          "attributes": {
            "NORMAL": 5,
            "POSITION": 4,
            "TEXCOORD_0": 6
          },
          "mode": 4,
          "material": 1,
          "indices": 8
        }
      ]
    }
  ],
  "nodes": [
    {
      "name": "Cube",
      "mesh": 0
    },
    {
      "name": "Cube.001",
      "translation": [
        -3.2963297367095947,
        0,
        0.00006461143493652344
      ],
      "mesh": 0
    },
    {
      "name": "Cube.002",
      "translation": [
        3.3401193618774414,
        0,
        0.008944988250732422
      ],
      "mesh": 0
    },
    {
      "name": "Cube.003",
      "translation": [
        0,
        3.356412410736084,
        0
      ],
      "mesh": 1
    },
    {
      "name": "Cube.004",
      "translation": [
        3.33506178855896,
        3.356412410736084,
        0
      ],
      "rotation": [
        0,
        0,
        -0.006683696992695332,
        0.9999777674674988
      ],
      "mesh": 1
    },
    {
      "name": "Cube.005",
      "translation": [
        -3.311399221420288,
        3.356412410736084,
        0
      ],
      "rotation": [
        0,
        0,
        -0.03925982117652893,
        0.9992290735244751
      ],
      "mesh": 1
    },
    {
      "name": "Cube.006",
      "translation": [
        0,
        6.665226459503174,
        0
      ],
      "mesh": 1
    },
    {
      "name": "Cube.008",
      "translation": [
        3.3051798343658447,
        6.734194278717041,
        0
      ],
      "mesh": 1
    },
    {
      "name": "Cube.009",
      "translation": [
        -3.2975807189941406,
        6.958913326263428,
        0
      ],
      "mesh": 1
    },
    {
      "name": "Plane",
      "translation": [
        0,
        -1.7941787242889404,
        1.0036747455596924
      ],
      "rotation": [
        0.7071068286895752,
        0,
        0,
        0.7071068286895752
      ],
      "scale": [
        4.218648433685303,
        1,
        0.3652837574481964
      ],
      "mesh": 2
    }
  ],
  "animations": [
    {
      "name": "Step Scale",
      "samplers": [
        {
          "input": 9,
          "output": 10,
          "interpolation": "STEP"
        }
      ],
      "channels": [
        {
          "sampler": 0,
          "target": {
            "node": 0,
            "path": "scale"
          }
        }
      ]
    },
    {
      "name": "Linear Scale",
      "samplers": [
        {
          "input": 9,
          "output": 10,
          "interpolation": "LINEAR"
        }
      ],
      "channels": [
        {
          "sampler": 0,
          "target": {
            "node": 1,
            "path": "scale"
          }
        }
      ]
    },
    {
      "name": "CubicSpline Scale",
      "samplers": [
        {
          "input": 9,
          "output": 11,
          "interpolation": "CUBICSPLINE"
        }
      ],
      "channels": [
        {
          "sampler": 0,
          "target": {
            "node": 2,
            "path": "scale"
          }
        }
      ]
    },
    {
      "name": "Step Rotation",
      "samplers": [
        {
          "input": 12,
          "output": 13,
          "interpolation": "STEP"
        }
      ],
      "channels": [
        {
          "sampler": 0,
          "target": {
            "node": 3,
            "path": "rotation"
          }
        }
      ]
    },
    {
      "name": "CubicSpline Rotation",
      "samplers": [
        {
          "input": 12,
          "output": 14,
          "interpolation": "CUBICSPLINE"
        }
      ],
      "channels": [
        {
          "sampler": 0,
          "target": {
            "node": 4,
            "path": "rotation"
          }
        }
      ]
    },
    {
      "name": "Linear Rotation",
      "samplers": [
        {
          "input": 12,
          "output": 13,
          "interpolation": "LINEAR"
        }
      ],
      "channels": [
        {
          "sampler": 0,
          "target": {
            "node": 5,
            "path": "rotation"
          }
        }
      ]
    },
    {
      "name": "Step Translation",
      "samplers": [
        {
          "input": 15,
          "output": 16,
          "interpolation": "STEP"
        }
      ],
      "channels": [
        {
          "sampler": 0,
          "target": {
            "node": 6,
            "path": "translation"
          }
        }
      ]
    },
    {
      "name": "CubicSpline Translation",
      "samplers": [
        {
          "input": 17,
          "output": 18,
          "interpolation": "CUBICSPLINE"
        }
      ],
      "channels": [
        {
          "sampler": 0,
          "target": {
            "node": 7,
            "path": "translation"
          }
        }
      ]
    },
    {
      "name": "Linear Translation",
      "samplers": [
        {
          "input": 17,
          "output": 19,
          "interpolation": "LINEAR"
        }
      ],
      "channels": [
        {
          "sampler": 0,
          "target": {
            "node": 8,
            "path": "translation"
          }
        }
      ]
    }
  ],
  "scenes": [
    {
      "name": "Scene",
      "nodes": [
        0,
        1,
        2,
        3,
        4,
        5,
        6,
        7,
        8,
        9
      ]
    }
  ],
  "scene": 0
}