{
  "accessors": [
    {
      "bufferView": 0,
      "componentType": 5123,
      "count": 3840,
      "max": [
        672
      ],
      "min": [
        0
      ],
      "type": "SCALAR"
    },
    {
      "bufferView": 1,
      "componentType": 5126,
      "count": 673,
      "max": [
        0.4999999403953552,
        0.5,
        0.5
      ],
      "min": [
        -0.4999999403953552,
        -0.5,
        -0.5
      ],
      "type": "VEC3"
    },
    {
      "bufferView": 2,
      "componentType": 5126,
      "count": 673,
      "max": [
        0.9999999403953552,
        1
      ],
      "min": [
        -0.15000003576278687,
        0
      ],
      "type": "VEC2"
    },
    {
      "bufferView": 3,
      "componentType": 5126,
      "count": 673,
      "max": [
        0.9999997615814209,
        1,
        1
      ],
      "min": [
        -0.9999997615814209,
        -1,
        -1
      ],
      "type": "VEC3"
    },
    {
      "bufferView": 4,
      "componentType": 5123,
      "count": 3840,
      "max": [
        672
      ],
      "min": [
        0
      ],
      "type": "SCALAR"
    },
    {
      "bufferView": 5,
      "componentType": 5126,
      "count": 673,
      "max": [
        0.4999999403953552,
        0.5,
        0.5
      ],
      "min": [
        -0.4999999403953552,
        -0.5,
        -0.5
      ],
      "type": "VEC3"
    },
    {
      "bufferView": 6,
      "componentType": 5126,
      "count": 673,
      "max": [
        0.9999999403953552,
        1
      ],
      "min": [
        -0.15000003576278687,
        0
      ],
      "type": "VEC2"
    },
    {
      "bufferView": 7,
      "componentType": 5126,
      "count": 673,
      "max": [
        0.9999997615814209,
        1,
        1
      ],
      "min": [
        -0.9999997615814209,
        -1,
        -1
      ],
      "type": "VEC3"
    },
    {
      "bufferView": 8,
      "componentType": 5123,
      "count": 3840,
      "max": [
        672
      ],
      "min": [
        0
      ],
      "type": "SCALAR"
    },
    {
      "bufferView": 9,
      "componentType": 5126,
      "count": 673,
      "max": [
        0.4999999403953552,
        0.5,
        0.5
      ],
      "min": [
        -0.4999999403953552,
        -0.5,
        -0.5
      ],
      "type": "VEC3"
    },
    {
      "bufferView": 10,
      "componentType": 5126,
      "count": 673,
      "max": [
        0.9999999403953552,
        1
      ],
      "min": [
        -0.15000003576278687,
        0
      ],
      "type": "VEC2"
    },
    {
      "bufferView": 11,
      "componentType": 5126,
      "count": 673,
      "max": [
        0.9999997615814209,
        1,
        1
      ],
      "min": [
        -0.9999997615814209,
        -1,
        -1
      ],
      "type": "VEC3"
    }
  ],
  "asset": {
    "copyright": "Asset CC0, created by Eric Chadwick and DGG. glTF logo © 2017, Khronos Group.",
    "generator": "Created by RapidCompact v6.8.1 | www.rapidcompact.com",
    "version": "2.0"
  },
  "bufferViews": [
    {
      "buffer": 0,
      "byteLength": 7680,
      "byteOffset": 0,
      "target": 34963
    },
    {
      "buffer": 0,
      "byteLength": 8076,
      "byteOffset": 7680,
      "byteStride": 12,
      "target": 34962
    },
    {
      "buffer": 0,
      "byteLength": 5384,
      "byteOffset": 15756,
      "byteStride": 8,
      "target": 34962
    },
    {
      "buffer": 0,
      "byteLength": 8076,
      "byteOffset": 21140,
      "byteStride": 12,
      "target": 34962
    },
    {
      "buffer": 0,
      "byteLength": 7680,
      "byteOffset": 29216,
      "target": 34963
    },
    {
      "buffer": 0,
      "byteLength": 8076,
      "byteOffset": 36896,
      "byteStride": 12,
      "target": 34962
    },
    {
      "buffer": 0,
      "byteLength": 5384,
      "byteOffset": 44972,
      "byteStride": 8,
      "target": 34962
    },
    {
      "buffer": 0,
      "byteLength": 8076,
      "byteOffset": 50356,
      "byteStride": 12,
      "target": 34962
    },
    {
      "buffer": 0,
      "byteLength": 7680,
      "byteOffset": 58432,
      "target": 34963
    },
    {
      "buffer": 0,
      "byteLength": 8076,
      "byteOffset": 66112,
      "byteStride": 12,
      "target": 34962
    },
    {
      "buffer": 0,
      "byteLength": 5384,
      "byteOffset": 74188,
      "byteStride": 8,
      "target": 34962
    },
    {
      "buffer": 0,
      "byteLength": 8076,
      "byteOffset": 79572,
      "byteStride": 12,
      "target": 34962
    }
  ],
  "buffers": [
    {
      "uri": "CompareClearcoat.bin",
      "byteLength": 87648
    }
  ],
  "extensionsUsed": [
    "KHR_materials_clearcoat",
    "KHR_materials_ior"
  ],
  "images": [
    {
      "uri": "Compare_Clearcoat_img0.jpg"
    },
    {
      "uri": "Compare_Clearcoat_img1.jpg"
    }
  ],
  "materials": [
    {
      "name": "green glossy",
      "pbrMetallicRoughness": {
        "baseColorTexture": {
          "index": 0
        },
        "metallicRoughnessTexture": {
          "index": 1
        },
        "roughnessFactor": 0
      }
    },
    {
      "name": "green rough",
      "pbrMetallicRoughness": {
        "baseColorTexture": {
          "index": 0
        },
        "metallicRoughnessTexture": {
          "index": 1
        },
        "roughnessFactor": 0.5
      }
    },
    {
      "extensions": {
        "KHR_materials_clearcoat": {
          "clearcoatFactor": 1
        },
        "KHR_materials_ior": {
          "ior": 1.6
        }
      },
      "name": "green clearcoat",
      "pbrMetallicRoughness": {
        "baseColorTexture": {
          "index": 0
        },
        "metallicRoughnessTexture": {
          "index": 1
        },
        "roughnessFactor": 0.5
      }
    }
  ],
  "meshes": [
    {
      "name": "GeoSphere001",
      "primitives": [
        {
          "attributes": {
            "NORMAL": 3,
            "POSITION": 1,
            "TEXCOORD_0": 2
          },
          "indices": 0,
          "material": 0,
          "mode": 4
        }
      ]
    },
    {
      "name": "GeoSphere002",
      "primitives": [
        {
          "attributes": {
            "NORMAL": 7,
            "POSITION": 5,
            "TEXCOORD_0": 6
          },
          "indices": 4,
          "material": 1,
          "mode": 4
        }
      ]
    },
    {
      "name": "GeoSphere003",
      "primitives": [
        {
          "attributes": {
            "NORMAL": 11,
            "POSITION": 9,
            "TEXCOORD_0": 10
          },
          "indices": 8,
          "material": 2,
          "mode": 4
        }
      ]
    }
  ],
  "nodes": [
    {
      "mesh": 0,
      "name": "GeoSphere001",
      "rotation": [
        0.7071067690849304,
        0,
        0,
        -0.7071067690849304
      ],
      "translation": [
        -1.100000023841858,
        0,
        0
      ]
    },
    {
      "mesh": 1,
      "name": "GeoSphere002",
      "rotation": [
        0.7071067690849304,
        0,
        0,
        -0.7071067690849304
      ]
    },
    {
      "mesh": 2,
      "name": "GeoSphere003",
      "rotation": [
        0.7071067690849304,
        0,
        0,
        -0.7071067690849304
      ],
      "translation": [
        1.100000023841858,
        0,
        0
      ]
    }
  ],
  "scene": 0,
  "scenes": [
    {
      "nodes": [
        0,
        1,
        2
      ]
    }
  ],
  "textures": [
    {
      "source": 0
    },
    {
      "source": 1
    }
  ]
}