{
	"asset":{
		"generator":"Khronos glTF Blender I/O v3.6.27",
		"version":"2.0"
	},
	"scene":0,
	"scenes":[
		{
			"name":"Scene",
			"nodes":[
				0,
				1,
				2,
				3,
				4,
				5
			]
		}
	],
	"nodes":[
		{
			"mesh":0,
			"name":"TriangleStrip",
			"translation":[
				-2,
				0,
				0
			]
		},
		{
			"mesh":1,
			"name":"TriangleFan",
			"translation":[
				5,
				1,
				-1
			]
		},
		{
			"mesh":2,
			"name":"Triangles",
			"translation":[
				-6,
				1,
				0
			]
		},
		{
			"mesh":3,
			"name":"LineStrip",
			"translation":[
				-6,
				0,
				5
			]
		},
		{
			"mesh":4,
			"name":"LineLoop",
			"translation":[
				-1,
				0,
				5
			]
		},
		{
			"mesh":5,
			"name":"Lines",
			"translation":[
				-11,
				0,
				5
			]
		}
	],
	"meshes":[
		{
			"name":"TriangleStrip",
			"primitives":[
				{
					"attributes":{
						"POSITION":0,
						"NORMAL":1
					},
					"mode": 5
				}
			]
		},
		{
			"name":"TriangleFan",
			"primitives":[
				{
					"attributes":{
						"POSITION":3,
						"NORMAL":4
					},
					"mode": 6
				}
			]
		},
		{
			"name":"Triangles",
			"primitives":[
				{
					"attributes":{
						"POSITION":6,
						"NORMAL":7
					},
					"mode": 4
				}
			]
		},
		{
			"name":"LineStrip",
			"primitives":[
				{
					"attributes":{
						"POSITION":9
					},
					"mode":3
				}
			]
		},
		{
			"name":"LineLoop",
			"primitives":[
				{
					"attributes":{
						"POSITION":11
					},
					"mode":2
				}
			]
		},
		{
			"name":"Lines",
			"primitives":[
				{
					"attributes":{
						"POSITION":13
					},
					"mode":1
				}
			]
		}
	],
	"accessors":[
		{
			"bufferView":0,
			"componentType":5126,
			"count":6,
			"max":[
				4,
				0,
				1
			],
			"min":[
				-1,
				0,
				-1
			],
			"type":"VEC3"
		},
		{
			"bufferView":1,
			"componentType":5126,
			"count":6,
			"type":"VEC3"
		},
		{
			"bufferView":2,
			"componentType":5123,
			"count":12,
			"type":"SCALAR"
		},
		{
			"bufferView":3,
			"componentType":5126,
			"count":7,
			"max":[
				2,
				0,
				3
			],
			"min":[
				-2,
				0,
				-1
			],
			"type":"VEC3"
		},
		{
			"bufferView":4,
			"componentType":5126,
			"count":7,
			"type":"VEC3"
		},
		{
			"bufferView":5,
			"componentType":5123,
			"count":18,
			"type":"SCALAR"
		},
		{
			"bufferView":6,
			"componentType":5126,
			"count":18,
			"max":[
				0.866025447845459,
				-1,
				1
			],
			"min":[
				-0.8660255074501038,
				-1,
				-1
			],
			"type":"VEC3"
		},
		{
			"bufferView":7,
			"componentType":5126,
			"count":18,
			"type":"VEC3"
		},
		{
			"bufferView":8,
			"componentType":5123,
			"count":18,
			"type":"SCALAR"
		},
		{
			"bufferView":9,
			"componentType":5126,
			"count":10,
			"max":[
				2,
				0,
				3
			],
			"min":[
				-2,
				0,
				-1
			],
			"type":"VEC3"
		},
		{
			"bufferView":10,
			"componentType":5123,
			"count":16,
			"type":"SCALAR"
		},
		{
			"bufferView":11,
			"componentType":5126,
			"count":8,
			"max":[
				2,
				0,
				3
			],
			"min":[
				-2,
				0,
				-1
			],
			"type":"VEC3"
		},
		{
			"bufferView":12,
			"componentType":5123,
			"count":14,
			"type":"SCALAR"
		},
		{
			"bufferView":13,
			"componentType":5126,
			"count":16,
			"max":[
				2,
				0,
				3
			],
			"min":[
				-2,
				0,
				-1
			],
			"type":"VEC3"
		},
		{
			"bufferView":14,
			"componentType":5123,
			"count":16,
			"type":"SCALAR"
		}
	],
	"bufferViews":[
		{
			"buffer":0,
			"byteLength":72,
			"byteOffset":0,
			"target":34962
		},
		{
			"buffer":0,
			"byteLength":72,
			"byteOffset":72,
			"target":34962
		},
		{
			"buffer":0,
			"byteLength":24,
			"byteOffset":144,
			"target":34963
		},
		{
			"buffer":0,
			"byteLength":84,
			"byteOffset":168,
			"target":34962
		},
		{
			"buffer":0,
			"byteLength":84,
			"byteOffset":252,
			"target":34962
		},
		{
			"buffer":0,
			"byteLength":36,
			"byteOffset":336,
			"target":34963
		},
		{
			"buffer":0,
			"byteLength":216,
			"byteOffset":372,
			"target":34962
		},
		{
			"buffer":0,
			"byteLength":216,
			"byteOffset":588,
			"target":34962
		},
		{
			"buffer":0,
			"byteLength":36,
			"byteOffset":804,
			"target":34963
		},
		{
			"buffer":0,
			"byteLength":120,
			"byteOffset":840,
			"target":34962
		},
		{
			"buffer":0,
			"byteLength":32,
			"byteOffset":960,
			"target":34963
		},
		{
			"buffer":0,
			"byteLength":96,
			"byteOffset":992,
			"target":34962
		},
		{
			"buffer":0,
			"byteLength":28,
			"byteOffset":1088,
			"target":34963
		},
		{
			"buffer":0,
			"byteLength":192,
			"byteOffset":1116,
			"target":34962
		},
		{
			"buffer":0,
			"byteLength":32,
			"byteOffset":1308,
			"target":34963
		}
	],
	"buffers":[
		{
			"byteLength":1340,
			"uri":"TopologiesWithoutIndices.bin"
		}
	]
}
