{
  "asset": {
    "generator": "UnityGLTF",
    "version": "2.0"
  },
  "extensionsUsed": [
    "KHR_materials_unlit"
  ],
  "extensionsRequired": [
    "KHR_materials_unlit"
  ],
  "scene": 0,
  "scenes": [
    {
      "nodes": [
        0
      ],
      "name": "RelativeTexturePaths"
    }
  ],
  "accessors": [
    {
      "bufferView": 0,
      "componentType": 5126,
      "count": 24,
      "type": "VEC3",
      "max": [
        0.5,
        0.5,
        0.5
      ],
      "min": [
        -0.5,
        -0.5,
        -0.5
      ]
    },
    {
      "bufferView": 1,
      "componentType": 5126,
      "count": 24,
      "type": "VEC3",
      "max": [
        1.0,
        1.0,
        1.0
      ],
      "min": [
        -1.0,
        -1.0,
        -1.0
      ]
    },
    {
      "bufferView": 2,
      "componentType": 5126,
      "count": 24,
      "type": "VEC4",
      "max": [
        1.0,
        0.0,
        1.0,
        1.0
      ],
      "min": [
        0.0,
        0.0,
        -1.0,
        1.0
      ]
    },
    {
      "bufferView": 3,
      "componentType": 5126,
      "count": 24,
      "type": "VEC2",
      "max": [
        1.0,
        1.0
      ],
      "min": [
        0.0,
        0.0
      ]
    },
    {
      "bufferView": 4,
      "componentType": 5126,
      "count": 24,
      "type": "VEC2",
      "max": [
        0.9966580867767334,
        0.99594426155090332
      ],
      "min": [
        0.0040557663887739182,
        0.34716415405273438
      ]
    },
    {
      "bufferView": 5,
      "componentType": 5121,
      "count": 36,
      "type": "SCALAR",
      "max": [
        23.0
      ],
      "min": [
        0.0
      ]
    },
    {
      "bufferView": 6,
      "componentType": 5126,
      "count": 40,
      "type": "VEC3",
      "max": [
        1.4417014122009277,
        2.0090982913970947,
        0.0
      ],
      "min": [
        -14.380227088928223,
        -0.31283187866210938,
        0.0
      ]
    },
    {
      "bufferView": 7,
      "componentType": 5126,
      "count": 40,
      "type": "VEC3",
      "max": [
        0.0,
        0.0,
        -1.0
      ],
      "min": [
        0.0,
        0.0,
        -1.0
      ]
    },
    {
      "bufferView": 8,
      "componentType": 5126,
      "count": 40,
      "type": "VEC4",
      "max": [
        1.0,
        0.0,
        0.0,
        -1.0
      ],
      "min": [
        1.0,
        0.0,
        0.0,
        -1.0
      ]
    },
    {
      "bufferView": 9,
      "componentType": 5126,
      "count": 40,
      "type": "VEC2",
      "max": [
        0.9724423885345459,
        1.0
      ],
      "min": [
        0.0,
        0.2297060489654541
      ]
    },
    {
      "bufferView": 10,
      "componentType": 5126,
      "count": 40,
      "type": "VEC2",
      "max": [
        2093567.0,
        1.0
      ],
      "min": [
        0.0,
        0.99567478895187378
      ]
    },
    {
      "bufferView": 11,
      "componentType": 5126,
      "count": 40,
      "type": "VEC4",
      "max": [
        1.0,
        1.0,
        1.0,
        1.0
      ],
      "min": [
        1.0,
        1.0,
        1.0,
        1.0
      ]
    },
    {
      "bufferView": 12,
      "componentType": 5121,
      "count": 60,
      "type": "SCALAR",
      "max": [
        39.0
      ],
      "min": [
        0.0
      ]
    },
    {
      "bufferView": 13,
      "componentType": 5126,
      "count": 52,
      "type": "VEC3",
      "max": [
        6.7789101600646973,
        2.0090982913970947,
        0.0
      ],
      "min": [
        -14.310456275939941,
        -0.90585482120513916,
        0.0
      ]
    },
    {
      "bufferView": 14,
      "componentType": 5126,
      "count": 52,
      "type": "VEC3",
      "max": [
        0.0,
        0.0,
        -1.0
      ],
      "min": [
        0.0,
        0.0,
        -1.0
      ]
    },
    {
      "bufferView": 15,
      "componentType": 5126,
      "count": 52,
      "type": "VEC4",
      "max": [
        1.0,
        0.0,
        0.0,
        -1.0
      ],
      "min": [
        1.0,
        0.0,
        0.0,
        -1.0
      ]
    },
    {
      "bufferView": 16,
      "componentType": 5126,
      "count": 52,
      "type": "VEC2",
      "max": [
        0.9724423885345459,
        1.0
      ],
      "min": [
        0.0,
        0.0841982364654541
      ]
    },
    {
      "bufferView": 17,
      "componentType": 5126,
      "count": 52,
      "type": "VEC2",
      "max": [
        2093567.0,
        1.0
      ],
      "min": [
        0.0,
        0.99567478895187378
      ]
    },
    {
      "bufferView": 18,
      "componentType": 5126,
      "count": 52,
      "type": "VEC4",
      "max": [
        1.0,
        1.0,
        1.0,
        1.0
      ],
      "min": [
        1.0,
        1.0,
        1.0,
        1.0
      ]
    },
    {
      "bufferView": 19,
      "componentType": 5121,
      "count": 78,
      "type": "SCALAR",
      "max": [
        51.0
      ],
      "min": [
        0.0
      ]
    },
    {
      "bufferView": 20,
      "componentType": 5126,
      "count": 64,
      "type": "VEC3",
      "max": [
        9.1161203384399414,
        2.0090982913970947,
        0.0
      ],
      "min": [
        -14.310456275939941,
        -0.90585482120513916,
        0.0
      ]
    },
    {
      "bufferView": 21,
      "componentType": 5126,
      "count": 64,
      "type": "VEC3",
      "max": [
        0.0,
        0.0,
        -1.0
      ],
      "min": [
        0.0,
        0.0,
        -1.0
      ]
    },
    {
      "bufferView": 22,
      "componentType": 5126,
      "count": 64,
      "type": "VEC4",
      "max": [
        1.0,
        0.0,
        0.0,
        -1.0
      ],
      "min": [
        1.0,
        0.0,
        0.0,
        -1.0
      ]
    },
    {
      "bufferView": 23,
      "componentType": 5126,
      "count": 64,
      "type": "VEC2",
      "max": [
        0.9919736385345459,
        1.0
      ],
      "min": [
        0.0,
        0.0841982364654541
      ]
    },
    {
      "bufferView": 24,
      "componentType": 5126,
      "count": 64,
      "type": "VEC2",
      "max": [
        2093567.0,
        1.0
      ],
      "min": [
        0.0,
        0.99567478895187378
      ]
    },
    {
      "bufferView": 25,
      "componentType": 5126,
      "count": 64,
      "type": "VEC4",
      "max": [
        1.0,
        1.0,
        1.0,
        1.0
      ],
      "min": [
        1.0,
        1.0,
        1.0,
        1.0
      ]
    },
    {
      "bufferView": 26,
      "componentType": 5121,
      "count": 96,
      "type": "SCALAR",
      "max": [
        63.0
      ],
      "min": [
        0.0
      ]
    },
    {
      "bufferView": 27,
      "componentType": 5126,
      "count": 80,
      "type": "VEC3",
      "max": [
        13.324960708618164,
        2.0090982913970947,
        0.0
      ],
      "min": [
        -16.729524612426758,
        -0.31283175945281982,
        0.0
      ]
    },
    {
      "bufferView": 28,
      "componentType": 5126,
      "count": 80,
      "type": "VEC3",
      "max": [
        0.0,
        0.0,
        -1.0
      ],
      "min": [
        0.0,
        0.0,
        -1.0
      ]
    },
    {
      "bufferView": 29,
      "componentType": 5126,
      "count": 80,
      "type": "VEC4",
      "max": [
        1.0,
        0.0,
        0.0,
        -1.0
      ],
      "min": [
        1.0,
        0.0,
        0.0,
        -1.0
      ]
    },
    {
      "bufferView": 30,
      "componentType": 5126,
      "count": 80,
      "type": "VEC2",
      "max": [
        0.9919736385345459,
        1.0
      ],
      "min": [
        0.0,
        0.0881044864654541
      ]
    },
    {
      "bufferView": 31,
      "componentType": 5126,
      "count": 80,
      "type": "VEC2",
      "max": [
        2093567.0,
        1.0
      ],
      "min": [
        0.0,
        0.99567478895187378
      ]
    },
    {
      "bufferView": 32,
      "componentType": 5126,
      "count": 80,
      "type": "VEC4",
      "max": [
        1.0,
        1.0,
        1.0,
        1.0
      ],
      "min": [
        1.0,
        1.0,
        1.0,
        1.0
      ]
    },
    {
      "bufferView": 33,
      "componentType": 5121,
      "count": 120,
      "type": "SCALAR",
      "max": [
        79.0
      ],
      "min": [
        0.0
      ]
    }
  ],
  "buffers": [
    {
      "uri": "Buffer.bin",
      "byteLength": 18728
    }
  ],
  "bufferViews": [
    {
      "buffer": 0,
      "byteLength": 288,
      "byteStride": 12,
      "target": 34962
    },
    {
      "buffer": 0,
      "byteOffset": 288,
      "byteLength": 288,
      "byteStride": 12,
      "target": 34962
    },
    {
      "buffer": 0,
      "byteOffset": 576,
      "byteLength": 384,
      "target": 34962
    },
    {
      "buffer": 0,
      "byteOffset": 960,
      "byteLength": 192,
      "target": 34962
    },
    {
      "buffer": 0,
      "byteOffset": 1152,
      "byteLength": 192,
      "target": 34962
    },
    {
      "buffer": 0,
      "byteOffset": 1344,
      "byteLength": 36,
      "target": 34963
    },
    {
      "buffer": 0,
      "byteOffset": 1380,
      "byteLength": 480,
      "byteStride": 12,
      "target": 34962
    },
    {
      "buffer": 0,
      "byteOffset": 1860,
      "byteLength": 480,
      "byteStride": 12,
      "target": 34962
    },
    {
      "buffer": 0,
      "byteOffset": 2340,
      "byteLength": 640,
      "target": 34962
    },
    {
      "buffer": 0,
      "byteOffset": 2980,
      "byteLength": 320,
      "target": 34962
    },
    {
      "buffer": 0,
      "byteOffset": 3300,
      "byteLength": 320,
      "target": 34962
    },
    {
      "buffer": 0,
      "byteOffset": 3620,
      "byteLength": 640,
      "target": 34962
    },
    {
      "buffer": 0,
      "byteOffset": 4260,
      "byteLength": 60,
      "target": 34963
    },
    {
      "buffer": 0,
      "byteOffset": 4320,
      "byteLength": 624,
      "byteStride": 12,
      "target": 34962
    },
    {
      "buffer": 0,
      "byteOffset": 4944,
      "byteLength": 624,
      "byteStride": 12,
      "target": 34962
    },
    {
      "buffer": 0,
      "byteOffset": 5568,
      "byteLength": 832,
      "target": 34962
    },
    {
      "buffer": 0,
      "byteOffset": 6400,
      "byteLength": 416,
      "target": 34962
    },
    {
      "buffer": 0,
      "byteOffset": 6816,
      "byteLength": 416,
      "target": 34962
    },
    {
      "buffer": 0,
      "byteOffset": 7232,
      "byteLength": 832,
      "target": 34962
    },
    {
      "buffer": 0,
      "byteOffset": 8064,
      "byteLength": 80,
      "target": 34963
    },
    {
      "buffer": 0,
      "byteOffset": 8144,
      "byteLength": 768,
      "byteStride": 12,
      "target": 34962
    },
    {
      "buffer": 0,
      "byteOffset": 8912,
      "byteLength": 768,
      "byteStride": 12,
      "target": 34962
    },
    {
      "buffer": 0,
      "byteOffset": 9680,
      "byteLength": 1024,
      "target": 34962
    },
    {
      "buffer": 0,
      "byteOffset": 10704,
      "byteLength": 512,
      "target": 34962
    },
    {
      "buffer": 0,
      "byteOffset": 11216,
      "byteLength": 512,
      "target": 34962
    },
    {
      "buffer": 0,
      "byteOffset": 11728,
      "byteLength": 1024,
      "target": 34962
    },
    {
      "buffer": 0,
      "byteOffset": 12752,
      "byteLength": 96,
      "target": 34963
    },
    {
      "buffer": 0,
      "byteOffset": 12848,
      "byteLength": 960,
      "byteStride": 12,
      "target": 34962
    },
    {
      "buffer": 0,
      "byteOffset": 13808,
      "byteLength": 960,
      "byteStride": 12,
      "target": 34962
    },
    {
      "buffer": 0,
      "byteOffset": 14768,
      "byteLength": 1280,
      "target": 34962
    },
    {
      "buffer": 0,
      "byteOffset": 16048,
      "byteLength": 640,
      "target": 34962
    },
    {
      "buffer": 0,
      "byteOffset": 16688,
      "byteLength": 640,
      "target": 34962
    },
    {
      "buffer": 0,
      "byteOffset": 17328,
      "byteLength": 1280,
      "target": 34962
    },
    {
      "buffer": 0,
      "byteOffset": 18608,
      "byteLength": 120,
      "target": 34963
    }
  ],
  "images": [
    {
      "uri": "SameFolder%20%E3%81%93%E3%82%93%E3%81%AB%E3%81%A1%E3%81%AF%E4%B8%96%E7%95%8C.jpg",
      "name": "SameFolder こんにちは世界"
    },
    {
      "uri": "Child%20Folder%20%E0%A4%A8%E0%A4%AE%E0%A4%B8%E0%A5%8D%E0%A4%A4%E0%A5%87%2C%20%E0%A4%A6%E0%A5%81%E0%A4%A8%E0%A4%BF%E0%A4%AF%E0%A4%BE/ChildFolder%20%E4%BD%A0%E5%A5%BD%EF%BC%8C%E4%B8%96%E7%95%8C.jpg",
      "name": "ChildFolder 你好，世界"
    },
    {
      "uri": "3.png",
      "name": "3"
    },
    {
      "uri": "SameFolder こんにちは世界.jpg",
      "name": "SameFolder こんにちは世界"
    },
    {
      "uri": "Child Folder नमस्ते, दुनिया/ChildFolder 你好，世界.jpg",
      "name": "ChildFolder 你好，世界"
    },
    {
      "uri": "SameFolder \u3053\u3093\u306B\u3061\u306F\u4E16\u754C.jpg",
      "name": "SameFolder こんにちは世界"
    },
    {
      "uri": "Child Folder \u0928\u092E\u0938\u094D\u0924\u0947, \u0926\u0941\u0928\u093F\u092F\u093E\/ChildFolder \u4F60\u597D\uFF0C\u4E16\u754C.jpg",
      "name": "ChildFolder 你好，世界"
    },
    {
      "uri": "Child Folder नमस्ते, दुनिया/../SameFolder \u3053\u3093\u306B\u3061\u306F\u4E16\u754C.jpg",
      "name": "SameFolder こんにちは世界"
    },
    {
      "uri": "Child Folder नमस्ते, दुनिया/../Child Folder \u0928\u092E\u0938\u094D\u0924\u0947, \u0926\u0941\u0928\u093F\u092F\u093E\/ChildFolder \u4F60\u597D\uFF0C\u4E16\u754C.jpg",
      "name": "ChildFolder 你好，世界"
    }
  ],
  "materials": [
    {
      "pbrMetallicRoughness": {
        "baseColorTexture": {
          "index": 0
        },
        "metallicFactor": 0.0,
        "roughnessFactor": 0.5
      },
      "name": "SameFolder (Percent Encoded)"
    },
    {
      "pbrMetallicRoughness": {
        "baseColorTexture": {
          "index": 1
        },
        "metallicFactor": 0.0,
        "roughnessFactor": 0.5
      },
      "name": "ChildFolder (Percent Encoded)"
    },
    {
      "pbrMetallicRoughness": {
        "baseColorTexture": {
          "index": 2
        }
      },
      "alphaMode": "BLEND",
      "name": "LiberationSans SDF Material",
      "extensions": {
        "KHR_materials_unlit": {}
      }
    },
    {
      "pbrMetallicRoughness": {
        "baseColorTexture": {
          "index": 3
        },
        "metallicFactor": 0.0,
        "roughnessFactor": 0.5
      },
      "name": "SameFolder (UTF8)"
    },
    {
      "pbrMetallicRoughness": {
        "baseColorTexture": {
          "index": 4
        },
        "metallicFactor": 0.0,
        "roughnessFactor": 0.5
      },
      "name": "ChildFolder (UTF8)"
    },
    {
      "pbrMetallicRoughness": {
        "baseColorTexture": {
          "index": 5
        },
        "metallicFactor": 0.0,
        "roughnessFactor": 0.5
      },
      "name": "SameFolder (JSON Escaped)"
    },
    {
      "pbrMetallicRoughness": {
        "baseColorTexture": {
          "index": 6
        },
        "metallicFactor": 0.0,
        "roughnessFactor": 0.5
      },
      "name": "ChildFolder (JSON Escaped)"
    },
    {
      "pbrMetallicRoughness": {
        "baseColorTexture": {
          "index": 7
        },
        "metallicFactor": 0.0,
        "roughnessFactor": 0.5
      },
      "name": "SameFolder (Non-Normalized)"
    },
    {
      "pbrMetallicRoughness": {
        "baseColorTexture": {
          "index": 8
        },
        "metallicFactor": 0.0,
        "roughnessFactor": 0.5
      },
      "name": "ChildFolder (Non-Normalized)"
    }
  ],
  "meshes": [
    {
      "primitives": [
        {
          "attributes": {
            "POSITION": 0,
            "NORMAL": 1,
            "TEXCOORD_0": 3
          },
          "indices": 5,
          "material": 0
        }
      ],
      "name": "SameFolderAsGltf"
    },
    {
      "primitives": [
        {
          "attributes": {
            "POSITION": 0,
            "NORMAL": 1,
            "TEXCOORD_0": 3
          },
          "indices": 5,
          "material": 1
        }
      ],
      "name": "SubFolderOfGltf"
    },
    {
      "primitives": [
        {
          "attributes": {
            "POSITION": 6,
            "NORMAL": 7,
            "TEXCOORD_0": 9,
            "COLOR_0": 11
          },
          "indices": 12,
          "material": 2
        }
      ],
      "name": "Text (TMP)"
    },
    {
      "primitives": [
        {
          "attributes": {
            "POSITION": 13,
            "NORMAL": 14,
            "TEXCOORD_0": 16,
            "COLOR_0": 18
          },
          "indices": 19,
          "material": 2
        }
      ],
      "name": "Text (TMP) (1)"
    },
    {
      "primitives": [
        {
          "attributes": {
            "POSITION": 20,
            "NORMAL": 21,
            "TEXCOORD_0": 23,
            "COLOR_0": 25
          },
          "indices": 26,
          "material": 2
        }
      ],
      "name": "Text (TMP) (2)"
    },
    {
      "primitives": [
        {
          "attributes": {
            "POSITION": 27,
            "NORMAL": 28,
            "TEXCOORD_0": 30,
            "COLOR_0": 32
          },
          "indices": 33,
          "material": 2
        }
      ],
      "name": "Text (TMP) (3)"
    },
    {
      "primitives": [
        {
          "attributes": {
            "POSITION": 0,
            "NORMAL": 1,
            "TEXCOORD_0": 3
          },
          "indices": 5,
          "material": 3
        }
      ],
      "name": "SameFolderAsGltf"
    },
    {
      "primitives": [
        {
          "attributes": {
            "POSITION": 0,
            "NORMAL": 1,
            "TEXCOORD_0": 3
          },
          "indices": 5,
          "material": 4
        }
      ],
      "name": "SubFolderOfGltf"
    },
    {
      "primitives": [
        {
          "attributes": {
            "POSITION": 0,
            "NORMAL": 1,
            "TEXCOORD_0": 3
          },
          "indices": 5,
          "material": 5
        }
      ],
      "name": "SameFolderAsGltf"
    },
    {
      "primitives": [
        {
          "attributes": {
            "POSITION": 0,
            "NORMAL": 1,
            "TEXCOORD_0": 3
          },
          "indices": 5,
          "material": 6
        }
      ],
      "name": "SubFolderOfGltf"
    },
    {
      "primitives": [
        {
          "attributes": {
            "POSITION": 0,
            "NORMAL": 1,
            "TEXCOORD_0": 3
          },
          "indices": 5,
          "material": 7
        }
      ],
      "name": "SameFolderAsGltf"
    },
    {
      "primitives": [
        {
          "attributes": {
            "POSITION": 0,
            "NORMAL": 1,
            "TEXCOORD_0": 3
          },
          "indices": 5,
          "material": 8
        }
      ],
      "name": "SubFolderOfGltf"
    }
  ],
  "nodes": [
    {
      "children": [
        1,
        4,
        7,
        10,
        13,
        14,
        15,
        16
      ],
      "translation": [
        0.9864774,
        0.175967216,
        0.2177962
      ],
      "name": "RelativeTexturePaths"
    },
    {
      "children": [
        2,
        3
      ],
      "name": "UTF8 Paths"
    },
    {
      "mesh": 6,
      "translation": [
        0.0,
        0.5,
        0.0
      ],
      "name": "SameFolderAsGltf"
    },
    {
      "mesh": 7,
      "translation": [
        1.25,
        0.5,
        0.0
      ],
      "name": "SubFolderOfGltf"
    },
    {
      "children": [
        5,
        6
      ],
      "translation": [
        0.0,
        1.25,
        0.0
      ],
      "name": "JSON Escaping"
    },
    {
      "mesh": 8,
      "translation": [
        0.0,
        0.5,
        0.0
      ],
      "name": "SameFolderAsGltf"
    },
    {
      "mesh": 9,
      "translation": [
        1.25,
        0.5,
        0.0
      ],
      "name": "SubFolderOfGltf"
    },
    {
      "children": [
        8,
        9
      ],
      "translation": [
        0.0,
        2.5,
        0.0
      ],
      "name": "Percent Encoding"
    },
    {
      "mesh": 0,
      "translation": [
        0.0,
        0.5,
        0.0
      ],
      "name": "SameFolderAsGltf"
    },
    {
      "mesh": 1,
      "translation": [
        1.25,
        0.5,
        0.0
      ],
      "name": "SubFolderOfGltf"
    },
    {
      "children": [
        11,
        12
      ],
      "translation": [
        0.0,
        3.75,
        0.0
      ],
      "name": "Non-Normalized Paths"
    },
    {
      "mesh": 10,
      "translation": [
        0.0,
        0.5,
        0.0
      ],
      "name": "SameFolderAsGltf"
    },
    {
      "mesh": 11,
      "translation": [
        1.25,
        0.5,
        0.0
      ],
      "name": "SubFolderOfGltf"
    },
    {
      "mesh": 2,
      "rotation": [
        0.0,
        1.0,
        0.0,
        -5.96046448E-08
      ],
      "scale": [
        0.123989768,
        0.123989768,
        0.123989768
      ],
      "translation": [
        -2.58,
        0.46,
        0.0
      ],
      "name": "Text (TMP)"
    },
    {
      "mesh": 3,
      "rotation": [
        0.0,
        1.0,
        0.0,
        -5.96046448E-08
      ],
      "scale": [
        0.123989768,
        0.123989768,
        0.123989768
      ],
      "translation": [
        -2.58,
        1.73,
        0.0
      ],
      "name": "Text (TMP) (1)"
    },
    {
      "mesh": 4,
      "rotation": [
        0.0,
        1.0,
        0.0,
        -5.96046448E-08
      ],
      "scale": [
        0.123989768,
        0.123989768,
        0.123989768
      ],
      "translation": [
        -2.58,
        2.92,
        0.0
      ],
      "name": "Text (TMP) (2)"
    },
    {
      "mesh": 5,
      "rotation": [
        0.0,
        1.0,
        0.0,
        -5.96046448E-08
      ],
      "scale": [
        0.123989768,
        0.123989768,
        0.123989768
      ],
      "translation": [
        -2.8713,
        4.21,
        0.0
      ],
      "name": "Text (TMP) (3)"
    }
  ],
  "samplers": [
    {
      "minFilter": 9987
    },
    {
      "minFilter": 9729,
      "wrapS": 33071,
      "wrapT": 33071
    }
  ],
  "textures": [
    {
      "sampler": 0,
      "source": 0,
      "name": "SameFolder こんにちは世界"
    },
    {
      "sampler": 0,
      "source": 1,
      "name": "ChildFolder 你好，世界"
    },
    {
      "sampler": 1,
      "source": 2,
      "name": "3"
    },
    {
      "sampler": 0,
      "source": 3,
      "name": "SameFolder こんにちは世界"
    },
    {
      "sampler": 0,
      "source": 4,
      "name": "ChildFolder 你好，世界"
    },
    {
      "sampler": 0,
      "source": 5,
      "name": "SameFolder こんにちは世界"
    },
    {
      "sampler": 0,
      "source": 6,
      "name": "ChildFolder 你好，世界"
    },
    {
      "sampler": 0,
      "source": 7,
      "name": "SameFolder こんにちは世界"
    },
    {
      "sampler": 0,
      "source": 8,
      "name": "ChildFolder 你好，世界"
    }
  ]
}