{
	"asset":{
		"generator":"Khronos glTF Blender I/O v4.4.55, with hand-edits for retroreflection",
		"version":"2.0",
		"extras": {
			"author":"hinndia (https://sketchfab.com/hinndia)",
			"license":"CC-BY-4.0 (http://creativecommons.org/licenses/by/4.0/)",
			"source":"https://sketchfab.com/3d-models/traffic-cone-573feef839d7450cb3e12da9986e7a98",
			"title":"Traffic Cone",
			"comment":"asphalt_02 textures CC0 by PolyHaven, https://polyhaven.com/a/asphalt_02"
		}
	},
	"extensionsUsed":[
		"KHR_materials_specular",
		"KHR_materials_retroreflection",
		"KHR_lights_punctual",
		"KHR_materials_unlit"
	],
	"extensions":{
		"KHR_lights_punctual":{
			"lights":[
				{
					"color":[
						1,
						1,
						1
					],
					"intensity":1.0000000158213433,
					"type":"point",
					"name":"Point Light"
				}
			]
		}
	},
	"scene":0,
	"scenes":[
		{
			"name":"Scene",
			"nodes":[
				2,
				3,
				4,
				5,
				6
			]
		}
	],
	"nodes":[
		{
			"mesh":0,
			"name":"Cone Normal",
			"translation":[
				0.30000001192092896,
				0,
				0
			]
		},
		{
			"mesh":1,
			"name":"Cone Retroreflection",
			"translation":[
				-0.30000001192092896,
				0,
				0
			]
		},
		{
			"children":[
				0,
				1
			],
			"name":"Cones",
			"rotation":[
				-0.70710688829422,
				0,
				0,
				0.7071066498756409
			]
		},
		{
			"camera":0,
			"name":"Camera",
			"rotation":[
				-0.06104852631688118,
				0,
				0,
				0.9981349110603333
			],
			"translation":[
				0,
				0.3690060079097748,
				1.190000057220459
			]
		},
		{
			"extensions":{
				"KHR_lights_punctual":{
					"light":0
				}
			},
			"name":"Point Light",
			"rotation":[
				-0.06182718276977539,
				0.02373685874044895,
				-0.3576287031173706,
				0.9315126538276672
			],
			"translation":[
				0,
				0.3690060079097748,
				1.2000000476837158
			]
		},
		{
			"mesh":2,
			"name":"GroundPlane",
			"translation":[
				0,
				-0.0009765625,
				0
			]
		},
		{
			"mesh":3,
			"name":"Bulb",
			"translation":[
				0,
				0.3700000047683716,
				1.2000000476837158
			]
		}
	],
	"cameras":[
		{
			"name":"Example View",
			"perspective":{
				"aspectRatio":1.7777777777777777,
				"yfov":0.6248278617858887,
				"zfar":200,
				"znear":0.009999999776482582
			},
			"type":"perspective"
		}
	],
	"materials":[
		{
			"extensions":{
				"KHR_materials_specular":{
					"specularColorFactor":[
						4.0,
						4.0,
						4.0
					]
				}
			},
			"name":"ConeBaseMat",
			"pbrMetallicRoughness":{
				"baseColorTexture":{
					"index":0
				},
				"metallicFactor":0,
				"metallicRoughnessTexture":{
					"index":1
				},
				"roughnessFactor":0.3499999940395355
			}
		},
		{
			"extensions":{
				"KHR_materials_retroreflection":{
					"retroreflectionFactor":1.0,
					"retroreflectionTexture":{
						"index":6,
						"texCoord":0
					}
				},
				"KHR_materials_specular":{
					"specularColorFactor":[
						4.0,
						4.0,
						4.0
					]
				}
			},
			"name":"ConeMatRetro",
			"pbrMetallicRoughness":{
				"baseColorTexture":{
					"index":2
				},
				"metallicFactor":0,
				"metallicRoughnessTexture":{
					"index":3
				},
				"roughnessFactor":0.3499999940395355
			}
		},
		{
			"doubleSided":true,
			"name":"Plane Material",
			"pbrMetallicRoughness":{
				"baseColorTexture":{
					"index":4
				},
				"metallicFactor":0.009999999776482582,
				"metallicRoughnessTexture":{
					"index":5
				}
			}
		},
		{
			"doubleSided":true,
			"extensions":{
				"KHR_materials_unlit":{}
			},
			"name":"BulbMaterial",
			"pbrMetallicRoughness":{
				"baseColorFactor":[
					0.8962642550468445,
					0.65837562084198,
					0.07036028802394867,
					1
				]
			}
		}
	],
	"meshes":[
		{
			"name":"ConeMesh",
			"primitives":[
				{
					"attributes":{
						"POSITION":0,
						"NORMAL":1,
						"TEXCOORD_0":2
					},
					"indices":3,
					"material":0
				}
			]
		},
		{
			"name":"ConeMesh",
			"primitives":[
				{
					"attributes":{
						"POSITION":0,
						"NORMAL":1,
						"TEXCOORD_0":2
					},
					"indices":3,
					"material":1
				}
			]
		},
		{
			"name":"Plane",
			"primitives":[
				{
					"attributes":{
						"POSITION":4,
						"NORMAL":5,
						"TEXCOORD_0":6
					},
					"indices":7,
					"material":2
				}
			]
		},
		{
			"name":"BulbMesh",
			"primitives":[
				{
					"attributes":{
						"POSITION":8,
						"NORMAL":9,
						"TEXCOORD_0":10
					},
					"indices":11,
					"material":3
				}
			]
		}
	],
	"textures":[
		{
			"sampler":0,
			"source":0
		},
		{
			"sampler":0,
			"source":1
		},
		{
			"sampler":0,
			"source":0
		},
		{
			"sampler":0,
			"source":1
		},
		{
			"sampler":0,
			"source":2
		},
		{
			"sampler":0,
			"source":3
		},
		{
			"sampler":0,
			"source":4
		}
	],
	"images":[
		{
			"mimeType":"image/png",
			"name":"ConeBaseMat_baseColor",
			"uri":"ConeBaseMat_baseColor.png"
		},
		{
			"mimeType":"image/png",
			"name":"ConeBaseMat_metallicRoughness",
			"uri":"ConeBaseMat_metallicRoughness.png"
		},
		{
			"mimeType":"image/jpeg",
			"name":"asphalt_02_diff_1k",
			"uri":"asphalt_02_diff_1k.jpg"
		},
		{
			"mimeType":"image/jpeg",
			"name":"asphalt_02_rough_1k",
			"uri":"asphalt_02_rough_1k.jpg"
		},
		{
			"mimeType":"image/png",
			"name":"Cone_Retro",
			"uri":"Cone_Retro.png"
		}
	],
	"accessors":[
		{
			"bufferView":0,
			"componentType":5126,
			"count":5171,
			"max":[
				0.2099796086549759,
				0.2099795639514923,
				0.518314778804779
			],
			"min":[
				-0.2099796086549759,
				-0.20997965335845947,
				-0.0005133152008056641
			],
			"type":"VEC3"
		},
		{
			"bufferView":1,
			"componentType":5126,
			"count":5171,
			"type":"VEC3"
		},
		{
			"bufferView":2,
			"componentType":5126,
			"count":5171,
			"type":"VEC2"
		},
		{
			"bufferView":3,
			"componentType":5123,
			"count":25536,
			"type":"SCALAR"
		},
		{
			"bufferView":4,
			"componentType":5126,
			"count":25,
			"max":[
				1.1814005374908447,
				0,
				1.1814004182815552
			],
			"min":[
				-1.181399941444397,
				0,
				-1.181399941444397
			],
			"type":"VEC3"
		},
		{
			"bufferView":5,
			"componentType":5126,
			"count":25,
			"type":"VEC3"
		},
		{
			"bufferView":6,
			"componentType":5126,
			"count":25,
			"type":"VEC2"
		},
		{
			"bufferView":7,
			"componentType":5123,
			"count":96,
			"type":"SCALAR"
		},
		{
			"bufferView":8,
			"componentType":5126,
			"count":172,
			"max":[
				0.05249999463558197,
				0.05250000208616257,
				5.097275046495042e-09
			],
			"min":[
				-0.05249999463558197,
				-0.12337672710418701,
				-1.0952012274856315e-07
			],
			"type":"VEC3"
		},
		{
			"bufferView":9,
			"componentType":5126,
			"count":172,
			"type":"VEC3"
		},
		{
			"bufferView":10,
			"componentType":5126,
			"count":172,
			"type":"VEC2"
		},
		{
			"bufferView":11,
			"componentType":5123,
			"count":504,
			"type":"SCALAR"
		}
	],
	"bufferViews":[
		{
			"buffer":0,
			"byteLength":62052,
			"byteOffset":0,
			"target":34962
		},
		{
			"buffer":0,
			"byteLength":62052,
			"byteOffset":62052,
			"target":34962
		},
		{
			"buffer":0,
			"byteLength":41368,
			"byteOffset":124104,
			"target":34962
		},
		{
			"buffer":0,
			"byteLength":51072,
			"byteOffset":165472,
			"target":34963
		},
		{
			"buffer":0,
			"byteLength":300,
			"byteOffset":216544,
			"target":34962
		},
		{
			"buffer":0,
			"byteLength":300,
			"byteOffset":216844,
			"target":34962
		},
		{
			"buffer":0,
			"byteLength":200,
			"byteOffset":217144,
			"target":34962
		},
		{
			"buffer":0,
			"byteLength":192,
			"byteOffset":217344,
			"target":34963
		},
		{
			"buffer":0,
			"byteLength":2064,
			"byteOffset":217536,
			"target":34962
		},
		{
			"buffer":0,
			"byteLength":2064,
			"byteOffset":219600,
			"target":34962
		},
		{
			"buffer":0,
			"byteLength":1376,
			"byteOffset":221664,
			"target":34962
		},
		{
			"buffer":0,
			"byteLength":1008,
			"byteOffset":223040,
			"target":34963
		}
	],
	"samplers":[
		{
			"magFilter":9729,
			"minFilter":9987
		}
	],
	"buffers":[
		{
			"byteLength":224048,
			"uri":"TrafficCone.bin"
		}
	]
}
