{
    "asset": {
        "copyright": "2025 (c) Adobe Inc., model by Vladimir Petkovic, CC0 1.0 Universal",
        "generator": "Adobe Substance 3D Stager - 14a015d2d34690a58f7151765a096baa71bff664",
        "version": "2.0",
        "extensions": {
            "KHR_xmp_json_ld": {
                "packet": 0
            }
        }
    },
    "accessors": [
        {
            "bufferView": 0,
            "componentType": 5126,
            "count": 97880,
            "type": "VEC3",
            "max": [
                0.32152682542800906,
                0.149470716714859,
                0.1745789349079132
            ],
            "min": [
                0.11736665666103363,
                -0.10330912470817566,
                -0.1647975742816925
            ]
        },
        {
            "bufferView": 1,
            "componentType": 5126,
            "count": 97880,
            "type": "VEC3"
        },
        {
            "bufferView": 2,
            "componentType": 5126,
            "count": 97880,
            "type": "VEC4"
        },
        {
            "bufferView": 3,
            "componentType": 5126,
            "count": 97880,
            "type": "VEC2"
        },
        {
            "bufferView": 4,
            "componentType": 5125,
            "count": 566613,
            "type": "SCALAR",
            "max": [
                97879.0
            ],
            "min": [
                0.0
            ]
        }
    ],
    "bufferViews": [
        {
            "buffer": 0,
            "byteOffset": 0,
            "byteLength": 1174560,
            "target": 34962
        },
        {
            "buffer": 0,
            "byteOffset": 1174560,
            "byteLength": 1174560,
            "target": 34962
        },
        {
            "buffer": 0,
            "byteOffset": 2349120,
            "byteLength": 1566080,
            "target": 34962
        },
        {
            "buffer": 0,
            "byteOffset": 3915200,
            "byteLength": 783040,
            "target": 34962
        },
        {
            "buffer": 0,
            "byteOffset": 4698240,
            "byteLength": 2266452,
            "target": 34963
        }
    ],
    "buffers": [
        {
            "byteLength": 6964692,
            "uri": "ScatteringSkull_binary.bin"
        }
    ],
    "images": [
        {
            "name": "AO-thickness",
            "uri": "ScatteringSkull_images/aoThickness.png",
            "mimeType": "image/png"
        }
    ],
    "materials": [
        {
            "pbrMetallicRoughness": {
                "metallicFactor": 0.0,
                "roughnessFactor": 0.5299999713897705
            },
            "occlusionTexture": {
                "index": 0
            },
            "name": "subsurface_material",
            "extensions": {
                "KHR_materials_transmission": {
                    "transmissionFactor": 1
                },
                "KHR_materials_dispersion": {
                    "dispersion": 0.5699999928474426
                },
                "KHR_materials_volume": {
                    "attenuationColor": [
                        0.3678794503211975,
                        0.4857314527034759,
                        0.3964099884033203
                    ],
                    "attenuationDistance": 0.016891848295927049,
                    "thicknessFactor": 1,
                    "thicknessTexture": {
                        "index": 0
                    }
                },
                "KHR_materials_volume_scatter": {
                    "multiscatterColor": [
                        0.16827136278152467,
                        0.5271198749542236,
                        0.5906253457069397
                    ]
                },
                "KHR_materials_ior": {
                    "ior": 1.3799999952316285
                }
            }
        }
    ],
    "meshes": [
        {
            "name": "Group54598_n3d2",
            "primitives": [
                {
                    "attributes": {
                        "POSITION": 0,
                        "NORMAL": 1,
                        "TANGENT": 2,
                        "TEXCOORD_0": 3
                    },
                    "indices": 4,
                    "material": 0
                }
            ]
        }
    ],
    "nodes": [
        {
            "translation": [
                -0.2194467931985855,
                0.10330919921398163,
                -0.004890651907771826
            ],
            "mesh": 0,
            "name": "Skull"
        }
    ],
    "samplers": [
        {}
    ],
    "scenes": [
        {
            "nodes": [
                0
            ],
            "name": "scene"
        }
    ],
    "textures": [
        {
            "name": "aoThicknessTexture",
            "sampler": 0,
            "source": 0
        }
    ],
    "scene": 0,
    "extensions": {
        "KHR_xmp_json_ld": {
            "packets": [
                {
                    "@context": {
                        "dc": "http://purl.org/dc/elements/1.1/"
                    },
                    "dc:date": "2025-02-10T21:00:11.896Z",
                    "dc:title": "Skattering Skull",
                    "dc:creator": "Vladimir Petkovic",
                    "xmp:CreatorTool": "Adobe Substance 3D Stager"
                }
            ]
        }
    },
    "extensionsUsed": [
        "KHR_xmp_json_ld",
        "KHR_materials_transmission",
        "KHR_materials_volume",
        "KHR_materials_dispersion",
        "KHR_materials_volume_scatter",
        "KHR_materials_ior"
    ]
}