{
    "asset": {
        "copyright": "2024 (c) Adobe Inc.",
        "generator": "Adobe Substance 3D Stager - 14a015d2d34690a58f7151765a096baa71bff664",
        "version": "2.0",
        "extensions": {
            "KHR_xmp_json_ld": {
                "packet": 0
            }
        }
    },
    "accessors": [
        {
            "bufferView": 0,
            "componentType": 5126,
            "count": 97880,
            "type": "VEC3",
            "max": [
                0.32152682542800906,
                0.149470716714859,
                0.1745789349079132
            ],
            "min": [
                0.11736665666103363,
                -0.10330912470817566,
                -0.1647975742816925
            ]
        },
        {
            "bufferView": 1,
            "componentType": 5126,
            "count": 97880,
            "type": "VEC3"
        },
        {
            "bufferView": 2,
            "componentType": 5126,
            "count": 97880,
            "type": "VEC4"
        },
        {
            "bufferView": 3,
            "componentType": 5126,
            "count": 97880,
            "type": "VEC2"
        },
        {
            "bufferView": 4,
            "componentType": 5125,
            "count": 566613,
            "type": "SCALAR",
            "max": [
                97879.0
            ],
            "min": [
                0.0
            ]
        }
    ],
    "bufferViews": [
        {
            "buffer": 0,
            "byteOffset": 0,
            "byteLength": 1174560,
            "target": 34962
        },
        {
            "buffer": 0,
            "byteOffset": 1174560,
            "byteLength": 1174560,
            "target": 34962
        },
        {
            "buffer": 0,
            "byteOffset": 2349120,
            "byteLength": 1566080,
            "target": 34962
        },
        {
            "buffer": 0,
            "byteOffset": 3915200,
            "byteLength": 783040,
            "target": 34962
        },
        {
            "buffer": 0,
            "byteOffset": 4698240,
            "byteLength": 2266452,
            "target": 34963
        }
    ],
    "buffers": [
        {
            "byteLength": 6964692,
            "uri": "skull_binary.bin"
        }
    ],
    "images": [
        {
            "name": "texture15191",
            "uri": "skull_images/texture15191.png",
            "mimeType": "image/png"
        },
        {
            "name": "texture15306",
            "uri": "skull_images/texture15306.png",
            "mimeType": "image/png"
        }
    ],
    "materials": [
        {
            "pbrMetallicRoughness": {
                "metallicFactor": 0.0,
                "roughnessFactor": 0.5299999713897705
            },
            "occlusionTexture": {
                "index": 0
            },
            "name": "subsurface_material",
            "extensions": {
                "KHR_materials_transmission": {
                    "transmissionFactor": 1
                },
                "KHR_materials_dispersion": {
                    "dispersion": 0.5699999928474426
                },
                "KHR_materials_volume": {
                    "attenuationColor": [
                        0.30871814489364626,
                        0.8661739230155946,
                        0.8817613124847413
                    ],
                    "attenuationDistance": 0.01925305277109146,
                    "thicknessFactor": 1,
                    "thicknessTexture": {
                        "index": 1
                    }
                },
                "KHR_materials_volume_scatter": {
                    "multiscatterColor": [
                        0.6293458938598633,
                        0.7606422305107117,
                        1
                    ]
                },
                "KHR_materials_ior": {
                    "ior": 1.3799999952316285
                }
            }
        }
    ],
    "meshes": [
        {
            "name": "Group54598_n3d2",
            "primitives": [
                {
                    "attributes": {
                        "POSITION": 0,
                        "NORMAL": 1,
                        "TANGENT": 2,
                        "TEXCOORD_0": 3
                    },
                    "indices": 4,
                    "material": 0
                }
            ]
        }
    ],
    "nodes": [
        {
            "name": "working_cam_n3d"
        },
        {
            "translation": [
                -0.21944674849510194,
                0.10330915451049805,
                -0.0048906514421105389
            ],
            "mesh": 0,
            "name": "Skull"
        }
    ],
    "samplers": [
        {}
    ],
    "scenes": [
        {
            "nodes": [
                1
            ],
            "name": "scene"
        }
    ],
    "textures": [
        {
            "name": "texture15191",
            "sampler": 0,
            "source": 0
        },
        {
            "name": "texture15306",
            "sampler": 0,
            "source": 1
        }
    ],
    "scene": 0,
    "extensions": {
        "KHR_xmp_json_ld": {
            "packets": [
                {
                    "@context": {
                        "dc": "http://purl.org/dc/elements/1.1/"
                    },
                    "dc:date": "2025-02-10T21:00:11.896Z",
                    "dc:title": "skull.ssg",
                    "xmp:CreatorTool": "Adobe Substance 3D Stager"
                }
            ]
        }
    },
    "extensionsUsed": [
        "KHR_xmp_json_ld",
        "KHR_materials_transmission",
        "KHR_materials_volume",
        "KHR_materials_dispersion",
        "KHR_materials_volume_scatter",
        "KHR_materials_ior"
    ]
}