{
    "asset" : {
        "generator" : "Khronos glTF Blender I/O v3.2.43",
        "version" : "2.0"
    },
    "scene" : 0,
    "scenes" : [
        {
            "name" : "Scene",
            "nodes" : [
                0
            ]
        }
    ],
    "nodes" : [
        {
            "mesh" : 0,
            "name" : "Cube.003",
            "translation" : [
                0,
                0,
                10
            ]
        }
    ],
    "meshes" : [
        {
            "name" : "Cube.003",
            "primitives" : [
                {
                    "attributes" : {
                        "POSITION" : 0,
                        "NORMAL" : 1,
                        "TEXCOORD_0" : 2,
                        "TEXCOORD_1" : 3
                    },
                    "indices" : 4
                }
            ]
        }
    ],
    "accessors" : [
        {
            "bufferView" : 0,
            "componentType" : 5126,
            "count" : 1920,
            "max" : [
                3,
                3,
                -7
            ],
            "min" : [
                -3,
                -3,
                -13
            ],
            "type" : "VEC3"
        },
        {
            "bufferView" : 1,
            "componentType" : 5126,
            "count" : 1920,
            "type" : "VEC3"
        },
        {
            "bufferView" : 2,
            "componentType" : 5126,
            "count" : 1920,
            "type" : "VEC2"
        },
        {
            "bufferView" : 3,
            "componentType" : 5126,
            "count" : 1920,
            "type" : "VEC2"
        },
        {
            "bufferView" : 4,
            "componentType" : 5123,
            "count" : 2868,
            "type" : "SCALAR"
        }
    ],
    "bufferViews" : [
        {
            "buffer" : 0,
            "byteLength" : 23040,
            "byteOffset" : 0,
            "target": 34962
        },
        {
            "buffer" : 0,
            "byteLength" : 23040,
            "byteOffset" : 23040,
            "target": 34962
        },
        {
            "buffer" : 0,
            "byteLength" : 15360,
            "byteOffset" : 46080,
            "target": 34962
        },
        {
            "buffer" : 0,
            "byteLength" : 15360,
            "byteOffset" : 61440,
            "target": 34962
        },
        {
            "buffer" : 0,
            "byteLength" : 5736,
            "byteOffset" : 76800,
            "target": 34963
        }
    ],
    "buffers" : [
        {
            "byteLength" : 82536,
            "uri" : "data:application/octet-stream;base64,"
        }
    ]
}
