{
  "asset": {
    "version": "2.0",
    "generator": "DisplayXR model viewer, scripts/make_khronos_conformance_assets.py"
  },
  "extensionsUsed": [
    "KHR_materials_diffuse_roughness"
  ],
  "scene": 0,
  "scenes": [
    {
      "name": "DiffuseRoughnessParameterSweep",
      "nodes": [
        0,
        1,
        2,
        3,
        4,
        5,
        6,
        7,
        8,
        9,
        10,
        11,
        12,
        13,
        14,
        15,
        16,
        17,
        18,
        19,
        20,
        21,
        22,
        23
      ]
    }
  ],
  "nodes": [
    {
      "name": "00_albedo_control_0.00",
      "mesh": 0,
      "translation": [
        -3.5,
        1.0,
        0.0
      ]
    },
    {
      "name": "00_albedo_control_0.14",
      "mesh": 1,
      "translation": [
        -2.5,
        1.0,
        0.0
      ]
    },
    {
      "name": "00_albedo_control_0.29",
      "mesh": 2,
      "translation": [
        -1.5,
        1.0,
        0.0
      ]
    },
    {
      "name": "00_albedo_control_0.43",
      "mesh": 3,
      "translation": [
        -0.5,
        1.0,
        0.0
      ]
    },
    {
      "name": "00_albedo_control_0.57",
      "mesh": 4,
      "translation": [
        0.5,
        1.0,
        0.0
      ]
    },
    {
      "name": "00_albedo_control_0.71",
      "mesh": 5,
      "translation": [
        1.5,
        1.0,
        0.0
      ]
    },
    {
      "name": "00_albedo_control_0.86",
      "mesh": 6,
      "translation": [
        2.5,
        1.0,
        0.0
      ]
    },
    {
      "name": "00_albedo_control_1.00",
      "mesh": 7,
      "translation": [
        3.5,
        1.0,
        0.0
      ]
    },
    {
      "name": "01_diffuse_matte_0.00",
      "mesh": 8,
      "translation": [
        -3.5,
        0.0,
        0.0
      ]
    },
    {
      "name": "01_diffuse_matte_0.14",
      "mesh": 9,
      "translation": [
        -2.5,
        0.0,
        0.0
      ]
    },
    {
      "name": "01_diffuse_matte_0.29",
      "mesh": 10,
      "translation": [
        -1.5,
        0.0,
        0.0
      ]
    },
    {
      "name": "01_diffuse_matte_0.43",
      "mesh": 11,
      "translation": [
        -0.5,
        0.0,
        0.0
      ]
    },
    {
      "name": "01_diffuse_matte_0.57",
      "mesh": 12,
      "translation": [
        0.5,
        0.0,
        0.0
      ]
    },
    {
      "name": "01_diffuse_matte_0.71",
      "mesh": 13,
      "translation": [
        1.5,
        0.0,
        0.0
      ]
    },
    {
      "name": "01_diffuse_matte_0.86",
      "mesh": 14,
      "translation": [
        2.5,
        0.0,
        0.0
      ]
    },
    {
      "name": "01_diffuse_matte_1.00",
      "mesh": 15,
      "translation": [
        3.5,
        0.0,
        0.0
      ]
    },
    {
      "name": "02_diffuse_gloss_0.00",
      "mesh": 16,
      "translation": [
        -3.5,
        -1.0,
        0.0
      ]
    },
    {
      "name": "02_diffuse_gloss_0.14",
      "mesh": 17,
      "translation": [
        -2.5,
        -1.0,
        0.0
      ]
    },
    {
      "name": "02_diffuse_gloss_0.29",
      "mesh": 18,
      "translation": [
        -1.5,
        -1.0,
        0.0
      ]
    },
    {
      "name": "02_diffuse_gloss_0.43",
      "mesh": 19,
      "translation": [
        -0.5,
        -1.0,
        0.0
      ]
    },
    {
      "name": "02_diffuse_gloss_0.57",
      "mesh": 20,
      "translation": [
        0.5,
        -1.0,
        0.0
      ]
    },
    {
      "name": "02_diffuse_gloss_0.71",
      "mesh": 21,
      "translation": [
        1.5,
        -1.0,
        0.0
      ]
    },
    {
      "name": "02_diffuse_gloss_0.86",
      "mesh": 22,
      "translation": [
        2.5,
        -1.0,
        0.0
      ]
    },
    {
      "name": "02_diffuse_gloss_1.00",
      "mesh": 23,
      "translation": [
        3.5,
        -1.0,
        0.0
      ]
    }
  ],
  "meshes": [
    {
      "name": "00_albedo_control_0.00",
      "primitives": [
        {
          "attributes": {
            "POSITION": 0,
            "NORMAL": 1
          },
          "indices": 2,
          "material": 0
        }
      ]
    },
    {
      "name": "00_albedo_control_0.14",
      "primitives": [
        {
          "attributes": {
            "POSITION": 0,
            "NORMAL": 1
          },
          "indices": 2,
          "material": 1
        }
      ]
    },
    {
      "name": "00_albedo_control_0.29",
      "primitives": [
        {
          "attributes": {
            "POSITION": 0,
            "NORMAL": 1
          },
          "indices": 2,
          "material": 2
        }
      ]
    },
    {
      "name": "00_albedo_control_0.43",
      "primitives": [
        {
          "attributes": {
            "POSITION": 0,
            "NORMAL": 1
          },
          "indices": 2,
          "material": 3
        }
      ]
    },
    {
      "name": "00_albedo_control_0.57",
      "primitives": [
        {
          "attributes": {
            "POSITION": 0,
            "NORMAL": 1
          },
          "indices": 2,
          "material": 4
        }
      ]
    },
    {
      "name": "00_albedo_control_0.71",
      "primitives": [
        {
          "attributes": {
            "POSITION": 0,
            "NORMAL": 1
          },
          "indices": 2,
          "material": 5
        }
      ]
    },
    {
      "name": "00_albedo_control_0.86",
      "primitives": [
        {
          "attributes": {
            "POSITION": 0,
            "NORMAL": 1
          },
          "indices": 2,
          "material": 6
        }
      ]
    },
    {
      "name": "00_albedo_control_1.00",
      "primitives": [
        {
          "attributes": {
            "POSITION": 0,
            "NORMAL": 1
          },
          "indices": 2,
          "material": 7
        }
      ]
    },
    {
      "name": "01_diffuse_matte_0.00",
      "primitives": [
        {
          "attributes": {
            "POSITION": 0,
            "NORMAL": 1
          },
          "indices": 2,
          "material": 8
        }
      ]
    },
    {
      "name": "01_diffuse_matte_0.14",
      "primitives": [
        {
          "attributes": {
            "POSITION": 0,
            "NORMAL": 1
          },
          "indices": 2,
          "material": 9
        }
      ]
    },
    {
      "name": "01_diffuse_matte_0.29",
      "primitives": [
        {
          "attributes": {
            "POSITION": 0,
            "NORMAL": 1
          },
          "indices": 2,
          "material": 10
        }
      ]
    },
    {
      "name": "01_diffuse_matte_0.43",
      "primitives": [
        {
          "attributes": {
            "POSITION": 0,
            "NORMAL": 1
          },
          "indices": 2,
          "material": 11
        }
      ]
    },
    {
      "name": "01_diffuse_matte_0.57",
      "primitives": [
        {
          "attributes": {
            "POSITION": 0,
            "NORMAL": 1
          },
          "indices": 2,
          "material": 12
        }
      ]
    },
    {
      "name": "01_diffuse_matte_0.71",
      "primitives": [
        {
          "attributes": {
            "POSITION": 0,
            "NORMAL": 1
          },
          "indices": 2,
          "material": 13
        }
      ]
    },
    {
      "name": "01_diffuse_matte_0.86",
      "primitives": [
        {
          "attributes": {
            "POSITION": 0,
            "NORMAL": 1
          },
          "indices": 2,
          "material": 14
        }
      ]
    },
    {
      "name": "01_diffuse_matte_1.00",
      "primitives": [
        {
          "attributes": {
            "POSITION": 0,
            "NORMAL": 1
          },
          "indices": 2,
          "material": 15
        }
      ]
    },
    {
      "name": "02_diffuse_gloss_0.00",
      "primitives": [
        {
          "attributes": {
            "POSITION": 0,
            "NORMAL": 1
          },
          "indices": 2,
          "material": 16
        }
      ]
    },
    {
      "name": "02_diffuse_gloss_0.14",
      "primitives": [
        {
          "attributes": {
            "POSITION": 0,
            "NORMAL": 1
          },
          "indices": 2,
          "material": 17
        }
      ]
    },
    {
      "name": "02_diffuse_gloss_0.29",
      "primitives": [
        {
          "attributes": {
            "POSITION": 0,
            "NORMAL": 1
          },
          "indices": 2,
          "material": 18
        }
      ]
    },
    {
      "name": "02_diffuse_gloss_0.43",
      "primitives": [
        {
          "attributes": {
            "POSITION": 0,
            "NORMAL": 1
          },
          "indices": 2,
          "material": 19
        }
      ]
    },
    {
      "name": "02_diffuse_gloss_0.57",
      "primitives": [
        {
          "attributes": {
            "POSITION": 0,
            "NORMAL": 1
          },
          "indices": 2,
          "material": 20
        }
      ]
    },
    {
      "name": "02_diffuse_gloss_0.71",
      "primitives": [
        {
          "attributes": {
            "POSITION": 0,
            "NORMAL": 1
          },
          "indices": 2,
          "material": 21
        }
      ]
    },
    {
      "name": "02_diffuse_gloss_0.86",
      "primitives": [
        {
          "attributes": {
            "POSITION": 0,
            "NORMAL": 1
          },
          "indices": 2,
          "material": 22
        }
      ]
    },
    {
      "name": "02_diffuse_gloss_1.00",
      "primitives": [
        {
          "attributes": {
            "POSITION": 0,
            "NORMAL": 1
          },
          "indices": 2,
          "material": 23
        }
      ]
    }
  ],
  "materials": [
    {
      "pbrMetallicRoughness": {
        "baseColorFactor": [
          0.12,
          0.1,
          0.09,
          1.0
        ],
        "metallicFactor": 0.0,
        "roughnessFactor": 0.95
      },
      "name": "00_albedo_control_0.00"
    },
    {
      "pbrMetallicRoughness": {
        "baseColorFactor": [
          0.12,
          0.1,
          0.09,
          1.0
        ],
        "metallicFactor": 0.0,
        "roughnessFactor": 0.95
      },
      "extensions": {
        "KHR_materials_diffuse_roughness": {
          "diffuseRoughnessFactor": 1.0
        }
      },
      "name": "00_albedo_control_0.14"
    },
    {
      "pbrMetallicRoughness": {
        "baseColorFactor": [
          0.28,
          0.2,
          0.16,
          1.0
        ],
        "metallicFactor": 0.0,
        "roughnessFactor": 0.95
      },
      "name": "00_albedo_control_0.29"
    },
    {
      "pbrMetallicRoughness": {
        "baseColorFactor": [
          0.28,
          0.2,
          0.16,
          1.0
        ],
        "metallicFactor": 0.0,
        "roughnessFactor": 0.95
      },
      "extensions": {
        "KHR_materials_diffuse_roughness": {
          "diffuseRoughnessFactor": 1.0
        }
      },
      "name": "00_albedo_control_0.43"
    },
    {
      "pbrMetallicRoughness": {
        "baseColorFactor": [
          0.45,
          0.28,
          0.21,
          1.0
        ],
        "metallicFactor": 0.0,
        "roughnessFactor": 0.95
      },
      "name": "00_albedo_control_0.57"
    },
    {
      "pbrMetallicRoughness": {
        "baseColorFactor": [
          0.45,
          0.28,
          0.21,
          1.0
        ],
        "metallicFactor": 0.0,
        "roughnessFactor": 0.95
      },
      "extensions": {
        "KHR_materials_diffuse_roughness": {
          "diffuseRoughnessFactor": 1.0
        }
      },
      "name": "00_albedo_control_0.71"
    },
    {
      "pbrMetallicRoughness": {
        "baseColorFactor": [
          0.72,
          0.6,
          0.52,
          1.0
        ],
        "metallicFactor": 0.0,
        "roughnessFactor": 0.95
      },
      "name": "00_albedo_control_0.86"
    },
    {
      "pbrMetallicRoughness": {
        "baseColorFactor": [
          0.72,
          0.6,
          0.52,
          1.0
        ],
        "metallicFactor": 0.0,
        "roughnessFactor": 0.95
      },
      "extensions": {
        "KHR_materials_diffuse_roughness": {
          "diffuseRoughnessFactor": 1.0
        }
      },
      "name": "00_albedo_control_1.00"
    },
    {
      "pbrMetallicRoughness": {
        "baseColorFactor": [
          0.45,
          0.28,
          0.21,
          1.0
        ],
        "metallicFactor": 0.0,
        "roughnessFactor": 0.95
      },
      "extensions": {
        "KHR_materials_diffuse_roughness": {
          "diffuseRoughnessFactor": 0.0
        }
      },
      "name": "01_diffuse_matte_0.00"
    },
    {
      "pbrMetallicRoughness": {
        "baseColorFactor": [
          0.45,
          0.28,
          0.21,
          1.0
        ],
        "metallicFactor": 0.0,
        "roughnessFactor": 0.95
      },
      "extensions": {
        "KHR_materials_diffuse_roughness": {
          "diffuseRoughnessFactor": 0.14285714285714285
        }
      },
      "name": "01_diffuse_matte_0.14"
    },
    {
      "pbrMetallicRoughness": {
        "baseColorFactor": [
          0.45,
          0.28,
          0.21,
          1.0
        ],
        "metallicFactor": 0.0,
        "roughnessFactor": 0.95
      },
      "extensions": {
        "KHR_materials_diffuse_roughness": {
          "diffuseRoughnessFactor": 0.2857142857142857
        }
      },
      "name": "01_diffuse_matte_0.29"
    },
    {
      "pbrMetallicRoughness": {
        "baseColorFactor": [
          0.45,
          0.28,
          0.21,
          1.0
        ],
        "metallicFactor": 0.0,
        "roughnessFactor": 0.95
      },
      "extensions": {
        "KHR_materials_diffuse_roughness": {
          "diffuseRoughnessFactor": 0.42857142857142855
        }
      },
      "name": "01_diffuse_matte_0.43"
    },
    {
      "pbrMetallicRoughness": {
        "baseColorFactor": [
          0.45,
          0.28,
          0.21,
          1.0
        ],
        "metallicFactor": 0.0,
        "roughnessFactor": 0.95
      },
      "extensions": {
        "KHR_materials_diffuse_roughness": {
          "diffuseRoughnessFactor": 0.5714285714285714
        }
      },
      "name": "01_diffuse_matte_0.57"
    },
    {
      "pbrMetallicRoughness": {
        "baseColorFactor": [
          0.45,
          0.28,
          0.21,
          1.0
        ],
        "metallicFactor": 0.0,
        "roughnessFactor": 0.95
      },
      "extensions": {
        "KHR_materials_diffuse_roughness": {
          "diffuseRoughnessFactor": 0.7142857142857143
        }
      },
      "name": "01_diffuse_matte_0.71"
    },
    {
      "pbrMetallicRoughness": {
        "baseColorFactor": [
          0.45,
          0.28,
          0.21,
          1.0
        ],
        "metallicFactor": 0.0,
        "roughnessFactor": 0.95
      },
      "extensions": {
        "KHR_materials_diffuse_roughness": {
          "diffuseRoughnessFactor": 0.8571428571428571
        }
      },
      "name": "01_diffuse_matte_0.86"
    },
    {
      "pbrMetallicRoughness": {
        "baseColorFactor": [
          0.45,
          0.28,
          0.21,
          1.0
        ],
        "metallicFactor": 0.0,
        "roughnessFactor": 0.95
      },
      "extensions": {
        "KHR_materials_diffuse_roughness": {
          "diffuseRoughnessFactor": 1.0
        }
      },
      "name": "01_diffuse_matte_1.00"
    },
    {
      "pbrMetallicRoughness": {
        "baseColorFactor": [
          0.45,
          0.28,
          0.21,
          1.0
        ],
        "metallicFactor": 0.0,
        "roughnessFactor": 0.35
      },
      "extensions": {
        "KHR_materials_diffuse_roughness": {
          "diffuseRoughnessFactor": 0.0
        }
      },
      "name": "02_diffuse_gloss_0.00"
    },
    {
      "pbrMetallicRoughness": {
        "baseColorFactor": [
          0.45,
          0.28,
          0.21,
          1.0
        ],
        "metallicFactor": 0.0,
        "roughnessFactor": 0.35
      },
      "extensions": {
        "KHR_materials_diffuse_roughness": {
          "diffuseRoughnessFactor": 0.14285714285714285
        }
      },
      "name": "02_diffuse_gloss_0.14"
    },
    {
      "pbrMetallicRoughness": {
        "baseColorFactor": [
          0.45,
          0.28,
          0.21,
          1.0
        ],
        "metallicFactor": 0.0,
        "roughnessFactor": 0.35
      },
      "extensions": {
        "KHR_materials_diffuse_roughness": {
          "diffuseRoughnessFactor": 0.2857142857142857
        }
      },
      "name": "02_diffuse_gloss_0.29"
    },
    {
      "pbrMetallicRoughness": {
        "baseColorFactor": [
          0.45,
          0.28,
          0.21,
          1.0
        ],
        "metallicFactor": 0.0,
        "roughnessFactor": 0.35
      },
      "extensions": {
        "KHR_materials_diffuse_roughness": {
          "diffuseRoughnessFactor": 0.42857142857142855
        }
      },
      "name": "02_diffuse_gloss_0.43"
    },
    {
      "pbrMetallicRoughness": {
        "baseColorFactor": [
          0.45,
          0.28,
          0.21,
          1.0
        ],
        "metallicFactor": 0.0,
        "roughnessFactor": 0.35
      },
      "extensions": {
        "KHR_materials_diffuse_roughness": {
          "diffuseRoughnessFactor": 0.5714285714285714
        }
      },
      "name": "02_diffuse_gloss_0.57"
    },
    {
      "pbrMetallicRoughness": {
        "baseColorFactor": [
          0.45,
          0.28,
          0.21,
          1.0
        ],
        "metallicFactor": 0.0,
        "roughnessFactor": 0.35
      },
      "extensions": {
        "KHR_materials_diffuse_roughness": {
          "diffuseRoughnessFactor": 0.7142857142857143
        }
      },
      "name": "02_diffuse_gloss_0.71"
    },
    {
      "pbrMetallicRoughness": {
        "baseColorFactor": [
          0.45,
          0.28,
          0.21,
          1.0
        ],
        "metallicFactor": 0.0,
        "roughnessFactor": 0.35
      },
      "extensions": {
        "KHR_materials_diffuse_roughness": {
          "diffuseRoughnessFactor": 0.8571428571428571
        }
      },
      "name": "02_diffuse_gloss_0.86"
    },
    {
      "pbrMetallicRoughness": {
        "baseColorFactor": [
          0.45,
          0.28,
          0.21,
          1.0
        ],
        "metallicFactor": 0.0,
        "roughnessFactor": 0.35
      },
      "extensions": {
        "KHR_materials_diffuse_roughness": {
          "diffuseRoughnessFactor": 1.0
        }
      },
      "name": "02_diffuse_gloss_1.00"
    }
  ],
  "accessors": [
    {
      "bufferView": 0,
      "componentType": 5126,
      "count": 1617,
      "type": "VEC3",
      "min": [
        -0.45,
        -0.45,
        -0.45
      ],
      "max": [
        0.45,
        0.45,
        0.45
      ]
    },
    {
      "bufferView": 1,
      "componentType": 5126,
      "count": 1617,
      "type": "VEC3"
    },
    {
      "bufferView": 2,
      "componentType": 5123,
      "count": 9216,
      "type": "SCALAR"
    }
  ],
  "bufferViews": [
    {
      "buffer": 0,
      "byteOffset": 0,
      "byteLength": 19404,
      "target": 34962
    },
    {
      "buffer": 0,
      "byteOffset": 19404,
      "byteLength": 19404,
      "target": 34962
    },
    {
      "buffer": 0,
      "byteOffset": 38808,
      "byteLength": 18432,
      "target": 34963
    }
  ],
  "buffers": [
    {
      "byteLength": 57240,
      "uri": "DiffuseRoughnessParameterSweep.bin"
    }
  ]
}
