{
    "asset":{
        "copyright":"The dragon model is copyright 1996 Stanford University.  Cloth backdrop CC0 by Adobe Inc.",
        "generator":"Khronos glTF Blender I/O v3.6.27",
        "version":"2.0"
    },
    "extensionsUsed":[
        "KHR_materials_transmission",
        "KHR_materials_volume",
        "KHR_materials_dispersion",
        "KHR_materials_ior"
    ],
    "scene":0,
    "scenes":[
        {
            "name":"Scene",
            "nodes":[
                0,
                1
            ]
        }
    ],
    "nodes":[
        {
            "mesh":0,
            "name":"Dragon",
            "rotation":[
                0.70710688829422,
                0,
                0,
                0.7071066498756409
            ],
            "scale":[
                0.25,
                0.2500000298023224,
                0.2500000298023224
            ],
            "translation":[
                0,
                -0.7306479811668396,
                0
            ]
        },
        {
            "mesh":1,
            "name":"Cloth Backdrop",
            "scale":[
                3.5,
                3.5,
                3.5
            ],
            "translation":[
                0,
                -0.4873831272125244,
                0
            ]
        }
    ],
    "materials":[
        {
            "doubleSided":false,
            "extensions":{
                "KHR_materials_transmission":{
                    "transmissionFactor":1
                },
                "KHR_materials_volume":{
                    "attenuationColor":[
                        0.75,
                        0.8,
                        0.82
                    ],
                    "attenuationDistance":0.1549999988913536,
                    "thicknessFactor":2.2699999809265137,
                    "thicknessTexture":{
                        "index":0
                    }
                },
                "KHR_materials_dispersion": {
                    "dispersion": 2.04
                },
                "KHR_materials_ior": {
                    "ior": 1.75
                }
            },
            "name":"Dragon with Attenuation",
            "pbrMetallicRoughness":{
                "metallicFactor":0,
                "roughnessFactor":0
            }
        },
        {
            "name":"Cloth Backdrop",
            "pbrMetallicRoughness":{
                "baseColorTexture":{
                    "index":1
                },
                "metallicFactor":0,
                "roughnessFactor":0.4934999942779541
            }
        }
    ],
    "meshes":[
        {
            "name":"Dragon",
            "primitives":[
                {
                    "attributes":{
                        "POSITION":0,
                        "NORMAL":1,
                        "TEXCOORD_0":2
                    },
                    "indices":3,
                    "material":0
                }
            ]
        },
        {
            "name":"Cloth Backdrop",
            "primitives":[
                {
                    "attributes":{
                        "POSITION":4,
                        "NORMAL":5,
                        "TEXCOORD_0":6
                    },
                    "indices":7,
                    "material":1
                }
            ]
        }
    ],
    "textures":[
        {
            "sampler":0,
            "source":0
        },
        {
            "sampler":0,
            "source":1
        }
    ],
    "images":[
        {
            "mimeType":"image/jpeg",
            "name":"Dragon_ThicknessMap",
            "uri":"Dragon_ThicknessMap.jpg"
        },
        {
            "mimeType":"image/png",
            "name":"CheckerWithLines",
            "uri":"CheckerWithLines.png"
        }
    ],
    "accessors":[
        {
            "bufferView":0,
            "componentType":5126,
            "count":76809,
            "max":[
                7.0467000007629395,
                3.1512999534606934,
                0
            ],
            "min":[
                -7.0467000007629395,
                -3.1512999534606934,
                -9.939900398254395
            ],
            "type":"VEC3"
        },
        {
            "bufferView":1,
            "componentType":5126,
            "count":76809,
            "type":"VEC3"
        },
        {
            "bufferView":2,
            "componentType":5126,
            "count":76809,
            "type":"VEC2"
        },
        {
            "bufferView":3,
            "componentType":5125,
            "count":273648,
            "type":"SCALAR"
        },
        {
            "bufferView":4,
            "componentType":5126,
            "count":62640,
            "max":[
                0.9367440342903137,
                0.9221298694610596,
                1.3796980381011963
            ],
            "min":[
                -0.8658662438392639,
                -0.09841562807559967,
                -0.5093139410018921
            ],
            "type":"VEC3"
        },
        {
            "bufferView":5,
            "componentType":5126,
            "count":62640,
            "type":"VEC3"
        },
        {
            "bufferView":6,
            "componentType":5126,
            "count":62640,
            "type":"VEC2"
        },
        {
            "bufferView":7,
            "componentType":5123,
            "count":131337,
            "type":"SCALAR"
        }
    ],
    "bufferViews":[
        {
            "buffer":0,
            "byteLength":921708,
            "byteOffset":0,
            "target":34962
        },
        {
            "buffer":0,
            "byteLength":921708,
            "byteOffset":921708,
            "target":34962
        },
        {
            "buffer":0,
            "byteLength":614472,
            "byteOffset":1843416,
            "target":34962
        },
        {
            "buffer":0,
            "byteLength":1094592,
            "byteOffset":2457888,
            "target":34963
        },
        {
            "buffer":0,
            "byteLength":751680,
            "byteOffset":3552480,
            "target":34962
        },
        {
            "buffer":0,
            "byteLength":751680,
            "byteOffset":4304160,
            "target":34962
        },
        {
            "buffer":0,
            "byteLength":501120,
            "byteOffset":5055840,
            "target":34962
        },
        {
            "buffer":0,
            "byteLength":262674,
            "byteOffset":5556960,
            "target":34963
        }
    ],
    "samplers":[
        {
            "magFilter":9729,
            "minFilter":9987
        }
    ],
    "buffers":[
        {
            "byteLength":5819636,
            "uri":"DragonDispersion.bin"
        }
    ]
}
