{
  "asset": {
    "version": "2.0",
    "copyright": "Asset created by Eric Chadwick, CC BY 4.0 International. Khronos logo is © 2015, Khronos Group.",
    "generator": "Created in 3ds Max 2024 with V-Ray 6, exported with Autodesk glTF exporter, edited in Visual Studio Code with glTF Tools."
  },
  "extensionsUsed": [
    "KHR_materials_volume",
    "KHR_materials_transmission",
    "KHR_materials_dispersion"
  ],
  "materials": [
    {
      "name": "KhronieAward_Clear_Glass",
      "extensions": {
        "KHR_materials_transmission": {
          "transmissionFactor": 1.0
        },
        "KHR_materials_volume": {
          "thicknessFactor": 0.01,
          "thicknessTexture": {
            "index": 2
          },
          "attenuationColor": [
            0.95,
            1,
            1
          ],
          "attenuationDistance": 0.005
        },
        "KHR_materials_dispersion": {
          "dispersion": 0.33
        }
      },
      "pbrMetallicRoughness": {
        "metallicFactor": 0.0,
        "roughnessFactor": 0.0
      }
    },
    {
      "name": "KhronieAward_Smoked_Glass",
      "extensions": {
        "KHR_materials_transmission": {
          "transmissionFactor": 1.0
        },
        "KHR_materials_volume": {
          "thicknessFactor": 0.01,
          "thicknessTexture": {
            "index": 2
          },
          "attenuationColor": [
            0.95,
            1,
            1
          ],
          "attenuationDistance": 0.005
        },
        "KHR_materials_dispersion": {
          "dispersion": 0.33
        }
      },
      "pbrMetallicRoughness": {
        "baseColorFactor": [
          0.3,
          0.3,
          0.3,
          1.0
        ],
        "metallicFactor": 0.0,
        "roughnessFactor": 0.0
      }
    },
    {
      "name": "KhronieAward_Text_Rear",
      "alphaMode": "MASK",
      "extensions": {
        "KHR_materials_transmission": {
          "transmissionFactor": 0.5
        }
      },
      "normalTexture": {
        "index": 1
      },
      "pbrMetallicRoughness": {
        "baseColorFactor": [
          0.5,
          0.5,
          0.5,
          1
        ],
        "baseColorTexture": {
          "index": 0
        },
        "metallicFactor": 0.0,
        "roughnessFactor": 1.0
      }
    },
    {
      "name": "KhronieAward_Text_Front",
      "alphaMode": "MASK",
      "normalTexture": {
        "index": 1
      },
      "pbrMetallicRoughness": {
        "baseColorFactor": [
          0.5,
          0.5,
          0.5,
          1
        ],
        "baseColorTexture": {
          "index": 0
        },
        "metallicFactor": 0.0,
        "roughnessFactor": 1.0
      }
    },
    {
      "name": "KhronieAward_Rubber_Feet",
      "extensions": {
        "KHR_materials_transmission": {
          "transmissionFactor": 0.8
        },
        "KHR_materials_volume": {
          "thicknessFactor": 0.01
        }
      },
      "pbrMetallicRoughness": {
        "metallicFactor": 0.0,
        "roughnessFactor": 0.4
      }
    }
  ],
  "accessors": [
    {
      "bufferView": 0,
      "componentType": 5126,
      "count": 56,
      "max": [
        0.08999999612569809,
        0.03999999910593033,
        0.009999999776482582
      ],
      "min": [
        -0.08999999612569809,
        -0.03999999910593033,
        0.0
      ],
      "type": "VEC3"
    },
    {
      "bufferView": 0,
      "byteOffset": 12,
      "componentType": 5126,
      "count": 56,
      "type": "VEC3"
    },
    {
      "bufferView": 0,
      "byteOffset": 24,
      "componentType": 5126,
      "count": 56,
      "type": "VEC2"
    },
    {
      "bufferView": 1,
      "componentType": 5125,
      "count": 84,
      "type": "SCALAR"
    },
    {
      "bufferView": 2,
      "componentType": 5126,
      "count": 50,
      "max": [
        0.07500000298023224,
        0.004990004934370518,
        0.21000002324581146
      ],
      "min": [
        0.034999996423721313,
        -0.004999999888241291,
        0.009999999776482582
      ],
      "type": "VEC3"
    },
    {
      "bufferView": 2,
      "byteOffset": 12,
      "componentType": 5126,
      "count": 50,
      "type": "VEC3"
    },
    {
      "bufferView": 2,
      "byteOffset": 24,
      "componentType": 5126,
      "count": 50,
      "type": "VEC2"
    },
    {
      "bufferView": 3,
      "componentType": 5125,
      "count": 84,
      "type": "SCALAR"
    },
    {
      "bufferView": 4,
      "componentType": 5126,
      "count": 50,
      "max": [
        0.03500000387430191,
        0.004990004934370518,
        0.21000002324581146
      ],
      "min": [
        -0.07500000298023224,
        -0.004999999888241291,
        0.009999999776482582
      ],
      "type": "VEC3"
    },
    {
      "bufferView": 4,
      "byteOffset": 12,
      "componentType": 5126,
      "count": 50,
      "type": "VEC3"
    },
    {
      "bufferView": 4,
      "byteOffset": 24,
      "componentType": 5126,
      "count": 50,
      "type": "VEC2"
    },
    {
      "bufferView": 5,
      "componentType": 5125,
      "count": 84,
      "type": "SCALAR"
    },
    {
      "bufferView": 6,
      "componentType": 5126,
      "count": 4,
      "max": [
        0.0330255925655365,
        0.005490005016326904,
        0.1582525372505188
      ],
      "min": [
        -0.0649656429886818,
        0.005490005016326904,
        0.05876884609460831
      ],
      "type": "VEC3"
    },
    {
      "bufferView": 6,
      "byteOffset": 12,
      "componentType": 5126,
      "count": 4,
      "type": "VEC3"
    },
    {
      "bufferView": 6,
      "byteOffset": 24,
      "componentType": 5126,
      "count": 4,
      "type": "VEC2"
    },
    {
      "bufferView": 7,
      "componentType": 5125,
      "count": 6,
      "type": "SCALAR"
    },
    {
      "bufferView": 8,
      "componentType": 5126,
      "count": 4,
      "max": [
        0.0330255925655365,
        0.005490005016326904,
        0.1582525372505188
      ],
      "min": [
        -0.0649656429886818,
        0.005490005016326904,
        0.05876884609460831
      ],
      "type": "VEC3"
    },
    {
      "bufferView": 8,
      "byteOffset": 12,
      "componentType": 5126,
      "count": 4,
      "type": "VEC3"
    },
    {
      "bufferView": 8,
      "byteOffset": 24,
      "componentType": 5126,
      "count": 4,
      "type": "VEC2"
    },
    {
      "bufferView": 9,
      "componentType": 5125,
      "count": 6,
      "type": "SCALAR"
    },
    {
      "bufferView": 10,
      "componentType": 5126,
      "count": 484,
      "max": [
        0.0885467603802681,
        0.03859421983361244,
        -1.4872320207359735e-05
      ],
      "min": [
        -0.08856198936700821,
        -0.03858554735779762,
        -0.0015048212371766567
      ],
      "type": "VEC3"
    },
    {
      "bufferView": 10,
      "byteOffset": 12,
      "componentType": 5126,
      "count": 484,
      "type": "VEC3"
    },
    {
      "bufferView": 11,
      "componentType": 5125,
      "count": 2160,
      "type": "SCALAR"
    }
  ],
  "bufferViews": [
    {
      "buffer": 0,
      "byteLength": 1792,
      "byteStride": 32,
      "target": 34962
    },
    {
      "buffer": 0,
      "byteLength": 336,
      "byteOffset": 1792,
      "target": 34963
    },
    {
      "buffer": 0,
      "byteLength": 1600,
      "byteOffset": 2128,
      "byteStride": 32,
      "target": 34962
    },
    {
      "buffer": 0,
      "byteLength": 336,
      "byteOffset": 3728,
      "target": 34963
    },
    {
      "buffer": 0,
      "byteLength": 1600,
      "byteOffset": 4064,
      "byteStride": 32,
      "target": 34962
    },
    {
      "buffer": 0,
      "byteLength": 336,
      "byteOffset": 5664,
      "target": 34963
    },
    {
      "buffer": 0,
      "byteLength": 128,
      "byteOffset": 6000,
      "byteStride": 32,
      "target": 34962
    },
    {
      "buffer": 0,
      "byteLength": 24,
      "byteOffset": 6128,
      "target": 34963
    },
    {
      "buffer": 0,
      "byteLength": 128,
      "byteOffset": 6152,
      "byteStride": 32,
      "target": 34962
    },
    {
      "buffer": 0,
      "byteLength": 24,
      "byteOffset": 6280,
      "target": 34963
    },
    {
      "buffer": 0,
      "byteLength": 15488,
      "byteOffset": 6304,
      "byteStride": 32,
      "target": 34962
    },
    {
      "buffer": 0,
      "byteLength": 8640,
      "byteOffset": 21792,
      "target": 34963
    }
  ],
  "buffers": [
    {
      "byteLength": 30432,
      "uri": "KhronieAward.bin"
    }
  ],
  "images": [
    {
      "uri": "KhronieAward_Text.png"
    },
    {
      "uri": "KhronieAward_Normal.png"
    },
    {
      "uri": "KhronieAward_Thickness.png"
    }
  ],
  "textures": [
    {
      "name": "Text",
      "sampler": 0,
      "source": 0
    },
    {
      "name": "Normal",
      "sampler": 0,
      "source": 1
    },
    {
      "name": "Thickness",
      "sampler": 0,
      "source": 2
    }
  ],
  "meshes": [
    {
      "name": "KhronieAward Glass Base",
      "primitives": [
        {
          "attributes": {
            "NORMAL": 1,
            "POSITION": 0,
            "TEXCOORD_0": 2
          },
          "indices": 3,
          "material": 0,
          "mode": 4
        }
      ]
    },
    {
      "name": "KhronieAward Glass Smoked",
      "primitives": [
        {
          "attributes": {
            "NORMAL": 5,
            "POSITION": 4,
            "TEXCOORD_0": 6
          },
          "indices": 7,
          "material": 1,
          "mode": 4
        }
      ]
    },
    {
      "name": "KhronieAward Glass Upright",
      "primitives": [
        {
          "attributes": {
            "NORMAL": 9,
            "POSITION": 8,
            "TEXCOORD_0": 10
          },
          "indices": 11,
          "material": 0,
          "mode": 4
        }
      ]
    },
    {
      "name": "KhronieAward Text Rear",
      "primitives": [
        {
          "attributes": {
            "NORMAL": 13,
            "POSITION": 12,
            "TEXCOORD_0": 14
          },
          "indices": 15,
          "material": 2,
          "mode": 4
        }
      ]
    },
    {
      "name": "KhronieAward Text Front",
      "primitives": [
        {
          "attributes": {
            "NORMAL": 17,
            "POSITION": 16,
            "TEXCOORD_0": 18
          },
          "indices": 19,
          "material": 3,
          "mode": 4
        }
      ]
    },
    {
      "name": "KhronieAward Feet",
      "primitives": [
        {
          "attributes": {
            "NORMAL": 21,
            "POSITION": 20
          },
          "indices": 22,
          "material": 4,
          "mode": 4
        }
      ]
    }
  ],
  "nodes": [
    {
      "mesh": 0,
      "name": "KhronieAward Glass Base"
    },
    {
      "children": [
        0
      ],
      "matrix": [
        1.0,
        0.0,
        0.0,
        0.0,
        0.0,
        0.0,
        -1.0,
        0.0,
        0.0,
        1.0,
        0.0,
        0.0,
        2.9802322387695313e-08,
        0.001514872652478516,
        0.0,
        1.0
      ]
    },
    {
      "mesh": 1,
      "name": "KhronieAward Glass Smoked"
    },
    {
      "children": [
        2
      ],
      "matrix": [
        1.0,
        0.0,
        0.0,
        0.0,
        0.0,
        0.0,
        -1.0,
        0.0,
        0.0,
        1.0,
        0.0,
        0.0,
        2.9802322387695313e-08,
        0.001514872652478516,
        0.0,
        1.0
      ]
    },
    {
      "mesh": 2,
      "name": "KhronieAward Glass Upright"
    },
    {
      "children": [
        4
      ],
      "matrix": [
        1.0,
        0.0,
        0.0,
        0.0,
        0.0,
        0.0,
        -1.0,
        0.0,
        0.0,
        1.0,
        0.0,
        0.0,
        2.9802322387695313e-08,
        0.001514872652478516,
        0.0,
        1.0
      ]
    },
    {
      "mesh": 3,
      "name": "KhronieAward Text Rear"
    },
    {
      "children": [
        6
      ],
      "matrix": [
        1.0,
        0.0,
        0.0,
        0.0,
        0.0,
        0.0,
        -1.0,
        0.0,
        0.0,
        1.0,
        0.0,
        0.0,
        0.0,
        0.001514872652478516,
        0.0,
        1.0
      ]
    },
    {
      "mesh": 4,
      "name": "KhronieAward Text Front"
    },
    {
      "children": [
        8
      ],
      "matrix": [
        1.0,
        0.0,
        0.0,
        0.0,
        0.0,
        0.0,
        -1.0,
        0.0,
        0.0,
        1.0,
        0.0,
        0.0,
        0.0,
        0.001514872652478516,
        0.0,
        1.0
      ]
    },
    {
      "mesh": 5,
      "name": "KhronieAward Feet"
    },
    {
      "children": [
        10
      ],
      "matrix": [
        1.0,
        0.0,
        0.0,
        0.0,
        0.0,
        0.0,
        -1.0,
        0.0,
        0.0,
        1.0,
        0.0,
        0.0,
        0.0,
        0.001514872652478516,
        0.0,
        1.0
      ]
    }
  ],
  "samplers": [
    {
      "magFilter": 9729,
      "minFilter": 9729,
      "wrapS": 10497,
      "wrapT": 10497
    }
  ],
  "scenes": [
    {
      "nodes": [
        1,
        3,
        5,
        7,
        9,
        11
      ]
    }
  ]
}