{
  "asset": {
    "copyright": "CC0 public domain, model sourced from https://polyhaven.com/a/tea_set_01, edited by Eric Chadwick.",
    "generator": "Edited in 3ds Max 2024.1, exported with Satoshi Hayashi glTF exporter 1.42, edited in Visual Studio Code 1.83 with glTF Tools 2.4.",
    "version": "2.0"
  },
  "accessors": [
    {
      "bufferView": 0,
      "componentType": 5125,
      "count": 49944,
      "type": "SCALAR"
    },
    {
      "bufferView": 1,
      "componentType": 5126,
      "count": 49944,
      "max": [
        0.05317942053079605,
        0.06970596313476563,
        0.053179413080215454
      ],
      "min": [
        -0.05317941680550575,
        0.002442633965983987,
        -0.07910969108343124
      ],
      "type": "VEC3"
    },
    {
      "bufferView": 2,
      "componentType": 5126,
      "count": 49944,
      "type": "VEC3"
    },
    {
      "bufferView": 3,
      "componentType": 5126,
      "count": 49944,
      "max": [
        0.9899702668190002,
        0.9900000095367432
      ],
      "min": [
        0.009999990463256836,
        0.003878176212310791
      ],
      "type": "VEC2"
    },
    {
      "bufferView": 4,
      "componentType": 5125,
      "count": 34608,
      "type": "SCALAR"
    },
    {
      "bufferView": 5,
      "componentType": 5126,
      "count": 34608,
      "max": [
        0.07430914789438248,
        0.015187043696641922,
        0.07430917769670486
      ],
      "min": [
        -0.07430917024612427,
        -0.0006779426475986838,
        -0.07430917769670486
      ],
      "type": "VEC3"
    },
    {
      "bufferView": 6,
      "componentType": 5126,
      "count": 34608,
      "type": "VEC3"
    },
    {
      "bufferView": 7,
      "componentType": 5126,
      "count": 34608,
      "max": [
        0.9887738227844238,
        0.9899942874908447
      ],
      "min": [
        0.010007113218307495,
        0.008173823356628418
      ],
      "type": "VEC2"
    }
  ],
  "bufferViews": [
    {
      "buffer": 0,
      "byteLength": 199776,
      "target": 34963
    },
    {
      "buffer": 0,
      "byteLength": 599328,
      "byteOffset": 199776,
      "target": 34962
    },
    {
      "buffer": 0,
      "byteLength": 599328,
      "byteOffset": 799104,
      "target": 34962
    },
    {
      "buffer": 0,
      "byteLength": 399552,
      "byteOffset": 1398432,
      "target": 34962
    },
    {
      "buffer": 0,
      "byteLength": 138432,
      "byteOffset": 1797984,
      "target": 34963
    },
    {
      "buffer": 0,
      "byteLength": 415296,
      "byteOffset": 1936416,
      "target": 34962
    },
    {
      "buffer": 0,
      "byteLength": 415296,
      "byteOffset": 2351712,
      "target": 34962
    },
    {
      "buffer": 0,
      "byteLength": 276864,
      "byteOffset": 2767008,
      "target": 34962
    }
  ],
  "buffers": [
    {
      "byteLength": 3043872,
      "uri": "DiffuseTransmissionTeacup.bin"
    }
  ],
  "images": [
    {
      "uri": "teasaucer_basecolor.jpg"
    },
    {
      "uri": "teasaucer_normal.png"
    },
    {
      "uri": "teasaucer_ormt.png"
    },
    {
      "uri": "teacup_basecolor.jpg"
    },
    {
      "uri": "teacup_normal.png"
    },
    {
      "uri": "teacup_ormt.png"
    }
  ],
  "materials": [
    {
      "name": "tea_saucer",
      "normalTexture": {
        "index": 1
      },
      "occlusionTexture": {
        "index": 2
      },
      "pbrMetallicRoughness": {
        "baseColorTexture": {
          "index": 0
        },
        "metallicRoughnessTexture": {
          "index": 2
        }
      },
      "extensions": {
        "KHR_materials_diffuse_transmission": {
          "diffuseTransmissionFactor": 1.0,
          "diffuseTransmissionTexture": {
            "index": 2
          },
          "diffuseTransmissionColorFactor": [
            0.84,
            0.8,
            0.74
          ]
        }
      }
    },
    {
      "name": "tea_cup",
      "normalTexture": {
        "index": 4
      },
      "occlusionTexture": {
        "index": 5
      },
      "pbrMetallicRoughness": {
        "baseColorTexture": {
          "index": 3
        },
        "metallicRoughnessTexture": {
          "index": 5
        }
      },
      "extensions": {
        "KHR_materials_diffuse_transmission": {
          "diffuseTransmissionFactor": 1.0,
          "diffuseTransmissionTexture": {
            "index": 5
          },
          "diffuseTransmissionColorFactor": [
            0.84,
            0.8,
            0.74
          ]
        }
      }
    }
  ],
  "meshes": [
    {
      "name": "tea_cup",
      "primitives": [
        {
          "attributes": {
            "NORMAL": 2,
            "POSITION": 1,
            "TEXCOORD_0": 3
          },
          "indices": 0,
          "material": 1,
          "mode": 4
        }
      ]
    },
    {
      "name": "tea_saucer",
      "primitives": [
        {
          "attributes": {
            "NORMAL": 6,
            "POSITION": 5,
            "TEXCOORD_0": 7
          },
          "indices": 4,
          "material": 0,
          "mode": 4
        }
      ]
    }
  ],
  "nodes": [
    {
      "matrix": [
        1.0,
        0.0,
        0.0,
        0.0,
        0.0,
        1.0,
        4.371138828673793e-08,
        0.0,
        0.0,
        -4.371138828673793e-08,
        1.0,
        0.0,
        8.457805961370468e-06,
        0.0,
        -0.00030597392469644547,
        1.0
      ],
      "mesh": 0,
      "name": "tea_cup"
    },
    {
      "matrix": [
        1.0,
        0.0,
        0.0,
        0.0,
        0.0,
        1.0,
        4.371138828673793e-08,
        0.0,
        0.0,
        -4.371138828673793e-08,
        1.0,
        0.0,
        8.428003638982773e-06,
        0.0,
        7.516704499721527e-06,
        1.0
      ],
      "mesh": 1,
      "name": "tea_saucer"
    }
  ],
  "samplers": [
    {
      "wrapS": 10497,
      "wrapT": 10497
    },
    {
      "wrapS": 10497,
      "wrapT": 10497
    },
    {
      "wrapS": 10497,
      "wrapT": 10497
    },
    {
      "wrapS": 10497,
      "wrapT": 10497
    },
    {
      "wrapS": 10497,
      "wrapT": 10497
    },
    {
      "wrapS": 10497,
      "wrapT": 10497
    }
  ],
  "scene": 0,
  "scenes": [
    {
      "nodes": [
        0,
        1
      ]
    }
  ],
  "textures": [
    {
      "sampler": 0,
      "source": 0
    },
    {
      "sampler": 1,
      "source": 1
    },
    {
      "sampler": 2,
      "source": 2
    },
    {
      "sampler": 3,
      "source": 3
    },
    {
      "sampler": 4,
      "source": 4
    },
    {
      "sampler": 5,
      "source": 5
    }
  ],
  "extensionsUsed": [
    "KHR_materials_diffuse_transmission"
  ]
}
