{
  "accessors": [
    {
      "bufferView": 0,
      "componentType": 5125,
      "count": 13440,
      "type": "SCALAR"
    },
    {
      "bufferView": 1,
      "componentType": 5126,
      "count": 13440,
      "max": [
        1.1285773515701294,
        0.3691617548465729,
        1.0432581901550293
      ],
      "min": [
        -1.1149163246154785,
        -0.23388615250587463,
        0.49504148960113525
      ],
      "type": "VEC3"
    },
    {
      "bufferView": 2,
      "componentType": 5126,
      "count": 13440,
      "type": "VEC3"
    },
    {
      "bufferView": 3,
      "componentType": 5126,
      "count": 13440,
      "max": [
        8.527875900268555,
        0.9399999976158142
      ],
      "min": [
        0.0,
        0.11915236711502075
      ],
      "type": "VEC2"
    },
    {
      "bufferView": 4,
      "componentType": 5126,
      "count": 13440,
      "max": [
        1.9796435832977295,
        0.9798156023025513
      ],
      "min": [
        0.017661333084106445,
        0.02018439769744873
      ],
      "type": "VEC2"
    },
    {
      "bufferView": 5,
      "componentType": 5126,
      "count": 13440,
      "max": [
        0.940500020980835,
        0.940500020980835,
        0.940500020980835
      ],
      "min": [
        0.33725491166114807,
        0.33725491166114807,
        0.33725491166114807
      ],
      "type": "VEC3"
    },
    {
      "bufferView": 6,
      "componentType": 5125,
      "count": 49296,
      "type": "SCALAR"
    },
    {
      "bufferView": 7,
      "componentType": 5126,
      "count": 49296,
      "max": [
        1.362902283668518,
        0.4626976549625397,
        1.1179324388504028
      ],
      "min": [
        -1.362902283668518,
        -0.46048516035079956,
        0.0006284588016569614
      ],
      "type": "VEC3"
    },
    {
      "bufferView": 8,
      "componentType": 5126,
      "count": 49296,
      "type": "VEC3"
    },
    {
      "bufferView": 9,
      "componentType": 5126,
      "count": 49296,
      "max": [
        1.9999024868011475,
        0.9987243413925171
      ],
      "min": [
        0.0,
        0.033331334590911865
      ],
      "type": "VEC2"
    },
    {
      "bufferView": 10,
      "componentType": 5125,
      "count": 3552,
      "type": "SCALAR"
    },
    {
      "bufferView": 11,
      "componentType": 5126,
      "count": 3552,
      "max": [
        1.1003618240356445,
        0.34273001551628113,
        1.0083587169647217
      ],
      "min": [
        -1.1003618240356445,
        0.24733799695968628,
        0.21361279487609863
      ],
      "type": "VEC3"
    },
    {
      "bufferView": 12,
      "componentType": 5126,
      "count": 3552,
      "type": "VEC3"
    },
    {
      "bufferView": 13,
      "componentType": 5126,
      "count": 3552,
      "max": [
        1.758329153060913,
        0.2791211009025574
      ],
      "min": [
        0.3833629786968231,
        0.00023227930068969727
      ],
      "type": "VEC2"
    },
    {
      "bufferView": 14,
      "componentType": 5125,
      "count": 20376,
      "type": "SCALAR"
    },
    {
      "bufferView": 15,
      "componentType": 5126,
      "count": 20376,
      "max": [
        1.0533117055892944,
        0.3015304207801819,
        1.0057995319366455
      ],
      "min": [
        -1.053311824798584,
        -0.4448564648628235,
        0.3166033625602722
      ],
      "type": "VEC3"
    },
    {
      "bufferView": 16,
      "componentType": 5126,
      "count": 20376,
      "type": "VEC3"
    },
    {
      "bufferView": 17,
      "componentType": 5126,
      "count": 20376,
      "max": [
        0.9998233914375305,
        1.0
      ],
      "min": [
        0.0,
        0.0
      ],
      "type": "VEC2"
    },
    {
      "bufferView": 18,
      "componentType": 5126,
      "count": 20376,
      "max": [
        0.949999988079071,
        0.949999988079071,
        0.949999988079071
      ],
      "min": [
        0.47686275839805603,
        0.47686275839805603,
        0.47686275839805603
      ],
      "type": "VEC3"
    },
    {
      "bufferView": 19,
      "componentType": 5125,
      "count": 3168,
      "type": "SCALAR"
    },
    {
      "bufferView": 20,
      "componentType": 5126,
      "count": 3168,
      "max": [
        0.6555450558662415,
        0.23987022042274475,
        0.9413919448852539
      ],
      "min": [
        -0.6567839980125427,
        -0.022404557093977928,
        0.5377160310745239
      ],
      "type": "VEC3"
    },
    {
      "bufferView": 21,
      "componentType": 5126,
      "count": 3168,
      "type": "VEC3"
    },
    {
      "bufferView": 22,
      "componentType": 5126,
      "count": 3168,
      "max": [
        0.9617103338241577,
        1.0
      ],
      "min": [
        0.34269386529922485,
        0.036232590675354004
      ],
      "type": "VEC2"
    },
    {
      "bufferView": 23,
      "componentType": 5126,
      "count": 3168,
      "max": [
        0.949999988079071,
        0.949999988079071,
        0.949999988079071
      ],
      "min": [
        0.47686275839805603,
        0.47686275839805603,
        0.47686275839805603
      ],
      "type": "VEC3"
    },
    {
      "bufferView": 24,
      "componentType": 5125,
      "count": 9324,
      "type": "SCALAR"
    },
    {
      "bufferView": 25,
      "componentType": 5126,
      "count": 9324,
      "max": [
        0.9331958889961243,
        0.27974411845207214,
        1.0045995712280273
      ],
      "min": [
        -0.9331958293914795,
        -0.438836008310318,
        0.48493313789367676
      ],
      "type": "VEC3"
    },
    {
      "bufferView": 26,
      "componentType": 5126,
      "count": 9324,
      "type": "VEC3"
    },
    {
      "bufferView": 27,
      "componentType": 5126,
      "count": 9324,
      "max": [
        0.9866799116134644,
        0.9817634224891663
      ],
      "min": [
        0.03526110574603081,
        0.015052080154418945
      ],
      "type": "VEC2"
    },
    {
      "bufferView": 28,
      "componentType": 5126,
      "count": 9324,
      "max": [
        0.949999988079071,
        0.949999988079071,
        0.949999988079071
      ],
      "min": [
        0.47686275839805603,
        0.47686275839805603,
        0.47686275839805603
      ],
      "type": "VEC3"
    }
  ],
  "asset": {
    "copyright": "© 2024 Darmstadt Graphics Group GmbH, CC BY 4.0 International, changes by Eric Chadwick. Original model by Fran Calvente, CC0 Polyhaven.com",
    "generator": "HS glTF exporter for 3dsmax 1.49 (custom3dsmax@gmail.com)",
    "version": "2.0"
  },
  "bufferViews": [
    {
      "buffer": 0,
      "byteLength": 53760,
      "target": 34963
    },
    {
      "buffer": 0,
      "byteLength": 161280,
      "byteOffset": 53760,
      "target": 34962
    },
    {
      "buffer": 0,
      "byteLength": 161280,
      "byteOffset": 215040,
      "target": 34962
    },
    {
      "buffer": 0,
      "byteLength": 107520,
      "byteOffset": 376320,
      "target": 34962
    },
    {
      "buffer": 0,
      "byteLength": 107520,
      "byteOffset": 483840,
      "target": 34962
    },
    {
      "buffer": 0,
      "byteLength": 161280,
      "byteOffset": 591360,
      "target": 34962
    },
    {
      "buffer": 0,
      "byteLength": 197184,
      "byteOffset": 752640,
      "target": 34963
    },
    {
      "buffer": 0,
      "byteLength": 591552,
      "byteOffset": 949824,
      "target": 34962
    },
    {
      "buffer": 0,
      "byteLength": 591552,
      "byteOffset": 1541376,
      "target": 34962
    },
    {
      "buffer": 0,
      "byteLength": 394368,
      "byteOffset": 2132928,
      "target": 34962
    },
    {
      "buffer": 0,
      "byteLength": 14208,
      "byteOffset": 2527296,
      "target": 34963
    },
    {
      "buffer": 0,
      "byteLength": 42624,
      "byteOffset": 2541504,
      "target": 34962
    },
    {
      "buffer": 0,
      "byteLength": 42624,
      "byteOffset": 2584128,
      "target": 34962
    },
    {
      "buffer": 0,
      "byteLength": 28416,
      "byteOffset": 2626752,
      "target": 34962
    },
    {
      "buffer": 0,
      "byteLength": 81504,
      "byteOffset": 2655168,
      "target": 34963
    },
    {
      "buffer": 0,
      "byteLength": 244512,
      "byteOffset": 2736672,
      "target": 34962
    },
    {
      "buffer": 0,
      "byteLength": 244512,
      "byteOffset": 2981184,
      "target": 34962
    },
    {
      "buffer": 0,
      "byteLength": 163008,
      "byteOffset": 3225696,
      "target": 34962
    },
    {
      "buffer": 0,
      "byteLength": 244512,
      "byteOffset": 3388704,
      "target": 34962
    },
    {
      "buffer": 0,
      "byteLength": 12672,
      "byteOffset": 3633216,
      "target": 34963
    },
    {
      "buffer": 0,
      "byteLength": 38016,
      "byteOffset": 3645888,
      "target": 34962
    },
    {
      "buffer": 0,
      "byteLength": 38016,
      "byteOffset": 3683904,
      "target": 34962
    },
    {
      "buffer": 0,
      "byteLength": 25344,
      "byteOffset": 3721920,
      "target": 34962
    },
    {
      "buffer": 0,
      "byteLength": 38016,
      "byteOffset": 3747264,
      "target": 34962
    },
    {
      "buffer": 0,
      "byteLength": 37296,
      "byteOffset": 3785280,
      "target": 34963
    },
    {
      "buffer": 0,
      "byteLength": 111888,
      "byteOffset": 3822576,
      "target": 34962
    },
    {
      "buffer": 0,
      "byteLength": 111888,
      "byteOffset": 3934464,
      "target": 34962
    },
    {
      "buffer": 0,
      "byteLength": 74592,
      "byteOffset": 4046352,
      "target": 34962
    },
    {
      "buffer": 0,
      "byteLength": 111888,
      "byteOffset": 4120944,
      "target": 34962
    }
  ],
  "buffers": [
    {
      "byteLength": 4232832,
      "uri": "SheenWoodLeatherSofa.bin"
    }
  ],
  "extensionsUsed": [
    "KHR_materials_specular",
    "KHR_materials_sheen",
    "KHR_texture_transform",
    "EXT_texture_webp"
  ],
  "extensionsRequired": [
    "KHR_texture_transform",
    "EXT_texture_webp"
  ],
  "images": [
    {
      "mimeType": "image/webp",
      "uri": "Brown_BaseColor.webp"
    },
    {
      "mimeType": "image/webp",
      "uri": "Brown_Normal.webp"
    },
    {
      "mimeType": "image/webp",
      "uri": "Cushions_Occlusion.webp"
    },
    {
      "mimeType": "image/webp",
      "uri": "Paisley_BaseColor.webp"
    },
    {
      "mimeType": "image/webp",
      "uri": "Paisley_Normal.webp"
    },
    {
      "mimeType": "image/webp",
      "uri": "Striped_BaseColor.webp"
    },
    {
      "mimeType": "image/webp",
      "uri": "Striped_Normal.webp"
    },
    {
      "mimeType": "image/webp",
      "uri": "Fringe_BaseColor.webp"
    },
    {
      "mimeType": "image/webp",
      "uri": "Fringe_Normal.webp"
    },
    {
      "mimeType": "image/webp",
      "uri": "Fringe_Occlusion.webp"
    },
    {
      "mimeType": "image/webp",
      "uri": "Frame_BaseColor.webp"
    },
    {
      "mimeType": "image/png",
      "uri": "Frame_Normal.png"
    },
    {
      "mimeType": "image/webp",
      "uri": "Frame_ORM.webp"
    }
  ],
  "materials": [
    {
      "extensions": {
        "KHR_materials_sheen": {
          "sheenColorFactor": [
            0.3921568989753723,
            0.29019609093666077,
            0.20000001788139343
          ],
          "sheenRoughnessFactor": 0.4
        },
        "KHR_materials_specular": {
          "specularColorFactor": [
            1.0,
            1.0,
            1.0
          ],
          "specularFactor": 0.3
        }
      },
      "name": "Brown",
      "normalTexture": {
        "extensions": {
          "KHR_texture_transform": {
            "scale": [
              10.0,
              10.0
            ]
          }
        },
        "index": 1,
        "scale": 1.5
      },
      "occlusionTexture": {
        "index": 2
      },
      "pbrMetallicRoughness": {
        "baseColorTexture": {
          "extensions": {
            "KHR_texture_transform": {
              "scale": [
                10.0,
                10.0
              ]
            }
          },
          "index": 0
        },
        "metallicRoughnessTexture": {
          "index": 2
        },
        "roughnessFactor": 0.8
      }
    },
    {
      "extensions": {
        "KHR_materials_sheen": {
          "sheenColorFactor": [
            0.3921568989753723,
            0.29019609093666077,
            0.20000001788139343
          ],
          "sheenRoughnessFactor": 0.4
        },
        "KHR_materials_specular": {
          "specularColorFactor": [
            1.0,
            1.0,
            1.0
          ],
          "specularFactor": 0.3
        }
      },
      "name": "Paisley",
      "normalTexture": {
        "extensions": {
          "KHR_texture_transform": {
            "scale": [
              5.0,
              6.0
            ]
          }
        },
        "index": 4,
        "scale": 1.5
      },
      "occlusionTexture": {
        "index": 2
      },
      "pbrMetallicRoughness": {
        "baseColorTexture": {
          "extensions": {
            "KHR_texture_transform": {
              "scale": [
                5.0,
                6.0
              ]
            }
          },
          "index": 3
        },
        "metallicRoughnessTexture": {
          "index": 2
        },
        "roughnessFactor": 0.8
      }
    },
    {
      "extensions": {
        "KHR_materials_sheen": {
          "sheenColorFactor": [
            0.3921568989753723,
            0.29019609093666077,
            0.20000001788139343
          ],
          "sheenRoughnessFactor": 0.4
        },
        "KHR_materials_specular": {
          "specularColorFactor": [
            1.0,
            1.0,
            1.0
          ],
          "specularFactor": 0.3
        }
      },
      "name": "Striped",
      "normalTexture": {
        "extensions": {
          "KHR_texture_transform": {
            "scale": [
              30.0,
              30.0
            ]
          }
        },
        "index": 6,
        "scale": 2.0
      },
      "occlusionTexture": {
        "index": 2
      },
      "pbrMetallicRoughness": {
        "baseColorTexture": {
          "extensions": {
            "KHR_texture_transform": {
              "scale": [
                30.0,
                30.0
              ]
            }
          },
          "index": 5
        },
        "metallicRoughnessTexture": {
          "index": 2
        },
        "roughnessFactor": 0.8
      }
    },
    {
      "alphaMode": "BLEND",
      "extensions": {
        "KHR_materials_sheen": {
          "sheenColorFactor": [
            0.3921568989753723,
            0.29019609093666077,
            0.20000001788139343
          ],
          "sheenRoughnessFactor": 0.4
        },
        "KHR_materials_specular": {
          "specularColorFactor": [
            1.0,
            1.0,
            1.0
          ],
          "specularFactor": 0.3
        }
      },
      "name": "Fringe",
      "normalTexture": {
        "index": 8
      },
      "occlusionTexture": {
        "index": 9,
        "texCoord": 1
      },
      "pbrMetallicRoughness": {
        "baseColorTexture": {
          "index": 7
        },
        "roughnessFactor": 0.8
      }
    },
    {
      "name": "Frame",
      "normalTexture": {
        "index": 11
      },
      "occlusionTexture": {
        "index": 12
      },
      "pbrMetallicRoughness": {
        "baseColorTexture": {
          "index": 10
        },
        "metallicRoughnessTexture": {
          "index": 12
        }
      }
    },
    {
      "extensions": {
        "KHR_materials_sheen": {
          "sheenColorFactor": [
            0.3921568989753723,
            0.29019609093666077,
            0.20000001788139343
          ],
          "sheenRoughnessFactor": 0.4
        },
        "KHR_materials_specular": {
          "specularColorFactor": [
            1.0,
            1.0,
            1.0
          ],
          "specularFactor": 0.3
        }
      },
      "name": "Frame_Fabric",
      "normalTexture": {
        "extensions": {
          "KHR_texture_transform": {
            "scale": [
              10.0,
              10.0
            ]
          }
        },
        "index": 14,
        "scale": 1.5
      },
      "occlusionTexture": {
        "index": 12
      },
      "pbrMetallicRoughness": {
        "baseColorTexture": {
          "extensions": {
            "KHR_texture_transform": {
              "scale": [
                10.0,
                10.0
              ]
            }
          },
          "index": 13
        },
        "metallicRoughnessTexture": {
          "index": 12
        },
        "roughnessFactor": 0.8
      }
    }
  ],
  "meshes": [
    {
      "name": "Fringe",
      "primitives": [
        {
          "attributes": {
            "COLOR_0": 5,
            "NORMAL": 2,
            "POSITION": 1,
            "TEXCOORD_0": 3,
            "TEXCOORD_1": 4
          },
          "indices": 0,
          "material": 3,
          "mode": 4
        }
      ]
    },
    {
      "name": "Frame",
      "primitives": [
        {
          "attributes": {
            "NORMAL": 8,
            "POSITION": 7,
            "TEXCOORD_0": 9
          },
          "indices": 6,
          "material": 4,
          "mode": 4
        }
      ]
    },
    {
      "name": "Frame_Fabric",
      "primitives": [
        {
          "attributes": {
            "NORMAL": 12,
            "POSITION": 11,
            "TEXCOORD_0": 13
          },
          "indices": 10,
          "material": 5,
          "mode": 4
        }
      ]
    },
    {
      "name": "Paisley",
      "primitives": [
        {
          "attributes": {
            "COLOR_0": 18,
            "NORMAL": 16,
            "POSITION": 15,
            "TEXCOORD_0": 17
          },
          "indices": 14,
          "material": 1,
          "mode": 4
        }
      ]
    },
    {
      "name": "Stripes",
      "primitives": [
        {
          "attributes": {
            "COLOR_0": 23,
            "NORMAL": 21,
            "POSITION": 20,
            "TEXCOORD_0": 22
          },
          "indices": 19,
          "material": 2,
          "mode": 4
        }
      ]
    },
    {
      "name": "Brown",
      "primitives": [
        {
          "attributes": {
            "COLOR_0": 28,
            "NORMAL": 26,
            "POSITION": 25,
            "TEXCOORD_0": 27
          },
          "indices": 24,
          "material": 0,
          "mode": 4
        }
      ]
    }
  ],
  "nodes": [
    {
      "mesh": 0,
      "name": "Fringe",
      "rotation": [
        0.7071067690849304,
        -0.0,
        -0.0,
        -0.7071067690849304
      ],
      "scale": [
        1.0,
        1.0,
        1.0
      ],
      "translation": [
        0.0,
        0.0,
        0.0
      ]
    },
    {
      "mesh": 1,
      "name": "Frame",
      "rotation": [
        0.7071068286895752,
        -0.0,
        -0.0,
        -0.7071067094802856
      ],
      "scale": [
        1.0,
        1.0,
        1.0
      ],
      "translation": [
        0.0,
        0.0,
        0.0
      ]
    },
    {
      "mesh": 2,
      "name": "Frame_Fabric",
      "rotation": [
        0.7071067690849304,
        -0.0,
        -0.0,
        -0.7071067690849304
      ],
      "scale": [
        1.0,
        1.0,
        1.0
      ],
      "translation": [
        0.0,
        0.0,
        0.0
      ]
    },
    {
      "mesh": 3,
      "name": "Paisley",
      "rotation": [
        0.7071067690849304,
        -0.0,
        -0.0,
        -0.7071067690849304
      ],
      "scale": [
        1.0,
        1.0,
        1.0
      ],
      "translation": [
        0.0,
        0.0,
        0.0
      ]
    },
    {
      "mesh": 4,
      "name": "Stripes",
      "rotation": [
        0.7071067690849304,
        -0.0,
        -0.0,
        -0.7071067690849304
      ],
      "scale": [
        1.0,
        1.0,
        1.0
      ],
      "translation": [
        0.0,
        0.0,
        0.0
      ]
    },
    {
      "mesh": 5,
      "name": "Brown",
      "rotation": [
        0.7071067690849304,
        -0.0,
        -0.0,
        -0.7071067690849304
      ],
      "scale": [
        1.0,
        1.0,
        1.0
      ],
      "translation": [
        0.0,
        0.0,
        0.0
      ]
    }
  ],
  "samplers": [
    {
      "wrapS": 10497,
      "wrapT": 10497
    },
    {
      "wrapS": 10497,
      "wrapT": 10497
    },
    {
      "wrapS": 10497,
      "wrapT": 10497
    },
    {
      "wrapS": 10497,
      "wrapT": 10497
    },
    {
      "wrapS": 10497,
      "wrapT": 10497
    },
    {
      "wrapS": 10497,
      "wrapT": 10497
    },
    {
      "wrapS": 10497,
      "wrapT": 10497
    },
    {
      "wrapS": 10497,
      "wrapT": 10497
    },
    {
      "wrapS": 10497,
      "wrapT": 10497
    },
    {
      "wrapS": 10497,
      "wrapT": 10497
    },
    {
      "wrapS": 10497,
      "wrapT": 10497
    },
    {
      "wrapS": 10497,
      "wrapT": 10497
    },
    {
      "wrapS": 10497,
      "wrapT": 10497
    },
    {
      "wrapS": 10497,
      "wrapT": 10497
    },
    {
      "wrapS": 10497,
      "wrapT": 10497
    }
  ],
  "scene": 0,
  "scenes": [
    {
      "nodes": [
        0,
        1,
        2,
        3,
        4,
        5
      ]
    }
  ],
  "textures": [
    {
      "sampler": 0,
      "source": 0
    },
    {
      "sampler": 1,
      "source": 1
    },
    {
      "sampler": 2,
      "source": 2
    },
    {
      "sampler": 3,
      "source": 3
    },
    {
      "sampler": 4,
      "source": 4
    },
    {
      "sampler": 5,
      "source": 5
    },
    {
      "sampler": 6,
      "source": 6
    },
    {
      "sampler": 7,
      "source": 7
    },
    {
      "sampler": 8,
      "source": 8
    },
    {
      "sampler": 9,
      "source": 9
    },
    {
      "sampler": 10,
      "source": 10
    },
    {
      "sampler": 11,
      "source": 11
    },
    {
      "sampler": 12,
      "source": 12
    },
    {
      "sampler": 13,
      "source": 0
    },
    {
      "sampler": 14,
      "source": 1
    }
  ]
}