{
    "asset": {
        "copyright": "2025 (c) Adobe Inc.",
        "generator": "Adobe Substance 3D Stager - 71e900fc2bce8c66db9475ffdc4ac3f89b2e4b0c",
        "version": "2.0",
        "extensions": {
            "KHR_xmp_json_ld": {
                "packet": 0
            }
        }
    },
    "accessors": [
        {
            "bufferView": 0,
            "componentType": 5126,
            "count": 1370,
            "type": "VEC3",
            "max": [
                3.1424999237060549,
                1.0800001621246338,
                3.1424999237060549
            ],
            "min": [
                -3.1424999237060549,
                0.0,
                -3.1424999237060549
            ]
        },
        {
            "bufferView": 1,
            "componentType": 5126,
            "count": 1370,
            "type": "VEC3"
        },
        {
            "bufferView": 2,
            "componentType": 5126,
            "count": 1370,
            "type": "VEC4"
        },
        {
            "bufferView": 3,
            "componentType": 5126,
            "count": 1370,
            "type": "VEC2"
        },
        {
            "bufferView": 4,
            "componentType": 5125,
            "count": 7776,
            "type": "SCALAR",
            "max": [
                1369.0
            ],
            "min": [
                0.0
            ]
        },
        {
            "bufferView": 5,
            "componentType": 5126,
            "count": 3343,
            "type": "VEC3",
            "max": [
                2.695894718170166,
                7.142886161804199,
                2.6958086490631105
            ],
            "min": [
                -2.6925477981567385,
                1.754855751991272,
                -2.692633628845215
            ]
        },
        {
            "bufferView": 6,
            "componentType": 5126,
            "count": 3343,
            "type": "VEC3"
        },
        {
            "bufferView": 7,
            "componentType": 5126,
            "count": 3343,
            "type": "VEC4"
        },
        {
            "bufferView": 8,
            "componentType": 5126,
            "count": 3343,
            "type": "VEC2"
        },
        {
            "bufferView": 9,
            "componentType": 5125,
            "count": 18432,
            "type": "SCALAR",
            "max": [
                3342.0
            ],
            "min": [
                0.0
            ]
        },
        {
            "bufferView": 10,
            "componentType": 5126,
            "count": 12069,
            "type": "VEC3",
            "max": [
                4.461443901062012,
                8.204633712768555,
                4.4614434242248539
            ],
            "min": [
                -4.462121963500977,
                0.38515323400497439,
                -4.462122440338135
            ]
        },
        {
            "bufferView": 11,
            "componentType": 5126,
            "count": 12069,
            "type": "VEC3"
        },
        {
            "bufferView": 12,
            "componentType": 5126,
            "count": 12069,
            "type": "VEC4"
        },
        {
            "bufferView": 13,
            "componentType": 5126,
            "count": 12069,
            "type": "VEC2"
        },
        {
            "bufferView": 14,
            "componentType": 5125,
            "count": 69276,
            "type": "SCALAR",
            "max": [
                12068.0
            ],
            "min": [
                0.0
            ]
        },
        {
            "bufferView": 15,
            "componentType": 5126,
            "count": 660,
            "type": "VEC3",
            "max": [
                3.6077330112457277,
                8.05561637878418,
                3.612475872039795
            ],
            "min": [
                -0.4878491461277008,
                5.0547027587890629,
                -0.5115311145782471
            ]
        },
        {
            "bufferView": 16,
            "componentType": 5126,
            "count": 660,
            "type": "VEC3"
        },
        {
            "bufferView": 17,
            "componentType": 5126,
            "count": 660,
            "type": "VEC4"
        },
        {
            "bufferView": 18,
            "componentType": 5126,
            "count": 660,
            "type": "VEC2"
        },
        {
            "bufferView": 19,
            "componentType": 5125,
            "count": 3504,
            "type": "SCALAR",
            "max": [
                659.0
            ],
            "min": [
                0.0
            ]
        },
        {
            "bufferView": 20,
            "componentType": 5126,
            "count": 6638,
            "type": "VEC3",
            "max": [
                0.040056146681308749,
                0.021064452826976777,
                1.19209286886246e-9
            ],
            "min": [
                -0.04062744230031967,
                -0.00035156295052729547,
                -0.009999999776482582
            ]
        },
        {
            "bufferView": 21,
            "componentType": 5126,
            "count": 6638,
            "type": "VEC3"
        },
        {
            "bufferView": 22,
            "componentType": 5126,
            "count": 6638,
            "type": "VEC4"
        },
        {
            "bufferView": 23,
            "componentType": 5126,
            "count": 6638,
            "type": "VEC2"
        },
        {
            "bufferView": 24,
            "componentType": 5125,
            "count": 23340,
            "type": "SCALAR",
            "max": [
                6637.0
            ],
            "min": [
                0.0
            ]
        },
        {
            "bufferView": 25,
            "componentType": 5126,
            "count": 6638,
            "type": "VEC3",
            "max": [
                0.040056146681308749,
                0.021064452826976777,
                1.19209286886246e-9
            ],
            "min": [
                -0.04062744230031967,
                -0.00035156277590431273,
                -0.009999999776482582
            ]
        },
        {
            "bufferView": 26,
            "componentType": 5126,
            "count": 6638,
            "type": "VEC3"
        },
        {
            "bufferView": 27,
            "componentType": 5126,
            "count": 6638,
            "type": "VEC4"
        },
        {
            "bufferView": 28,
            "componentType": 5126,
            "count": 6638,
            "type": "VEC2"
        },
        {
            "bufferView": 29,
            "componentType": 5126,
            "count": 4528,
            "type": "VEC3",
            "max": [
                0.01593017578125,
                0.02153320237994194,
                0.0
            ],
            "min": [
                -0.016047362238168718,
                -0.00035156263038516045,
                -0.009999999776482582
            ]
        },
        {
            "bufferView": 30,
            "componentType": 5126,
            "count": 4528,
            "type": "VEC3"
        },
        {
            "bufferView": 31,
            "componentType": 5126,
            "count": 4528,
            "type": "VEC4"
        },
        {
            "bufferView": 32,
            "componentType": 5126,
            "count": 4528,
            "type": "VEC2"
        },
        {
            "bufferView": 33,
            "componentType": 5125,
            "count": 16188,
            "type": "SCALAR",
            "max": [
                4527.0
            ],
            "min": [
                0.0
            ]
        },
        {
            "bufferView": 34,
            "componentType": 5126,
            "count": 2557,
            "type": "VEC3",
            "max": [
                0.01593017578125,
                0.02153320237994194,
                0.0
            ],
            "min": [
                -0.015139159746468068,
                -0.00035156248486600816,
                -0.009999999776482582
            ]
        },
        {
            "bufferView": 35,
            "componentType": 5126,
            "count": 2557,
            "type": "VEC3"
        },
        {
            "bufferView": 36,
            "componentType": 5126,
            "count": 2557,
            "type": "VEC4"
        },
        {
            "bufferView": 37,
            "componentType": 5126,
            "count": 2557,
            "type": "VEC2"
        },
        {
            "bufferView": 38,
            "componentType": 5125,
            "count": 9066,
            "type": "SCALAR",
            "max": [
                2556.0
            ],
            "min": [
                0.0
            ]
        },
        {
            "bufferView": 39,
            "componentType": 5126,
            "count": 3535,
            "type": "VEC3",
            "max": [
                0.016340332105755807,
                0.02153320237994194,
                0.0
            ],
            "min": [
                -0.016047362238168718,
                -0.00035156248486600816,
                -0.009999999776482582
            ]
        },
        {
            "bufferView": 40,
            "componentType": 5126,
            "count": 3535,
            "type": "VEC3"
        },
        {
            "bufferView": 41,
            "componentType": 5126,
            "count": 3535,
            "type": "VEC4"
        },
        {
            "bufferView": 42,
            "componentType": 5126,
            "count": 3535,
            "type": "VEC2"
        },
        {
            "bufferView": 43,
            "componentType": 5125,
            "count": 12558,
            "type": "SCALAR",
            "max": [
                3534.0
            ],
            "min": [
                0.0
            ]
        },
        {
            "bufferView": 44,
            "componentType": 5126,
            "count": 3535,
            "type": "VEC3",
            "max": [
                0.016340332105755807,
                0.02153320237994194,
                0.0
            ],
            "min": [
                -0.016047362238168718,
                -0.00035156263038516045,
                -0.009999999776482582
            ]
        },
        {
            "bufferView": 45,
            "componentType": 5126,
            "count": 3535,
            "type": "VEC3"
        },
        {
            "bufferView": 46,
            "componentType": 5126,
            "count": 3535,
            "type": "VEC4"
        },
        {
            "bufferView": 47,
            "componentType": 5126,
            "count": 3535,
            "type": "VEC2"
        },
        {
            "bufferView": 48,
            "componentType": 5126,
            "count": 15578,
            "type": "VEC3",
            "max": [
                0.099853515625,
                0.028632812201976777,
                2.38418573772492e-9
            ],
            "min": [
                -0.10157226026058197,
                -0.00046875057159923017,
                -0.009999999776482582
            ]
        },
        {
            "bufferView": 49,
            "componentType": 5126,
            "count": 15578,
            "type": "VEC3"
        },
        {
            "bufferView": 50,
            "componentType": 5126,
            "count": 15578,
            "type": "VEC4"
        },
        {
            "bufferView": 51,
            "componentType": 5126,
            "count": 15578,
            "type": "VEC2"
        },
        {
            "bufferView": 52,
            "componentType": 5125,
            "count": 55152,
            "type": "SCALAR",
            "max": [
                15577.0
            ],
            "min": [
                0.0
            ]
        },
        {
            "bufferView": 53,
            "componentType": 5126,
            "count": 19521,
            "type": "VEC3",
            "max": [
                0.11900390684604645,
                0.02910156175494194,
                2.38418573772492e-9
            ],
            "min": [
                -0.12041015177965164,
                -0.008437499403953553,
                -0.009999999776482582
            ]
        },
        {
            "bufferView": 54,
            "componentType": 5126,
            "count": 19521,
            "type": "VEC3"
        },
        {
            "bufferView": 55,
            "componentType": 5126,
            "count": 19521,
            "type": "VEC4"
        },
        {
            "bufferView": 56,
            "componentType": 5126,
            "count": 19521,
            "type": "VEC2"
        },
        {
            "bufferView": 57,
            "componentType": 5125,
            "count": 69114,
            "type": "SCALAR",
            "max": [
                19520.0
            ],
            "min": [
                0.0
            ]
        }
    ],
    "bufferViews": [
        {
            "buffer": 0,
            "byteOffset": 0,
            "byteLength": 16440,
            "target": 34962
        },
        {
            "buffer": 0,
            "byteOffset": 16440,
            "byteLength": 16440,
            "target": 34962
        },
        {
            "buffer": 0,
            "byteOffset": 32880,
            "byteLength": 21920,
            "target": 34962
        },
        {
            "buffer": 0,
            "byteOffset": 54800,
            "byteLength": 10960,
            "target": 34962
        },
        {
            "buffer": 0,
            "byteOffset": 65760,
            "byteLength": 31104,
            "target": 34963
        },
        {
            "buffer": 0,
            "byteOffset": 96864,
            "byteLength": 40116,
            "target": 34962
        },
        {
            "buffer": 0,
            "byteOffset": 136980,
            "byteLength": 40116,
            "target": 34962
        },
        {
            "buffer": 0,
            "byteOffset": 177096,
            "byteLength": 53488,
            "target": 34962
        },
        {
            "buffer": 0,
            "byteOffset": 230584,
            "byteLength": 26744,
            "target": 34962
        },
        {
            "buffer": 0,
            "byteOffset": 257328,
            "byteLength": 73728,
            "target": 34963
        },
        {
            "buffer": 0,
            "byteOffset": 331056,
            "byteLength": 144828,
            "target": 34962
        },
        {
            "buffer": 0,
            "byteOffset": 475884,
            "byteLength": 144828,
            "target": 34962
        },
        {
            "buffer": 0,
            "byteOffset": 620712,
            "byteLength": 193104,
            "target": 34962
        },
        {
            "buffer": 0,
            "byteOffset": 813816,
            "byteLength": 96552,
            "target": 34962
        },
        {
            "buffer": 0,
            "byteOffset": 910368,
            "byteLength": 277104,
            "target": 34963
        },
        {
            "buffer": 0,
            "byteOffset": 1187472,
            "byteLength": 7920,
            "target": 34962
        },
        {
            "buffer": 0,
            "byteOffset": 1195392,
            "byteLength": 7920,
            "target": 34962
        },
        {
            "buffer": 0,
            "byteOffset": 1203312,
            "byteLength": 10560,
            "target": 34962
        },
        {
            "buffer": 0,
            "byteOffset": 1213872,
            "byteLength": 5280,
            "target": 34962
        },
        {
            "buffer": 0,
            "byteOffset": 1219152,
            "byteLength": 14016,
            "target": 34963
        },
        {
            "buffer": 0,
            "byteOffset": 1233168,
            "byteLength": 79656,
            "target": 34962
        },
        {
            "buffer": 0,
            "byteOffset": 1312824,
            "byteLength": 79656,
            "target": 34962
        },
        {
            "buffer": 0,
            "byteOffset": 1392480,
            "byteLength": 106208,
            "target": 34962
        },
        {
            "buffer": 0,
            "byteOffset": 1498688,
            "byteLength": 53104,
            "target": 34962
        },
        {
            "buffer": 0,
            "byteOffset": 1551792,
            "byteLength": 93360,
            "target": 34963
        },
        {
            "buffer": 0,
            "byteOffset": 1645152,
            "byteLength": 79656,
            "target": 34962
        },
        {
            "buffer": 0,
            "byteOffset": 1724808,
            "byteLength": 79656,
            "target": 34962
        },
        {
            "buffer": 0,
            "byteOffset": 1804464,
            "byteLength": 106208,
            "target": 34962
        },
        {
            "buffer": 0,
            "byteOffset": 1910672,
            "byteLength": 53104,
            "target": 34962
        },
        {
            "buffer": 0,
            "byteOffset": 1963776,
            "byteLength": 54336,
            "target": 34962
        },
        {
            "buffer": 0,
            "byteOffset": 2018112,
            "byteLength": 54336,
            "target": 34962
        },
        {
            "buffer": 0,
            "byteOffset": 2072448,
            "byteLength": 72448,
            "target": 34962
        },
        {
            "buffer": 0,
            "byteOffset": 2144896,
            "byteLength": 36224,
            "target": 34962
        },
        {
            "buffer": 0,
            "byteOffset": 2181120,
            "byteLength": 64752,
            "target": 34963
        },
        {
            "buffer": 0,
            "byteOffset": 2245872,
            "byteLength": 30684,
            "target": 34962
        },
        {
            "buffer": 0,
            "byteOffset": 2276556,
            "byteLength": 30684,
            "target": 34962
        },
        {
            "buffer": 0,
            "byteOffset": 2307240,
            "byteLength": 40912,
            "target": 34962
        },
        {
            "buffer": 0,
            "byteOffset": 2348152,
            "byteLength": 20456,
            "target": 34962
        },
        {
            "buffer": 0,
            "byteOffset": 2368608,
            "byteLength": 36264,
            "target": 34963
        },
        {
            "buffer": 0,
            "byteOffset": 2404872,
            "byteLength": 42420,
            "target": 34962
        },
        {
            "buffer": 0,
            "byteOffset": 2447292,
            "byteLength": 42420,
            "target": 34962
        },
        {
            "buffer": 0,
            "byteOffset": 2489712,
            "byteLength": 56560,
            "target": 34962
        },
        {
            "buffer": 0,
            "byteOffset": 2546272,
            "byteLength": 28280,
            "target": 34962
        },
        {
            "buffer": 0,
            "byteOffset": 2574552,
            "byteLength": 50232,
            "target": 34963
        },
        {
            "buffer": 0,
            "byteOffset": 2624784,
            "byteLength": 42420,
            "target": 34962
        },
        {
            "buffer": 0,
            "byteOffset": 2667204,
            "byteLength": 42420,
            "target": 34962
        },
        {
            "buffer": 0,
            "byteOffset": 2709624,
            "byteLength": 56560,
            "target": 34962
        },
        {
            "buffer": 0,
            "byteOffset": 2766184,
            "byteLength": 28280,
            "target": 34962
        },
        {
            "buffer": 0,
            "byteOffset": 2794464,
            "byteLength": 186936,
            "target": 34962
        },
        {
            "buffer": 0,
            "byteOffset": 2981400,
            "byteLength": 186936,
            "target": 34962
        },
        {
            "buffer": 0,
            "byteOffset": 3168336,
            "byteLength": 249248,
            "target": 34962
        },
        {
            "buffer": 0,
            "byteOffset": 3417584,
            "byteLength": 124624,
            "target": 34962
        },
        {
            "buffer": 0,
            "byteOffset": 3542208,
            "byteLength": 220608,
            "target": 34963
        },
        {
            "buffer": 0,
            "byteOffset": 3762816,
            "byteLength": 234252,
            "target": 34962
        },
        {
            "buffer": 0,
            "byteOffset": 3997068,
            "byteLength": 234252,
            "target": 34962
        },
        {
            "buffer": 0,
            "byteOffset": 4231320,
            "byteLength": 312336,
            "target": 34962
        },
        {
            "buffer": 0,
            "byteOffset": 4543656,
            "byteLength": 156168,
            "target": 34962
        },
        {
            "buffer": 0,
            "byteOffset": 4699824,
            "byteLength": 276456,
            "target": 34963
        }
    ],
    "buffers": [
        {
            "byteLength": 4976280,
            "uri": "ScatterStrength_binary.bin"
        }
    ],
    "images": [
        {
            "name": "ambient",
            "uri": "ScatterStrength_images/ambient.png",
            "mimeType": "image/png"
        },
        {
            "name": "thickness",
            "uri": "ScatterStrength_images/thickness.png",
            "mimeType": "image/png"
        },
        {
            "name": "sss_bars (Base Color)",
            "uri": "ScatterStrength_images/sss_bars (Base Color).jpg",
            "mimeType": "image/jpeg"
        },
        {
            "name": "texture27274",
            "uri": "ScatterStrength_images/texture27274.png",
            "mimeType": "image/png"
        },
        {
            "name": "texture26830_thickness",
            "uri": "ScatterStrength_images/texture26830_thickness.png",
            "mimeType": "image/png"
        }
    ],
    "materials": [
        {
            "pbrMetallicRoughness": {
                "baseColorFactor": [
                    0.17999988794326783,
                    0.17999988794326783,
                    0.17999988794326783,
                    1.0
                ],
                "metallicFactor": 0.0
            },
            "occlusionTexture": {
                "index": 0
            },
            "name": "core5",
            "doubleSided": true
        },
        {
            "pbrMetallicRoughness": {
                "metallicFactor": 0.0,
                "roughnessFactor": 0.30000001192092898,
                "baseColorFactor": [
                    0.81960784,
                    0.34117647,
                    0.34117647,
                    1
                ]
            },
            "name": "transTex-strengthTex",
            "extensions": {
                "KHR_materials_transmission": {
                    "transmissionFactor": 1,
                    "transmissionTexture": {
                        "index": 4
                    }
                },
                "KHR_materials_volume": {
                    "thicknessFactor": 1,
                    "thicknessTexture": {
                        "index": 4
                    }
                },
                "KHR_materials_scatter": {
                    "scatterStrengthFactor": 1,
                    "scatterStrengthTexture": {
                        "index": 3,
                        "extensions": {
                            "KHR_texture_transform": {
                                "offset": [
                                    -0.9999999403953552,
                                    0.9999999403953552
                                ],
                                "rotation": 1.5707963705062867,
                                "scale": [
                                    1,
                                    1
                                ]
                            }
                        }
                    },
                    "multiscatterColorFactor": [
                        0.8000006675720215,
                        0.8000006675720215,
                        0.09999988228082658
                    ]
                }
            }
        },
        {
            "pbrMetallicRoughness": {
                "baseColorTexture": {
                    "index": 2
                },
                "metallicFactor": 0.0
            },
            "name": "sss_bars5",
            "doubleSided": true
        },
        {
            "pbrMetallicRoughness": {
                "metallicFactor": 0.0,
                "roughnessFactor": 0.30000001192092898,
                "baseColorFactor": [
                    0.81960784,
                    0.34117647,
                    0.34117647,
                    1
                ]
            },
            "name": "trans1-strengthTex",
            "extensions": {
                "KHR_materials_volume": {
                    "thicknessFactor": 1,
                    "thicknessTexture": {
                        "index": 4
                    }
                },
                "KHR_materials_scatter": {
                    "scatterStrengthFactor": 1,
                    "scatterStrengthTexture": {
                        "index": 3,
                        "extensions": {
                            "KHR_texture_transform": {
                                "offset": [
                                    -0.9999999403953552,
                                    0.9999999403953552
                                ],
                                "rotation": 1.5707963705062867,
                                "scale": [
                                    1,
                                    1
                                ]
                            }
                        }
                    },
                    "multiscatterColorFactor": [
                        0.8000006675720215,
                        0.8000006675720215,
                        0.09999988228082658
                    ]
                },
                "KHR_materials_transmission": {
                    "transmissionFactor": 1
                }
            }
        },
        {
            "pbrMetallicRoughness": {
                "metallicFactor": 0.0,
                "roughnessFactor": 0.30000001192092898,
                "baseColorFactor": [
                    0.81960784,
                    0.34117647,
                    0.34117647,
                    1
                ]
            },
            "name": "transTex-stength1",
            "extensions": {
                "KHR_materials_volume": {
                    "thicknessFactor": 1,
                    "thicknessTexture": {
                        "index": 4
                    }
                },
                "KHR_materials_transmission": {
                    "transmissionFactor": 1,
                    "transmissionTexture": {
                        "index": 4
                    }
                },
                "KHR_materials_scatter": {
                    "scatterStrengthFactor": 1,
                    "multiscatterColorFactor": [
                        0.8000006675720215,
                        0.8000006675720215,
                        0.09999988228082658
                    ]
                }
            }
        },
        {
            "pbrMetallicRoughness": {
                "metallicFactor": 0.0,
                "roughnessFactor": 0.30000001192092898,
                "baseColorFactor": [
                    0.81960784,
                    0.34117647,
                    0.34117647,
                    1
                ]
            },
            "name": "trans1-stength1",
            "extensions": {
                "KHR_materials_volume": {
                    "thicknessFactor": 1,
                    "thicknessTexture": {
                        "index": 4
                    }
                },
                "KHR_materials_transmission": {
                    "transmissionFactor": 1
                },
                "KHR_materials_scatter": {
                    "scatterStrengthFactor": 1,
                    "multiscatterColorFactor": [
                        0.8000006675720215,
                        0.8000006675720215,
                        0.09999988228082658
                    ]
                }
            }
        },
        {
            "pbrMetallicRoughness": {
                "metallicFactor": 0.0,
                "roughnessFactor": 0.30000001192092898,
                "baseColorFactor": [
                    0.81960784,
                    0.34117647,
                    0.34117647,
                    1
                ]
            },
            "name": "transTex-stength0.5",
            "extensions": {
                "KHR_materials_volume": {
                    "thicknessFactor": 1,
                    "thicknessTexture": {
                        "index": 4
                    }
                },
                "KHR_materials_transmission": {
                    "transmissionFactor": 1,
                    "transmissionTexture": {
                        "index": 4
                    }
                },
                "KHR_materials_scatter": {
                    "scatterStrengthFactor": 0.5,
                    "multiscatterColorFactor": [
                        0.8000006675720215,
                        0.8000006675720215,
                        0.09999988228082658
                    ]
                }
            }
        },
        {
            "pbrMetallicRoughness": {
                "metallicFactor": 0.0,
                "roughnessFactor": 0.30000001192092898,
                "baseColorFactor": [
                    0.81960784,
                    0.34117647,
                    0.34117647,
                    1
                ]
            },
            "name": "trans0.5-stength0.5",
            "extensions": {
                "KHR_materials_volume": {
                    "thicknessFactor": 1,
                    "thicknessTexture": {
                        "index": 4
                    }
                },
                "KHR_materials_transmission": {
                    "transmissionFactor": 0.5
                },
                "KHR_materials_scatter": {
                    "scatterStrengthFactor": 0.5,
                    "multiscatterColorFactor": [
                        0.8000006675720215,
                        0.8000006675720215,
                        0.09999988228082658
                    ]
                }
            }
        },
        {
            "pbrMetallicRoughness": {
                "metallicFactor": 0.0,
                "roughnessFactor": 0.30000001192092898,
                "baseColorFactor": [
                    0.81960784,
                    0.34117647,
                    0.34117647,
                    1
                ]
            },
            "name": "trans0.5-strengthTex",
            "extensions": {
                "KHR_materials_volume": {
                    "thicknessFactor": 1,
                    "thicknessTexture": {
                        "index": 4
                    }
                },
                "KHR_materials_scatter": {
                    "scatterStrengthFactor": 1,
                    "scatterStrengthTexture": {
                        "index": 3,
                        "extensions": {
                            "KHR_texture_transform": {
                                "offset": [
                                    -0.9999999403953552,
                                    0.9999999403953552
                                ],
                                "rotation": 1.5707963705062867,
                                "scale": [
                                    1,
                                    1
                                ]
                            }
                        }
                    },
                    "multiscatterColorFactor": [
                        0.8000006675720215,
                        0.8000006675720215,
                        0.09999988228082658
                    ]
                },
                "KHR_materials_transmission": {
                    "transmissionFactor": 0.5
                }
            }
        },
        {
            "pbrMetallicRoughness": {
                "metallicFactor": 0.0,
                "roughnessFactor": 0.30000001192092898,
                "baseColorFactor": [
                    0.81960784,
                    0.34117647,
                    0.34117647,
                    1
                ]
            },
            "name": "trans1-stength0.5",
            "extensions": {
                "KHR_materials_volume": {
                    "thicknessFactor": 1,
                    "thicknessTexture": {
                        "index": 4
                    }
                },
                "KHR_materials_scatter": {
                    "scatterStrengthFactor": 0.5,
                    "multiscatterColorFactor": [
                        0.8000006675720215,
                        0.8000006675720215,
                        0.09999988228082658
                    ]
                },
                "KHR_materials_transmission": {
                    "transmissionFactor": 1
                }
            }
        },
        {
            "pbrMetallicRoughness": {
                "metallicFactor": 0.0,
                "roughnessFactor": 0.30000001192092898,
                "baseColorFactor": [
                    0.81960784,
                    0.34117647,
                    0.34117647,
                    1
                ]
            },
            "name": "trans0.5-stength1",
            "extensions": {
                "KHR_materials_volume": {
                    "thicknessFactor": 1,
                    "thicknessTexture": {
                        "index": 4
                    }
                },
                "KHR_materials_scatter": {
                    "scatterStrengthFactor": 1,
                    "multiscatterColorFactor": [
                        0.8000006675720215,
                        0.8000006675720215,
                        0.09999988228082658
                    ]
                },
                "KHR_materials_transmission": {
                    "transmissionFactor": 0.5
                }
            }
        },
        {
            "pbrMetallicRoughness": {
                "metallicFactor": 0.0,
                "roughnessFactor": 0.30000001192092898,
                "baseColorFactor": [
                    0.81960784,
                    0.34117647,
                    0.34117647,
                    1
                ]
            },
            "name": "transTex-stength0.0",
            "extensions": {
                "KHR_materials_volume": {
                    "thicknessFactor": 1,
                    "thicknessTexture": {
                        "index": 4
                    }
                },
                "KHR_materials_scatter": {
                    "scatterStrengthFactor": 0.0,
                    "multiscatterColorFactor": [
                        0.8000006675720215,
                        0.8000006675720215,
                        0.09999988228082658
                    ]
                },
                "KHR_materials_transmission": {
                    "transmissionFactor": 1,
                    "transmissionTexture": {
                        "index": 4
                    }
                }
            }
        },
        {
            "pbrMetallicRoughness": {
                "metallicFactor": 0.0,
                "roughnessFactor": 0.30000001192092898,
                "baseColorFactor": [
                    0.81960784,
                    0.34117647,
                    0.34117647,
                    1
                ]
            },
            "name": "trans0.5-stength0.0",
            "extensions": {
                "KHR_materials_volume": {
                    "thicknessFactor": 1,
                    "thicknessTexture": {
                        "index": 4
                    }
                },
                "KHR_materials_scatter": {
                    "scatterStrengthFactor": 0,
                    "multiscatterColorFactor": [
                        0.8000006675720215,
                        0.8000006675720215,
                        0.09999988228082658
                    ]
                },
                "KHR_materials_transmission": {
                    "transmissionFactor": 0.5
                }
            }
        },
        {
            "pbrMetallicRoughness": {
                "metallicFactor": 0.0,
                "roughnessFactor": 0.30000001192092898,
                "baseColorFactor": [
                    0.81960784,
                    0.34117647,
                    0.34117647,
                    1
                ]
            },
            "name": "trans1-stength0.0",
            "extensions": {
                "KHR_materials_volume": {
                    "thicknessFactor": 1,
                    "thicknessTexture": {
                        "index": 4
                    }
                },
                "KHR_materials_scatter": {
                    "scatterStrengthFactor": 0,
                    "multiscatterColorFactor": [
                        0.8000006675720215,
                        0.8000006675720215,
                        0.09999988228082658
                    ]
                },
                "KHR_materials_transmission": {
                    "transmissionFactor": 1
                }
            }
        },
        {
            "pbrMetallicRoughness": {
                "baseColorFactor": [
                    0.5000001192092896,
                    0.5000001192092896,
                    0.5000001192092896,
                    1.0
                ],
                "metallicFactor": 0.0,
                "roughnessFactor": 0.30000001192092898
            },
            "name": "default_material",
            "doubleSided": true
        }
    ],
    "meshes": [
        {
            "name": "ShaderBall_3_2-252Ebase_n3d",
            "primitives": [
                {
                    "attributes": {
                        "POSITION": 0,
                        "NORMAL": 1,
                        "TANGENT": 2,
                        "TEXCOORD_0": 3
                    },
                    "indices": 4,
                    "material": 0
                }
            ]
        },
        {
            "name": "ShaderBall_3_2-252Ecore_n3d",
            "primitives": [
                {
                    "attributes": {
                        "TEXCOORD_0": 8,
                        "TANGENT": 7,
                        "NORMAL": 6,
                        "POSITION": 5
                    },
                    "indices": 9,
                    "material": 0
                }
            ]
        },
        {
            "name": "ShaderBall_3_2-252Ematerial_surface_n3d",
            "primitives": [
                {
                    "attributes": {
                        "POSITION": 10,
                        "NORMAL": 11,
                        "TANGENT": 12,
                        "TEXCOORD_0": 13
                    },
                    "indices": 14,
                    "material": 1
                }
            ]
        },
        {
            "name": "ShaderBall_3_2-252Esss_bars_n3d",
            "primitives": [
                {
                    "attributes": {
                        "POSITION": 15,
                        "NORMAL": 16,
                        "TANGENT": 17,
                        "TEXCOORD_0": 18
                    },
                    "indices": 19,
                    "material": 2
                }
            ]
        },
        {
            "name": "ShaderBall_3_0-252Ebase_n3d",
            "primitives": [
                {
                    "attributes": {
                        "TEXCOORD_0": 3,
                        "TANGENT": 2,
                        "NORMAL": 1,
                        "POSITION": 0
                    },
                    "indices": 4,
                    "material": 0
                }
            ]
        },
        {
            "name": "ShaderBall_3_0-252Ecore_n3d",
            "primitives": [
                {
                    "attributes": {
                        "TEXCOORD_0": 8,
                        "TANGENT": 7,
                        "NORMAL": 6,
                        "POSITION": 5
                    },
                    "indices": 9,
                    "material": 0
                }
            ]
        },
        {
            "name": "ShaderBall_3_0-252Ematerial_surface_n3d",
            "primitives": [
                {
                    "attributes": {
                        "TEXCOORD_0": 13,
                        "TANGENT": 12,
                        "NORMAL": 11,
                        "POSITION": 10
                    },
                    "indices": 14,
                    "material": 3
                }
            ]
        },
        {
            "name": "ShaderBall_3_0-252Esss_bars_n3d",
            "primitives": [
                {
                    "attributes": {
                        "TEXCOORD_0": 18,
                        "TANGENT": 17,
                        "NORMAL": 16,
                        "POSITION": 15
                    },
                    "indices": 19,
                    "material": 2
                }
            ]
        },
        {
            "name": "ShaderBall_2_2-252Ebase_n3d",
            "primitives": [
                {
                    "attributes": {
                        "POSITION": 0,
                        "NORMAL": 1,
                        "TANGENT": 2,
                        "TEXCOORD_0": 3
                    },
                    "indices": 4,
                    "material": 0
                }
            ]
        },
        {
            "name": "ShaderBall_2_2-252Ecore_n3d",
            "primitives": [
                {
                    "attributes": {
                        "POSITION": 5,
                        "NORMAL": 6,
                        "TANGENT": 7,
                        "TEXCOORD_0": 8
                    },
                    "indices": 9,
                    "material": 0
                }
            ]
        },
        {
            "name": "ShaderBall_2_2-252Ematerial_surface_n3d",
            "primitives": [
                {
                    "attributes": {
                        "POSITION": 10,
                        "NORMAL": 11,
                        "TANGENT": 12,
                        "TEXCOORD_0": 13
                    },
                    "indices": 14,
                    "material": 4
                }
            ]
        },
        {
            "name": "ShaderBall_2_2-252Esss_bars_n3d",
            "primitives": [
                {
                    "attributes": {
                        "POSITION": 15,
                        "NORMAL": 16,
                        "TANGENT": 17,
                        "TEXCOORD_0": 18
                    },
                    "indices": 19,
                    "material": 2
                }
            ]
        },
        {
            "name": "ShaderBall_2_0-252Ebase_n3d",
            "primitives": [
                {
                    "attributes": {
                        "POSITION": 0,
                        "NORMAL": 1,
                        "TANGENT": 2,
                        "TEXCOORD_0": 3
                    },
                    "indices": 4,
                    "material": 0
                }
            ]
        },
        {
            "name": "ShaderBall_2_0-252Ecore_n3d",
            "primitives": [
                {
                    "attributes": {
                        "POSITION": 5,
                        "NORMAL": 6,
                        "TANGENT": 7,
                        "TEXCOORD_0": 8
                    },
                    "indices": 9,
                    "material": 0
                }
            ]
        },
        {
            "name": "ShaderBall_2_0-252Ematerial_surface_n3d",
            "primitives": [
                {
                    "attributes": {
                        "POSITION": 10,
                        "NORMAL": 11,
                        "TANGENT": 12,
                        "TEXCOORD_0": 13
                    },
                    "indices": 14,
                    "material": 5
                }
            ]
        },
        {
            "name": "ShaderBall_2_0-252Esss_bars_n3d",
            "primitives": [
                {
                    "attributes": {
                        "POSITION": 15,
                        "NORMAL": 16,
                        "TANGENT": 17,
                        "TEXCOORD_0": 18
                    },
                    "indices": 19,
                    "material": 2
                }
            ]
        },
        {
            "name": "ShaderBall_1_2-252Ebase_n3d",
            "primitives": [
                {
                    "attributes": {
                        "TEXCOORD_0": 3,
                        "TANGENT": 2,
                        "NORMAL": 1,
                        "POSITION": 0
                    },
                    "indices": 4,
                    "material": 0
                }
            ]
        },
        {
            "name": "ShaderBall_1_2-252Ecore_n3d",
            "primitives": [
                {
                    "attributes": {
                        "TEXCOORD_0": 8,
                        "TANGENT": 7,
                        "NORMAL": 6,
                        "POSITION": 5
                    },
                    "indices": 9,
                    "material": 0
                }
            ]
        },
        {
            "name": "ShaderBall_1_2-252Ematerial_surface_n3d",
            "primitives": [
                {
                    "attributes": {
                        "TEXCOORD_0": 13,
                        "TANGENT": 12,
                        "NORMAL": 11,
                        "POSITION": 10
                    },
                    "indices": 14,
                    "material": 6
                }
            ]
        },
        {
            "name": "ShaderBall_1_2-252Esss_bars_n3d",
            "primitives": [
                {
                    "attributes": {
                        "TEXCOORD_0": 18,
                        "TANGENT": 17,
                        "NORMAL": 16,
                        "POSITION": 15
                    },
                    "indices": 19,
                    "material": 2
                }
            ]
        },
        {
            "name": "ShaderBall_1_1-252Ebase_n3d",
            "primitives": [
                {
                    "attributes": {
                        "TEXCOORD_0": 3,
                        "TANGENT": 2,
                        "NORMAL": 1,
                        "POSITION": 0
                    },
                    "indices": 4,
                    "material": 0
                }
            ]
        },
        {
            "name": "ShaderBall_1_1-252Ecore_n3d",
            "primitives": [
                {
                    "attributes": {
                        "TEXCOORD_0": 8,
                        "TANGENT": 7,
                        "NORMAL": 6,
                        "POSITION": 5
                    },
                    "indices": 9,
                    "material": 0
                }
            ]
        },
        {
            "name": "ShaderBall_1_1-252Ematerial_surface_n3d",
            "primitives": [
                {
                    "attributes": {
                        "TEXCOORD_0": 13,
                        "TANGENT": 12,
                        "NORMAL": 11,
                        "POSITION": 10
                    },
                    "indices": 14,
                    "material": 7
                }
            ]
        },
        {
            "name": "ShaderBall_1_1-252Esss_bars_n3d",
            "primitives": [
                {
                    "attributes": {
                        "TEXCOORD_0": 18,
                        "TANGENT": 17,
                        "NORMAL": 16,
                        "POSITION": 15
                    },
                    "indices": 19,
                    "material": 2
                }
            ]
        },
        {
            "name": "ShaderBall_3_1-252Ebase_n3d",
            "primitives": [
                {
                    "attributes": {
                        "TEXCOORD_0": 3,
                        "TANGENT": 2,
                        "NORMAL": 1,
                        "POSITION": 0
                    },
                    "indices": 4,
                    "material": 0
                }
            ]
        },
        {
            "name": "ShaderBall_3_1-252Ecore_n3d",
            "primitives": [
                {
                    "attributes": {
                        "TEXCOORD_0": 8,
                        "TANGENT": 7,
                        "NORMAL": 6,
                        "POSITION": 5
                    },
                    "indices": 9,
                    "material": 0
                }
            ]
        },
        {
            "name": "ShaderBall_3_1-252Ematerial_surface_n3d",
            "primitives": [
                {
                    "attributes": {
                        "TEXCOORD_0": 13,
                        "TANGENT": 12,
                        "NORMAL": 11,
                        "POSITION": 10
                    },
                    "indices": 14,
                    "material": 8
                }
            ]
        },
        {
            "name": "ShaderBall_3_1-252Esss_bars_n3d",
            "primitives": [
                {
                    "attributes": {
                        "TEXCOORD_0": 18,
                        "TANGENT": 17,
                        "NORMAL": 16,
                        "POSITION": 15
                    },
                    "indices": 19,
                    "material": 2
                }
            ]
        },
        {
            "name": "ShaderBall_1_0-252Ebase_n3d",
            "primitives": [
                {
                    "attributes": {
                        "TEXCOORD_0": 3,
                        "TANGENT": 2,
                        "NORMAL": 1,
                        "POSITION": 0
                    },
                    "indices": 4,
                    "material": 0
                }
            ]
        },
        {
            "name": "ShaderBall_1_0-252Ecore_n3d",
            "primitives": [
                {
                    "attributes": {
                        "TEXCOORD_0": 8,
                        "TANGENT": 7,
                        "NORMAL": 6,
                        "POSITION": 5
                    },
                    "indices": 9,
                    "material": 0
                }
            ]
        },
        {
            "name": "ShaderBall_1_0-252Ematerial_surface_n3d",
            "primitives": [
                {
                    "attributes": {
                        "TEXCOORD_0": 13,
                        "TANGENT": 12,
                        "NORMAL": 11,
                        "POSITION": 10
                    },
                    "indices": 14,
                    "material": 9
                }
            ]
        },
        {
            "name": "ShaderBall_1_0-252Esss_bars_n3d",
            "primitives": [
                {
                    "attributes": {
                        "TEXCOORD_0": 18,
                        "TANGENT": 17,
                        "NORMAL": 16,
                        "POSITION": 15
                    },
                    "indices": 19,
                    "material": 2
                }
            ]
        },
        {
            "name": "ShaderBall_2_1-252Ebase_n3d",
            "primitives": [
                {
                    "attributes": {
                        "POSITION": 0,
                        "NORMAL": 1,
                        "TANGENT": 2,
                        "TEXCOORD_0": 3
                    },
                    "indices": 4,
                    "material": 0
                }
            ]
        },
        {
            "name": "ShaderBall_2_1-252Ecore_n3d",
            "primitives": [
                {
                    "attributes": {
                        "POSITION": 5,
                        "NORMAL": 6,
                        "TANGENT": 7,
                        "TEXCOORD_0": 8
                    },
                    "indices": 9,
                    "material": 0
                }
            ]
        },
        {
            "name": "ShaderBall_2_1-252Ematerial_surface_n3d",
            "primitives": [
                {
                    "attributes": {
                        "POSITION": 10,
                        "NORMAL": 11,
                        "TANGENT": 12,
                        "TEXCOORD_0": 13
                    },
                    "indices": 14,
                    "material": 10
                }
            ]
        },
        {
            "name": "ShaderBall_2_1-252Esss_bars_n3d",
            "primitives": [
                {
                    "attributes": {
                        "POSITION": 15,
                        "NORMAL": 16,
                        "TANGENT": 17,
                        "TEXCOORD_0": 18
                    },
                    "indices": 19,
                    "material": 2
                }
            ]
        },
        {
            "name": "ShaderBall_0_2-252Ebase_n3d",
            "primitives": [
                {
                    "attributes": {
                        "POSITION": 0,
                        "NORMAL": 1,
                        "TANGENT": 2,
                        "TEXCOORD_0": 3
                    },
                    "indices": 4,
                    "material": 0
                }
            ]
        },
        {
            "name": "ShaderBall_0_2-252Ecore_n3d",
            "primitives": [
                {
                    "attributes": {
                        "POSITION": 5,
                        "NORMAL": 6,
                        "TANGENT": 7,
                        "TEXCOORD_0": 8
                    },
                    "indices": 9,
                    "material": 0
                }
            ]
        },
        {
            "name": "ShaderBall_0_2-252Ematerial_surface_n3d",
            "primitives": [
                {
                    "attributes": {
                        "POSITION": 10,
                        "NORMAL": 11,
                        "TANGENT": 12,
                        "TEXCOORD_0": 13
                    },
                    "indices": 14,
                    "material": 11
                }
            ]
        },
        {
            "name": "ShaderBall_0_2-252Esss_bars_n3d",
            "primitives": [
                {
                    "attributes": {
                        "POSITION": 15,
                        "NORMAL": 16,
                        "TANGENT": 17,
                        "TEXCOORD_0": 18
                    },
                    "indices": 19,
                    "material": 2
                }
            ]
        },
        {
            "name": "ShaderBall_0_1-252Ebase_n3d",
            "primitives": [
                {
                    "attributes": {
                        "POSITION": 0,
                        "NORMAL": 1,
                        "TANGENT": 2,
                        "TEXCOORD_0": 3
                    },
                    "indices": 4,
                    "material": 0
                }
            ]
        },
        {
            "name": "ShaderBall_0_1-252Ecore_n3d",
            "primitives": [
                {
                    "attributes": {
                        "POSITION": 5,
                        "NORMAL": 6,
                        "TANGENT": 7,
                        "TEXCOORD_0": 8
                    },
                    "indices": 9,
                    "material": 0
                }
            ]
        },
        {
            "name": "ShaderBall_0_1-252Ematerial_surface_n3d",
            "primitives": [
                {
                    "attributes": {
                        "POSITION": 10,
                        "NORMAL": 11,
                        "TANGENT": 12,
                        "TEXCOORD_0": 13
                    },
                    "indices": 14,
                    "material": 12
                }
            ]
        },
        {
            "name": "ShaderBall_0_1-252Esss_bars_n3d",
            "primitives": [
                {
                    "attributes": {
                        "POSITION": 15,
                        "NORMAL": 16,
                        "TANGENT": 17,
                        "TEXCOORD_0": 18
                    },
                    "indices": 19,
                    "material": 2
                }
            ]
        },
        {
            "name": "base_n3d",
            "primitives": [
                {
                    "attributes": {
                        "POSITION": 0,
                        "NORMAL": 1,
                        "TANGENT": 2,
                        "TEXCOORD_0": 3
                    },
                    "indices": 4,
                    "material": 0
                }
            ]
        },
        {
            "name": "core_n3d",
            "primitives": [
                {
                    "attributes": {
                        "POSITION": 5,
                        "NORMAL": 6,
                        "TANGENT": 7,
                        "TEXCOORD_0": 8
                    },
                    "indices": 9,
                    "material": 0
                }
            ]
        },
        {
            "name": "material_surface_n3d",
            "primitives": [
                {
                    "attributes": {
                        "POSITION": 10,
                        "NORMAL": 11,
                        "TANGENT": 12,
                        "TEXCOORD_0": 13
                    },
                    "indices": 14,
                    "material": 13
                }
            ]
        },
        {
            "name": "sss_bars_n3d",
            "primitives": [
                {
                    "attributes": {
                        "POSITION": 15,
                        "NORMAL": 16,
                        "TANGENT": 17,
                        "TEXCOORD_0": 18
                    },
                    "indices": 19,
                    "material": 2
                }
            ]
        },
        {
            "name": "text#",
            "primitives": [
                {
                    "attributes": {
                        "POSITION": 20,
                        "NORMAL": 21,
                        "TANGENT": 22,
                        "TEXCOORD_0": 23
                    },
                    "indices": 24,
                    "material": 14
                }
            ]
        },
        {
            "name": "text#",
            "primitives": [
                {
                    "attributes": {
                        "POSITION": 25,
                        "NORMAL": 26,
                        "TANGENT": 27,
                        "TEXCOORD_0": 28
                    },
                    "indices": 24,
                    "material": 14
                }
            ]
        },
        {
            "name": "text#",
            "primitives": [
                {
                    "attributes": {
                        "POSITION": 29,
                        "NORMAL": 30,
                        "TANGENT": 31,
                        "TEXCOORD_0": 32
                    },
                    "indices": 33,
                    "material": 14
                }
            ]
        },
        {
            "name": "text#",
            "primitives": [
                {
                    "attributes": {
                        "POSITION": 34,
                        "NORMAL": 35,
                        "TANGENT": 36,
                        "TEXCOORD_0": 37
                    },
                    "indices": 38,
                    "material": 14
                }
            ]
        },
        {
            "name": "text#",
            "primitives": [
                {
                    "attributes": {
                        "POSITION": 39,
                        "NORMAL": 40,
                        "TANGENT": 41,
                        "TEXCOORD_0": 42
                    },
                    "indices": 43,
                    "material": 14
                }
            ]
        },
        {
            "name": "text#",
            "primitives": [
                {
                    "attributes": {
                        "POSITION": 44,
                        "NORMAL": 45,
                        "TANGENT": 46,
                        "TEXCOORD_0": 47
                    },
                    "indices": 43,
                    "material": 14
                }
            ]
        },
        {
            "name": "text#",
            "primitives": [
                {
                    "attributes": {
                        "POSITION": 34,
                        "NORMAL": 35,
                        "TANGENT": 36,
                        "TEXCOORD_0": 37
                    },
                    "indices": 38,
                    "material": 14
                }
            ]
        },
        {
            "name": "text#",
            "primitives": [
                {
                    "attributes": {
                        "POSITION": 48,
                        "NORMAL": 49,
                        "TANGENT": 50,
                        "TEXCOORD_0": 51
                    },
                    "indices": 52,
                    "material": 14
                }
            ]
        },
        {
            "name": "text#",
            "primitives": [
                {
                    "attributes": {
                        "POSITION": 53,
                        "NORMAL": 54,
                        "TANGENT": 55,
                        "TEXCOORD_0": 56
                    },
                    "indices": 57,
                    "material": 14
                }
            ]
        }
    ],
    "nodes": [
        {
            "name": "working_cam_n3d"
        },
        {
            "children": [
                2,
                3,
                4,
                5
            ],
            "translation": [
                0.1891280859708786,
                0.16409268975257874,
                0.0000033950807392102435
            ],
            "name": "ShaderBall_3_2_n3d"
        },
        {
            "scale": [
                0.009999999776482582,
                0.009999999776482582,
                0.009999999776482582
            ],
            "mesh": 0,
            "name": "base"
        },
        {
            "scale": [
                0.009999999776482582,
                0.009999999776482582,
                0.009999999776482582
            ],
            "mesh": 1,
            "name": "core"
        },
        {
            "scale": [
                0.009999999776482582,
                0.009999999776482582,
                0.009999999776482582
            ],
            "mesh": 2,
            "name": "material_surface"
        },
        {
            "scale": [
                0.009999999776482582,
                0.009999999776482582,
                0.009999999776482582
            ],
            "mesh": 3,
            "name": "sss_bars"
        },
        {
            "children": [
                7,
                8,
                9,
                10
            ],
            "translation": [
                0.1891280859708786,
                0.0,
                0.0000033950807392102435
            ],
            "name": "ShaderBall_3_0_n3d"
        },
        {
            "scale": [
                0.009999999776482582,
                0.009999999776482582,
                0.009999999776482582
            ],
            "mesh": 4,
            "name": "base"
        },
        {
            "scale": [
                0.009999999776482582,
                0.009999999776482582,
                0.009999999776482582
            ],
            "mesh": 5,
            "name": "core"
        },
        {
            "scale": [
                0.009999999776482582,
                0.009999999776482582,
                0.009999999776482582
            ],
            "mesh": 6,
            "name": "material_surface"
        },
        {
            "scale": [
                0.009999999776482582,
                0.009999999776482582,
                0.009999999776482582
            ],
            "mesh": 7,
            "name": "sss_bars"
        },
        {
            "children": [
                12,
                13,
                14,
                15
            ],
            "translation": [
                0.09989245235919953,
                0.16409268975257874,
                0.0000033950807392102435
            ],
            "name": "ShaderBall_2_2_n3d"
        },
        {
            "scale": [
                0.009999999776482582,
                0.009999999776482582,
                0.009999999776482582
            ],
            "mesh": 8,
            "name": "base"
        },
        {
            "scale": [
                0.009999999776482582,
                0.009999999776482582,
                0.009999999776482582
            ],
            "mesh": 9,
            "name": "core"
        },
        {
            "scale": [
                0.009999999776482582,
                0.009999999776482582,
                0.009999999776482582
            ],
            "mesh": 10,
            "name": "material_surface"
        },
        {
            "scale": [
                0.009999999776482582,
                0.009999999776482582,
                0.009999999776482582
            ],
            "mesh": 11,
            "name": "sss_bars"
        },
        {
            "children": [
                17,
                18,
                19,
                20
            ],
            "translation": [
                0.09989245235919953,
                0.0,
                0.0000033950807392102435
            ],
            "name": "ShaderBall_2_0_n3d"
        },
        {
            "scale": [
                0.009999999776482582,
                0.009999999776482582,
                0.009999999776482582
            ],
            "mesh": 12,
            "name": "base"
        },
        {
            "scale": [
                0.009999999776482582,
                0.009999999776482582,
                0.009999999776482582
            ],
            "mesh": 13,
            "name": "core"
        },
        {
            "scale": [
                0.009999999776482582,
                0.009999999776482582,
                0.009999999776482582
            ],
            "mesh": 14,
            "name": "material_surface"
        },
        {
            "scale": [
                0.009999999776482582,
                0.009999999776482582,
                0.009999999776482582
            ],
            "mesh": 15,
            "name": "sss_bars"
        },
        {
            "children": [
                22,
                23,
                24,
                25
            ],
            "translation": [
                0.010656800121068955,
                0.16409268975257874,
                0.0000033950807392102435
            ],
            "name": "ShaderBall_1_2_n3d"
        },
        {
            "scale": [
                0.009999999776482582,
                0.009999999776482582,
                0.009999999776482582
            ],
            "mesh": 16,
            "name": "base"
        },
        {
            "scale": [
                0.009999999776482582,
                0.009999999776482582,
                0.009999999776482582
            ],
            "mesh": 17,
            "name": "core"
        },
        {
            "scale": [
                0.009999999776482582,
                0.009999999776482582,
                0.009999999776482582
            ],
            "mesh": 18,
            "name": "material_surface"
        },
        {
            "scale": [
                0.009999999776482582,
                0.009999999776482582,
                0.009999999776482582
            ],
            "mesh": 19,
            "name": "sss_bars"
        },
        {
            "children": [
                27,
                28,
                29,
                30
            ],
            "translation": [
                0.010656800121068955,
                0.08204634487628937,
                0.0000033950807392102435
            ],
            "name": "ShaderBall_1_1_n3d"
        },
        {
            "scale": [
                0.009999999776482582,
                0.009999999776482582,
                0.009999999776482582
            ],
            "mesh": 20,
            "name": "base"
        },
        {
            "scale": [
                0.009999999776482582,
                0.009999999776482582,
                0.009999999776482582
            ],
            "mesh": 21,
            "name": "core"
        },
        {
            "scale": [
                0.009999999776482582,
                0.009999999776482582,
                0.009999999776482582
            ],
            "mesh": 22,
            "name": "material_surface"
        },
        {
            "scale": [
                0.009999999776482582,
                0.009999999776482582,
                0.009999999776482582
            ],
            "mesh": 23,
            "name": "sss_bars"
        },
        {
            "children": [
                32,
                33,
                34,
                35
            ],
            "translation": [
                0.1891280859708786,
                0.08204634487628937,
                0.0000033950807392102435
            ],
            "name": "ShaderBall_3_1_n3d"
        },
        {
            "scale": [
                0.009999999776482582,
                0.009999999776482582,
                0.009999999776482582
            ],
            "mesh": 24,
            "name": "base"
        },
        {
            "scale": [
                0.009999999776482582,
                0.009999999776482582,
                0.009999999776482582
            ],
            "mesh": 25,
            "name": "core"
        },
        {
            "scale": [
                0.009999999776482582,
                0.009999999776482582,
                0.009999999776482582
            ],
            "mesh": 26,
            "name": "material_surface"
        },
        {
            "scale": [
                0.009999999776482582,
                0.009999999776482582,
                0.009999999776482582
            ],
            "mesh": 27,
            "name": "sss_bars"
        },
        {
            "children": [
                37,
                38,
                39,
                40
            ],
            "translation": [
                0.010656800121068955,
                0.0,
                0.0000033950807392102435
            ],
            "name": "ShaderBall_1_0_n3d"
        },
        {
            "scale": [
                0.009999999776482582,
                0.009999999776482582,
                0.009999999776482582
            ],
            "mesh": 28,
            "name": "base"
        },
        {
            "scale": [
                0.009999999776482582,
                0.009999999776482582,
                0.009999999776482582
            ],
            "mesh": 29,
            "name": "core"
        },
        {
            "scale": [
                0.009999999776482582,
                0.009999999776482582,
                0.009999999776482582
            ],
            "mesh": 30,
            "name": "material_surface"
        },
        {
            "scale": [
                0.009999999776482582,
                0.009999999776482582,
                0.009999999776482582
            ],
            "mesh": 31,
            "name": "sss_bars"
        },
        {
            "children": [
                42,
                43,
                44,
                45
            ],
            "translation": [
                0.09989245235919953,
                0.08204634487628937,
                0.0000033950807392102435
            ],
            "name": "ShaderBall_2_1_n3d"
        },
        {
            "scale": [
                0.009999999776482582,
                0.009999999776482582,
                0.009999999776482582
            ],
            "mesh": 32,
            "name": "base"
        },
        {
            "scale": [
                0.009999999776482582,
                0.009999999776482582,
                0.009999999776482582
            ],
            "mesh": 33,
            "name": "core"
        },
        {
            "scale": [
                0.009999999776482582,
                0.009999999776482582,
                0.009999999776482582
            ],
            "mesh": 34,
            "name": "material_surface"
        },
        {
            "scale": [
                0.009999999776482582,
                0.009999999776482582,
                0.009999999776482582
            ],
            "mesh": 35,
            "name": "sss_bars"
        },
        {
            "children": [
                47,
                48,
                49,
                50
            ],
            "translation": [
                -0.07857885956764221,
                0.16409268975257874,
                0.0000033950807392102435
            ],
            "name": "ShaderBall_0_2_n3d"
        },
        {
            "scale": [
                0.009999999776482582,
                0.009999999776482582,
                0.009999999776482582
            ],
            "mesh": 36,
            "name": "base"
        },
        {
            "scale": [
                0.009999999776482582,
                0.009999999776482582,
                0.009999999776482582
            ],
            "mesh": 37,
            "name": "core"
        },
        {
            "scale": [
                0.009999999776482582,
                0.009999999776482582,
                0.009999999776482582
            ],
            "mesh": 38,
            "name": "material_surface"
        },
        {
            "scale": [
                0.009999999776482582,
                0.009999999776482582,
                0.009999999776482582
            ],
            "mesh": 39,
            "name": "sss_bars"
        },
        {
            "children": [
                52,
                53,
                54,
                55
            ],
            "translation": [
                -0.07857885956764221,
                0.08204634487628937,
                0.0000033950807392102435
            ],
            "name": "ShaderBall_0_1_n3d"
        },
        {
            "scale": [
                0.009999999776482582,
                0.009999999776482582,
                0.009999999776482582
            ],
            "mesh": 40,
            "name": "base"
        },
        {
            "scale": [
                0.009999999776482582,
                0.009999999776482582,
                0.009999999776482582
            ],
            "mesh": 41,
            "name": "core"
        },
        {
            "scale": [
                0.009999999776482582,
                0.009999999776482582,
                0.009999999776482582
            ],
            "mesh": 42,
            "name": "material_surface"
        },
        {
            "scale": [
                0.009999999776482582,
                0.009999999776482582,
                0.009999999776482582
            ],
            "mesh": 43,
            "name": "sss_bars"
        },
        {
            "children": [
                57,
                58,
                59,
                60
            ],
            "translation": [
                -0.07857885956764221,
                0.0,
                0.0000033950807392102435
            ],
            "name": "ShaderBall_0_0"
        },
        {
            "scale": [
                0.009999999776482582,
                0.009999999776482582,
                0.009999999776482582
            ],
            "mesh": 44,
            "name": "base_n3d"
        },
        {
            "scale": [
                0.009999999776482582,
                0.009999999776482582,
                0.009999999776482582
            ],
            "mesh": 45,
            "name": "core_n3d"
        },
        {
            "scale": [
                0.009999999776482582,
                0.009999999776482582,
                0.009999999776482582
            ],
            "mesh": 46,
            "name": "material_surface_n3d"
        },
        {
            "scale": [
                0.009999999776482582,
                0.009999999776482582,
                0.009999999776482582
            ],
            "mesh": 47,
            "name": "sss_bars_n3d"
        },
        {
            "children": [
                62,
                63,
                64,
                65,
                66,
                67,
                68,
                69,
                70
            ],
            "translation": [
                0.07077066600322724,
                0.16409268975257874,
                0.45942217111587527
            ],
            "name": "UI"
        },
        {
            "translation": [
                0.12214017659425736,
                0.11451491713523865,
                -0.44208240509033205
            ],
            "mesh": 48,
            "name": "texture"
        },
        {
            "translation": [
                -0.23789739608764649,
                0.03674482926726341,
                -0.44208240509033205
            ],
            "mesh": 49,
            "name": "texture"
        },
        {
            "translation": [
                -0.14646103978157044,
                0.11428054422140122,
                -0.44208240509033205
            ],
            "mesh": 50,
            "name": "0.0"
        },
        {
            "translation": [
                0.026736024767160417,
                0.11428054422140122,
                -0.44208240509033205
            ],
            "mesh": 51,
            "name": "1.0"
        },
        {
            "translation": [
                -0.06113336980342865,
                0.11428054422140122,
                -0.44208240509033205
            ],
            "mesh": 52,
            "name": "0.5"
        },
        {
            "translation": [
                -0.23789739608764649,
                -0.046453580260276797,
                -0.44208240509033205
            ],
            "mesh": 53,
            "name": "0.5"
        },
        {
            "translation": [
                -0.23789739608764649,
                -0.1296560913324356,
                -0.44208240509033205
            ],
            "mesh": 54,
            "name": "1.0"
        },
        {
            "translation": [
                -0.2916833162307739,
                -0.034357376396656039,
                -0.44208240509033205
            ],
            "rotation": [
                0.0,
                0.0,
                0.7071067690849304,
                0.7071068286895752
            ],
            "scale": [
                0.9999998211860657,
                0.9999998211860657,
                1.0
            ],
            "mesh": 55,
            "name": "transmission"
        },
        {
            "translation": [
                -0.014515508897602559,
                0.1725294589996338,
                -0.44721519947052
            ],
            "mesh": 56,
            "name": "scatterStrength"
        }
    ],
    "samplers": [
        {}
    ],
    "scenes": [
        {
            "nodes": [
                1,
                6,
                11,
                16,
                21,
                26,
                31,
                36,
                41,
                46,
                51,
                56,
                61
            ],
            "name": "scene"
        }
    ],
    "textures": [
        {
            "name": "ambient",
            "sampler": 0,
            "source": 0
        },
        {
            "name": "thickness",
            "sampler": 0,
            "source": 1
        },
        {
            "name": "tmp_image_pie_c854_abce_d4d4base_color",
            "sampler": 0,
            "source": 2
        },
        {
            "name": "texture27274",
            "sampler": 0,
            "source": 3
        },
        {
            "name": "texture26830_thickness",
            "sampler": 0,
            "source": 4
        }
    ],
    "scene": 0,
    "extensions": {
        "KHR_xmp_json_ld": {
            "packets": [
                {
                    "@context": {
                        "dc": "http://purl.org/dc/elements/1.1/"
                    },
                    "dc:date": "2026-03-25T22:26:41.64Z",
                    "dc:title": "ScatterStrength.ssg",
                    "xmp:CreatorTool": "Adobe Substance 3D Stager"
                }
            ]
        }
    },
    "extensionsUsed": [
        "KHR_xmp_json_ld",
        "KHR_texture_transform",
        "KHR_materials_transmission",
        "KHR_materials_scatter",
        "KHR_materials_volume"
    ],
    "extensionsRequired": [
        "KHR_texture_transform"
    ]
}